<svg width="381" height="353" viewBox="0 0 381 353" fill="none" xmlns="http://www.w3.org/2000/svg">
<path fill-rule="evenodd" clip-rule="evenodd" d="M180.427 0.531197C175.502 1.71986 171.906 5.92223 170.86 11.7092C170.582 13.2507 169.425 15.2842 168.111 16.5428C165.653 18.8978 163.928 19.0794 154.395 17.9875C150.454 17.5364 149.628 17.6808 147.365 19.2186C145.955 20.1773 143.435 22.7481 141.767 24.9326C139.07 28.4622 138.032 29.1767 132.422 31.3598C117.889 37.0165 105.033 44.0584 93.4027 52.7319C85.3434 58.7429 84.145 61.028 87.0895 64.7711C89.6656 68.0468 92.4753 67.4647 99.2835 62.2442C102.503 59.776 107.901 56.0865 111.28 54.0456C116.938 50.6285 132.149 42.9502 133.31 42.9249C133.584 42.9189 134.037 43.9535 134.315 45.2233C134.594 46.4931 136.429 49.3058 138.393 51.474C142.11 55.5796 143.328 58.635 142.325 61.3458C141.931 62.4101 138.927 64.3178 133.272 67.0926C118.991 74.1018 108.791 81.5731 97.0097 93.654C75.6591 115.547 63.7145 141.995 60.8771 173.655C59.9445 184.056 60.4224 187.253 63.0997 188.542C63.7785 188.869 68.9574 189.312 74.6089 189.526L84.8841 189.916L69.1524 207.407C60.5005 217.027 52.4955 225.845 51.3641 227.002L49.3061 229.104L31.6332 209.51L13.9611 189.916L24.2608 189.526C29.9265 189.312 35.1024 188.874 35.7634 188.555C37.7596 187.588 38.655 184.554 38.655 178.754C38.655 165.737 42.6401 145.31 47.9492 131.115C53.4326 116.453 63.3512 99.0138 72.0798 88.6895C77.5355 82.2356 78.556 80.0428 77.4016 77.2547C76.2583 74.4955 73.2319 73.2562 70.5547 74.4508C65.7881 76.5781 51.8368 96.0983 44.4197 111.019C35.4776 129.007 29.308 151.471 27.7911 171.565L27.2768 178.379H16.5803H5.88382L3.24375 180.799C0.160073 183.624 -0.880472 188.063 0.798691 191.229C2.00001 193.494 40.7972 236.772 43.8823 239.288C46.8276 241.691 52.066 241.691 55.0172 239.288C56.1902 238.333 66.3515 227.29 77.5973 214.749C91.798 198.912 98.1998 191.239 98.5534 189.629C99.3371 186.061 98.3457 183.127 95.5166 180.643L92.9375 178.379H82.6676C77.019 178.379 72.2398 178.222 72.0477 178.029C71.4962 177.478 72.7593 165.952 74.0879 159.399C77.0078 145.005 84.5268 127.638 93.1006 115.485C99.419 106.528 113.97 92.0582 122.39 86.3576C128.893 81.955 133.943 79.0254 134.182 79.5166C138.884 89.2083 141.464 93.5915 144.25 96.6208C147.261 99.8943 148.151 100.419 151.294 100.773C153.274 100.996 156.718 100.741 158.95 100.205C162.511 99.3502 163.324 99.3822 165.591 100.464C168.273 101.742 171.135 105.57 171.139 107.885C171.144 110.445 174.096 114.976 176.888 116.712C179.505 118.339 180.459 118.462 190.494 118.462C200.529 118.462 201.484 118.339 204.101 116.712C206.893 114.976 209.844 110.445 209.849 107.885C209.854 105.57 212.716 101.742 215.397 100.464C217.598 99.4142 218.564 99.3599 221.915 100.1C226.38 101.086 227.213 101.182 230.272 101.058C233.711 100.921 239.5 94.4035 243.43 86.2474C245.223 82.5258 246.88 79.4593 247.113 79.4332C247.346 79.4072 249.61 80.642 252.144 82.1768C266.654 90.9671 279.677 103.449 289.51 117.99C291.272 120.597 293.746 123.359 295.008 124.128C297.929 125.909 301.877 125.915 304.785 124.142C307.643 122.399 324.532 103.852 325.739 101.131C327.826 96.4273 326.813 93.5535 319.833 84.3762C302.923 62.1422 277.87 43.1377 251.516 32.5536C242.547 28.9512 242.1 28.6654 238.682 24.3469C234.044 18.4869 231.698 17.2819 226.285 17.9793C217.485 19.1136 215.327 18.8903 212.938 16.6008C211.629 15.3467 210.377 13.078 209.86 11.023C207.678 2.34285 204.463 0.365216 192.004 0.0347424C187.285 -0.0903016 182.075 0.132991 180.427 0.531197ZM197.692 11.486C198.172 11.7911 198.804 13.0423 199.099 14.2659C201.813 25.54 213.976 32.6511 224.933 29.3687C227.803 28.5091 227.975 28.556 229.66 30.6683C230.621 31.8741 232.447 34.9704 233.716 37.5494L236.024 42.2386L233.014 45.5031C228.937 49.9266 227.515 53.4643 227.472 59.2892C227.428 65.1447 229.271 69.7334 233.274 73.7355L236.05 76.5118L233.762 81.1124C232.504 83.6423 230.683 86.6873 229.716 87.8789C228.004 89.9876 227.866 90.0218 224.526 89.1815C217.487 87.4085 211.184 88.9024 205.837 93.6094C202.117 96.8836 200.531 99.3994 199.124 104.257L198.244 107.297H190.523H182.803L181.321 102.851C179.304 96.7987 173.736 91.1569 168.14 89.4956C163.413 88.0918 161.043 88.0278 156.462 89.1815C153.122 90.0218 152.985 89.9876 151.273 87.8789C150.306 86.6873 148.485 83.6423 147.226 81.1124L144.938 76.5118L147.514 73.9358C151.579 69.8711 153.503 65.1678 153.466 59.386C153.427 53.4174 152.031 49.905 147.932 45.4577L144.881 42.147L147.248 37.4817C148.551 34.9161 150.395 31.8406 151.347 30.6467C153.012 28.5582 153.189 28.5098 156.055 29.3687C167.012 32.6511 179.176 25.54 181.889 14.2659C182.184 13.0423 182.817 11.7911 183.296 11.486C184.43 10.7647 196.558 10.7647 197.692 11.486ZM185.137 38.7098C177.703 40.7879 172.125 46.3777 169.921 53.9585C167.176 63.3986 171.876 73.6261 181.19 78.4813C184.235 80.0681 185.927 80.4209 190.494 80.4209C195.061 80.4209 196.753 80.0681 199.798 78.4813C212.635 71.7899 215.684 55.7761 206.181 44.9531C201.393 39.4995 192.137 36.7538 185.137 38.7098ZM257.142 47.3036C273.43 55.3362 289.062 66.8164 301.042 79.5449C307.73 86.6523 315.054 96.1192 314.679 97.1746C314.353 98.0901 300.495 113.721 300.247 113.451C300.146 113.342 297.976 110.405 295.425 106.925C289.201 98.437 274.371 83.8775 265.67 77.7146C261.781 74.9592 254.244 70.4889 248.923 67.7788C242.656 64.5887 239.04 62.3059 238.66 61.3019C237.656 58.6469 238.889 55.567 242.596 51.474C244.559 49.3058 246.394 46.4931 246.673 45.2233C246.952 43.9535 247.419 42.9144 247.711 42.9144C248.003 42.9144 252.247 44.8898 257.142 47.3036ZM194.211 50.0702C198.335 51.7204 200.457 54.8971 200.457 59.4217C200.457 70.2336 186.412 73.3783 181.341 63.7023C178.77 58.7928 181.057 52.6813 186.369 50.2682C190.073 48.5861 190.476 48.5756 194.211 50.0702ZM327.551 127.222C325.37 128.27 283.625 174.38 282.71 176.752C281.648 179.501 281.935 182.284 283.552 184.936C285.855 188.714 288.768 189.543 299.735 189.543H309.286L308.697 195.684C307.108 212.243 302.173 227.697 293.611 242.922C291.752 246.226 290.232 249.651 290.232 250.532C290.232 252.754 293.476 255.787 295.854 255.787C298.881 255.787 301.623 252.219 306.92 241.382C314.548 225.776 318.36 212.191 320.005 194.743C321.325 180.742 319.156 178.386 304.932 178.382C300.122 178.38 296.186 178.182 296.186 177.941C296.186 177.535 330.255 139.572 331.245 138.875C331.697 138.557 366.896 177.135 366.896 177.946C366.896 178.185 362.96 178.384 358.15 178.39C348.464 178.402 346.603 178.962 344.147 182.606C342.864 184.51 342.476 186.547 342.082 193.456C339.379 240.785 313.967 284.354 273.485 311.067C267.557 314.979 254.587 322.031 253.32 322.031C252.827 322.031 253.577 302.187 254.192 298.957C254.446 297.624 256.032 296.177 259.783 293.856C270.199 287.413 284.516 275.021 285.341 271.735C285.868 269.634 284.168 265.866 282.383 265.181C279.717 264.158 278.115 264.948 272.208 270.202C262.609 278.739 255.672 283.702 255.375 282.244C255.118 280.983 257.886 229.849 258.651 221.735L259.089 217.083H262.044C263.67 217.083 265.981 216.575 267.183 215.954C271.26 213.845 271.624 212.086 271.624 194.475V178.493L269.716 176.225C268.665 174.977 266.572 173.614 265.064 173.195C263.482 172.756 253.102 172.431 240.549 172.429L218.778 172.424V164.213C218.778 154.967 217.913 151.973 214.088 147.983C208.957 142.63 207.511 142.28 190.494 142.28C173.478 142.28 172.032 142.63 166.9 147.983C163.075 151.973 162.21 154.967 162.21 164.213V172.424L140.439 172.429C127.887 172.431 117.506 172.756 115.925 173.195C114.416 173.614 112.323 174.977 111.273 176.225L109.364 178.493V194.475C109.364 211.731 109.684 213.425 113.394 215.856C114.426 216.532 116.755 217.083 118.583 217.083H121.899L122.333 221.735C123.103 229.992 125.866 281.006 125.612 282.293C125.421 283.268 123.983 282.5 119.04 278.788C108.602 270.947 100.794 262.586 89.7259 247.398C88.6005 245.855 86.9109 244.088 85.9708 243.472C83.8116 242.057 79.6449 241.879 76.7503 243.078C74.3164 244.086 56.0161 264.006 54.9435 266.814C53.0991 271.644 54.5602 275.053 62.9791 285.559C78.1325 304.469 97.1637 319.687 119.04 330.385C124.158 332.888 128.447 335.009 128.573 335.1C128.698 335.191 129.079 338.02 129.418 341.388C129.969 346.853 130.286 347.761 132.367 349.843L134.699 352.175H190.494H246.289L248.621 349.843C250.702 347.761 251.019 346.853 251.57 341.388C251.909 338.02 252.291 335.186 252.416 335.09C252.541 334.993 256.831 332.891 261.948 330.417C278.423 322.453 293.371 311.663 306.777 298.058C333.805 270.628 350.197 234.608 353.196 196.056L353.703 189.543H363.301C374.318 189.543 377.224 188.719 379.53 184.936C381.147 182.284 381.434 179.501 380.372 176.752C379.377 174.173 337.622 128.232 335.321 127.183C332.895 126.078 329.9 126.093 327.551 127.222ZM205.695 155.249C207.517 156.962 207.613 157.441 207.613 164.739V172.424H190.494H173.375V164.739C173.375 157.723 173.521 156.919 175.05 155.509C177.454 153.293 178.397 153.169 191.739 153.313C203.366 153.44 203.84 153.505 205.695 155.249ZM260.459 194.754V205.918H190.494H120.529V194.754V183.589H190.494H260.459V194.754ZM247.301 217.641C247.531 218.033 240.756 339.292 240.398 341.197C240.379 341.299 217.922 341.383 190.494 341.383C163.066 341.383 140.608 341.299 140.586 341.197C140.236 339.542 133.447 218.036 133.682 217.641C134.117 216.911 246.873 216.911 247.301 217.641ZM163.699 247.6C162.259 249.04 162.21 250.08 162.21 279.49C162.21 307.5 162.313 309.983 163.513 311.065C165.963 313.272 168.507 313.374 170.851 311.357L173.003 309.506V279.231V248.956L171.246 247.534C168.968 245.689 165.58 245.719 163.699 247.6ZM209.743 247.533L207.986 248.956L207.775 278.827L207.564 308.699L209.84 310.975C211.686 312.82 212.5 313.155 214.145 312.745C218.98 311.538 218.778 312.985 218.778 279.519C218.778 249.233 218.774 249.142 217.149 247.629C215.104 245.723 212.027 245.684 209.743 247.533ZM85.7222 260.843C95.4258 273.837 108.447 285.964 121.107 293.795C124.95 296.173 126.539 297.616 126.79 298.957C127.39 302.162 128.134 322.031 127.654 322.031C127.404 322.031 124.274 320.558 120.7 318.759C107.628 312.177 93.5122 301.806 82.477 290.677C75.776 283.917 66.1945 272.187 66.1945 270.742C66.1945 270.055 80.0431 254.298 80.6468 254.298C80.7502 254.298 83.0345 257.244 85.7222 260.843Z" fill="white" fill-opacity="0.1"/>
</svg>
