<svg width="126" height="153" viewBox="0 0 126 153" fill="none" xmlns="http://www.w3.org/2000/svg">
<path fill-rule="evenodd" clip-rule="evenodd" d="M57.4811 0.417105C56.2925 1.06308 56.0279 2.016 55.3813 7.97636C55.0603 10.9357 54.7425 13.4119 54.6752 13.4791C54.6077 13.5467 52.7825 13.9604 50.6185 14.3984C37.7928 16.9954 26.5694 23.2287 17.3023 32.9024C5.1861 45.5497 -1.21228 63.4785 0.190799 80.8506C1.41799 96.0472 7.25352 109.163 17.5038 119.765C21.1651 123.551 23.9793 125.915 28.1693 128.722C31.5897 131.013 38.29 134.437 39.3541 134.437C41.1338 134.437 42.3809 133.122 42.3293 131.301C42.2894 129.897 41.5974 129.301 37.8118 127.414C25.9263 121.488 17.0583 112.516 11.4572 100.748C8.37268 94.2681 6.78655 88.3124 6.09917 80.633C5.47313 73.6347 6.52754 65.1144 8.91903 57.85C10.2462 53.8185 13.815 46.799 16.351 43.233C18.6948 39.9365 23.8178 34.4661 26.9611 31.9031C33.819 26.311 42.6851 22.0523 51.1198 20.2993C52.572 19.9973 53.8412 19.8314 53.9402 19.9304C54.0392 20.0294 53.9739 21.2793 53.7946 22.7079C53.2877 26.75 53.3643 28.361 54.1003 29.1508C54.9115 30.0219 56.154 30.3279 57.2299 29.9219C57.6968 29.7454 61.2368 27.0529 65.0961 23.9385C72.4984 17.9645 73.1718 17.1949 72.4938 15.4827C71.9826 14.192 60.9329 0.747717 60.0591 0.353286C58.9794 -0.133916 58.472 -0.121463 57.4811 0.417105ZM84.5652 18.1618C83.0886 18.9644 82.7225 20.9963 83.7947 22.4393C84.016 22.7372 85.3033 23.4849 86.6553 24.101C103.181 31.632 115.213 46.7695 119.034 64.837C119.658 67.7836 119.866 69.8501 120 74.4155C120.196 81.1096 119.864 84.5141 118.476 90.0392C113.16 111.197 96.3763 127.383 74.8548 132.105C73.5183 132.399 72.3425 132.556 72.2416 132.455C72.1407 132.354 72.2183 130.862 72.4141 129.14C72.9122 124.76 72.8801 124.342 71.9642 123.253C71.3176 122.485 70.9179 122.295 69.9426 122.295C68.8334 122.295 68.1167 122.784 61.7557 127.883C57.9216 130.956 54.4888 133.847 54.1267 134.307C53.3291 135.321 53.2843 136.524 54.0062 137.558C55.3411 139.471 65.0927 151.448 65.6213 151.823C66.6137 152.529 68.386 152.349 69.2848 151.45C70.0226 150.712 70.1222 150.245 70.7047 144.804C71.0493 141.584 71.4596 138.863 71.6168 138.756C71.774 138.649 72.6233 138.473 73.5037 138.365C77.2363 137.908 84.3743 135.738 88.8027 133.715C109.436 124.287 123.083 105.628 125.724 83.2327C126.313 78.2359 125.919 68.8368 124.921 64.0802C120.758 44.2376 108.189 27.9741 90.3593 19.3557C86.7624 17.6174 85.8957 17.4387 84.5652 18.1618ZM83.3209 38.7747C82.8741 39.0807 81.6133 40.0168 80.5191 40.8552C76.7874 43.7143 73.1646 45.0336 64.9874 46.5111C55.8436 48.1635 52.0543 49.3471 48.4506 51.6763C43.2931 55.0099 39.086 61.5072 37.1936 69.0612C36.2434 72.8539 36.2593 79.025 37.2291 82.9124C37.8604 85.4421 40.1208 90.6369 41.522 92.7769C42.0628 93.6028 42.0519 93.6464 40.4751 96.9796C39.5991 98.8322 38.5882 101.118 38.2293 102.06C37.117 104.977 35.7236 110.515 35.5234 112.814C35.3484 114.822 35.3948 115.079 36.0732 115.86C36.5221 116.377 37.2568 116.783 37.9385 116.892C38.8793 117.041 39.223 116.925 40.0414 116.181C40.8941 115.405 41.0812 114.932 41.4984 112.489C42.1556 108.644 44.1149 102.92 46.239 98.6401C50.7459 89.5595 59.4237 78.663 68.7232 70.4067C71.5819 67.8686 72.1348 67.5047 73.1317 67.5047C74.6004 67.5047 75.8833 68.8962 75.8833 70.4889C75.8833 71.4446 75.4481 71.9928 71.7585 75.6843C62.5393 84.9088 57.516 91.7751 56.5226 96.5105C56.2081 98.01 56.2368 98.3571 56.7629 99.4333C57.6249 101.195 58.416 101.5 61.5151 101.264C77.914 100.012 87.6979 90.2095 90.2379 72.4856C90.7886 68.6434 90.6943 58.8128 90.0604 53.9626C89.5443 50.0146 88.4307 44.019 87.7297 41.4158C87.0388 38.8506 84.9963 37.6269 83.3209 38.7747Z" fill="#028C32" fill-opacity="0.08"/>
</svg>
