<svg width="141" height="120" viewBox="0 0 141 120" fill="none" xmlns="http://www.w3.org/2000/svg">
<path fill-rule="evenodd" clip-rule="evenodd" d="M14.6706 0.466787C13.5875 1.00077 12.4793 2.07892 11.9385 3.12458C11.7168 3.55309 9.5555 9.13251 7.13537 15.523C4.71551 21.9134 2.62199 27.1811 2.4832 27.2293C1.83328 27.4537 0.853711 28.4553 0.448061 29.3104C0.125578 29.9895 0 31.0388 0 33.0494C0 36.1161 0.305683 37.0929 1.64215 38.2953L2.40746 38.9838L4.65548 64.8369C5.89171 79.0562 7.03045 90.928 7.18604 91.2188C7.86295 92.4834 10.0091 92.3991 10.7146 91.0803C10.9729 90.5981 10.5901 85.3684 8.82379 65.2409C7.60601 51.3618 6.60938 39.8069 6.60938 39.5638C6.60938 39.1653 7.67101 39.1215 17.3496 39.1215C27.7227 39.1215 28.1086 39.1027 28.6406 38.5707C29.3365 37.8748 29.3476 36.6215 28.6651 35.7785L28.1389 35.1283L16.1349 35.0509L4.13086 34.9738V32.9166V30.8597H16.1104C27.7227 30.8597 28.1066 30.843 28.6406 30.309C29.3365 29.6131 29.3476 28.3597 28.6651 27.5168L28.1389 26.8666L17.7872 26.7881C12.0938 26.7451 7.43555 26.6463 7.43555 26.5686C7.43555 26.4912 9.24597 21.6314 11.4585 15.7692C17.0481 0.960013 17.0742 0.941561 17.0742 11.8038V19.4608L17.8693 20.7143C18.3975 21.5477 19.073 22.1659 19.8838 22.5584C21.0076 23.1023 21.5416 23.1488 26.6746 23.1488C32.2224 23.1488 32.2485 23.146 32.9216 22.4727C33.7833 21.6113 33.7833 20.5555 32.9216 19.694C32.2518 19.024 32.1989 19.0179 27.0558 19.0179C23.3864 19.0179 21.7691 18.921 21.5355 18.6875C21.2957 18.4476 21.2051 16.4138 21.2051 11.2657V4.17437L30.4552 4.09176L39.7055 4.00914L40.2315 3.35894C40.8688 2.5716 40.9087 1.45544 40.329 0.628166L39.9005 0.0159723L27.7299 0.022306C17.1659 0.0278138 15.4423 0.0864726 14.6706 0.466787ZM47.5991 0.572537C45.6573 1.59837 45.2268 2.47246 40.4821 15.0286C36.4703 25.6458 35.8476 27.1067 35.1622 27.5107C33.7524 28.3413 33.2171 29.5993 33.0964 32.3642C32.9596 35.4995 33.3223 36.8949 34.5549 37.9769L35.5042 38.8108L38.8039 76.413C41.7233 109.684 42.1703 114.167 42.6847 115.33C43.4487 117.057 44.4436 118.083 46.1279 118.879L47.5049 119.53H70.5H93.4951L94.8721 118.879C96.5553 118.083 97.5513 117.057 98.3134 115.334C98.8253 114.177 99.2772 109.64 102.192 76.4196L105.49 38.8155L106.42 37.999C107.633 36.9346 108.075 35.1484 107.884 32.0896C107.725 29.5398 107.213 28.3768 105.887 27.5559C105.142 27.0943 104.613 25.8595 100.517 15.0239C95.7423 2.39122 95.3386 1.57744 93.3417 0.558768C92.3283 0.0415838 91.6715 0.0159723 79.481 0.0159723H66.6845L66.1139 0.741627C65.3708 1.68622 65.3934 2.28987 66.2072 3.23639L66.8717 4.00914L76.8097 4.0879L86.748 4.16666V11.2618C86.748 16.413 86.6574 18.4476 86.4176 18.6875C85.9406 19.1645 55.0594 19.1645 54.5824 18.6875C54.3426 18.4476 54.252 16.4108 54.252 11.2519V4.14684H56.414C58.832 4.14684 60.1899 3.78525 60.5917 3.03453C61.0252 2.22461 60.904 1.16022 60.3105 0.566754C59.795 0.0512223 59.4015 0.0167981 54.1831 0.0280891C49.217 0.0391048 48.4963 0.0985895 47.5991 0.572537ZM100.676 0.619905C100.057 1.50363 100.126 2.85443 100.821 3.48452C101.363 3.97472 102.005 4.01465 110.598 4.09176L119.795 4.17437V11.2657C119.795 16.4138 119.704 18.4476 119.464 18.6875C119.231 18.921 117.614 19.0179 113.944 19.0179C108.801 19.0179 108.748 19.024 108.078 19.694C107.211 20.5607 107.217 21.6118 108.094 22.4879L108.785 23.1791L114.658 23.0951L120.532 23.0111L121.63 22.2499C122.233 21.8313 122.997 21.009 123.327 20.4224C123.902 19.3988 123.926 19.0513 123.926 11.7515C123.926 3.78415 123.992 3.37739 125.089 4.62877C125.432 5.02065 133.564 26.0657 133.564 26.5631C133.564 26.6438 128.906 26.7451 123.213 26.7881L112.861 26.8666L112.335 27.5168C111.652 28.3597 111.663 29.6131 112.359 30.309C112.893 30.843 113.277 30.8597 124.89 30.8597H136.869V32.9166V34.9738L124.865 35.0509L112.861 35.1283L112.335 35.7785C111.652 36.6215 111.663 37.8748 112.359 38.5707C112.891 39.1027 113.277 39.1215 123.65 39.1215H134.391L134.387 39.7411C134.386 40.082 134.2 42.3435 133.975 44.767C133.414 50.8195 133.433 51.8608 134.119 52.4812C134.865 53.1559 136.211 53.121 136.924 52.408C137.435 51.8966 137.563 51.1139 138.079 45.3346C138.649 38.9494 138.672 38.8257 139.393 38.2215C140.679 37.1439 141 36.112 141 33.0494C141 31.0388 140.874 29.9895 140.552 29.3104C140.147 28.4564 139.168 27.4548 138.518 27.2293C138.38 27.1811 136.238 21.7881 133.757 15.2448C131.277 8.70125 128.963 2.93209 128.615 2.42454C128.267 1.91672 127.535 1.19822 126.987 0.827549L125.991 0.153668L113.551 0.0768339L101.111 0L100.676 0.619905ZM50.1211 11.5934C50.1211 18.3713 50.1682 19.1317 50.6452 20.0617C51.3075 21.3535 52.1912 22.18 53.4897 22.7225C54.3712 23.091 56.6867 23.148 70.56 23.1427C85.5757 23.137 86.6814 23.1039 87.7119 22.6283C89.0451 22.0131 89.8842 21.1412 90.4526 19.7802C90.801 18.9466 90.8789 17.4256 90.8789 11.4535C90.8789 5.43098 90.9455 4.14684 91.2584 4.14684C91.4669 4.14684 91.7772 4.3151 91.9482 4.52082C92.119 4.72681 94.1073 9.77665 96.3666 15.743L100.475 26.5912L85.4873 26.6625C77.2443 26.7016 63.7565 26.7016 55.5143 26.6625L40.529 26.5912L44.6254 15.7551C46.8784 9.7951 48.8659 4.74498 49.0421 4.53293C49.2181 4.32061 49.5331 4.14684 49.7416 4.14684C50.0547 4.14684 50.1211 5.45191 50.1211 11.5934ZM103.766 32.994L103.847 34.9906H70.5121H37.1777V33.1089C37.1777 32.0737 37.2609 31.144 37.3625 31.0423C37.4641 30.9407 52.428 30.8889 70.6159 30.9275L103.685 30.9974L103.766 32.994ZM101.158 39.328C101.225 39.4415 99.8192 56.1751 98.0344 76.5132C95.7864 102.132 94.679 113.638 94.4295 113.966C93.2734 115.491 94.9194 115.393 70.5 115.393C46.0723 115.393 47.728 115.491 46.5661 113.961C46.3111 113.625 45.2304 102.405 42.9593 76.508C41.1759 56.1726 39.7725 39.4415 39.8405 39.328C40.0021 39.0579 100.998 39.0579 101.158 39.328ZM68.1592 57.7401C66.7756 58.4941 66.1298 59.2379 64.2412 62.2516C63.2437 63.8436 62.1262 65.6254 61.7577 66.2117L61.0883 67.2772L60.5702 66.4257C59.9707 65.44 59.0903 65.133 58.0245 65.5381C56.6691 66.0536 56.5738 66.7999 57.4008 70.426C58.135 73.6464 58.539 74.4844 59.5048 74.7909C60.0495 74.9639 65.9255 73.93 66.6737 73.5296C67.2983 73.1956 67.7221 71.8922 67.4476 71.1503C67.1369 70.3103 65.9541 69.5998 65.1293 69.7573C64.7509 69.8298 64.4414 69.8515 64.4414 69.8058C64.4414 69.7601 65.5934 67.8874 67.0017 65.6444C69.4753 61.7038 69.5956 61.5631 70.5617 61.4816C71.4909 61.4034 71.6412 61.5055 72.6918 62.9274C73.7281 64.3305 73.9115 64.4574 74.8994 64.4574C76.1218 64.4574 76.834 63.7395 76.834 62.5068C76.834 61.5281 75.1032 58.9576 73.8799 58.1193C72.6037 57.2449 69.4508 57.0357 68.1592 57.7401ZM133.327 58.3606C132.647 59.0405 132.873 56.923 130.251 87.1772C129.043 101.112 127.987 112.808 127.904 113.168C127.821 113.528 127.397 114.179 126.962 114.614L126.171 115.405H115.313C104.125 115.405 102.982 115.503 102.44 116.517C102.006 117.327 102.127 118.391 102.721 118.985C103.254 119.518 103.639 119.536 114.942 119.536C127.897 119.536 127.658 119.565 129.735 117.689C131.018 116.53 131.83 115.088 132.053 113.571C132.139 112.989 133.254 100.554 134.532 85.9379C136.799 59.9983 136.843 59.3462 136.353 58.6742C135.684 57.7569 134.096 57.5922 133.327 58.3606ZM76.9224 65.611C76.1907 65.9649 75.9045 66.6457 75.1695 69.7816C74.4667 72.7803 74.5342 73.7298 75.5019 74.4489C76.5853 75.2541 77.5431 74.9495 78.5645 73.4751C78.8578 73.0518 79.1734 73.4432 81.1025 76.622C82.4944 78.9155 83.2897 80.5094 83.2622 80.9514C83.2101 81.793 82.2534 82.6332 81.3474 82.6332C80.4835 82.6332 79.5879 83.5536 79.5879 84.4415C79.5879 86.2045 80.8461 86.9797 82.9063 86.4854C85.5347 85.8548 87.4161 83.4332 87.3971 80.7055C87.385 78.9851 87.2729 78.7365 84.4808 74.2211C83.3613 72.4105 82.3572 70.7815 82.2495 70.6011C82.1074 70.3626 82.3126 70.3153 83.0038 70.4274C84.9024 70.7355 86.0901 68.4564 84.7366 67.1026C84.2483 66.6143 83.3693 66.3315 80.9244 65.8757C79.1765 65.5502 77.6962 65.2919 77.6346 65.3023C77.5729 65.3125 77.2526 65.4513 76.9224 65.611ZM56.042 76.0547C55.7391 76.2026 55.2318 76.7211 54.9151 77.2067C53.1314 79.9394 53.4112 82.8599 55.6686 85.0666C57.1331 86.4983 58.5635 86.7641 64.8093 86.7641C70.1208 86.7641 70.2943 86.7814 69.8542 87.2678C69.2271 87.9607 69.2759 89.3954 69.9492 90.0688C70.272 90.3915 70.8704 90.6209 71.395 90.6226C72.1669 90.6251 72.6219 90.2767 74.6997 88.0929C77.9532 84.6728 77.9546 84.4753 74.7474 81.1888C73.4547 79.8642 72.0835 78.7017 71.6999 78.6056C70.0715 78.197 68.8011 80.4414 69.7989 81.9643L70.2373 82.6332H64.7107C59.2101 82.6332 59.1809 82.6299 58.5081 81.9572C57.6905 81.1395 57.661 80.556 58.3828 79.4662C59.2977 78.0846 59.0776 76.8057 57.8122 76.1514C56.9235 75.6917 56.799 75.6848 56.042 76.0547ZM8.22482 97.5412C7.55452 98.2115 7.56939 98.7984 8.51645 109.065C9.07522 115.12 9.3429 115.953 11.3015 117.722C13.3496 119.573 13.0491 119.536 26.0156 119.536C37.3614 119.536 37.7459 119.518 38.2793 118.985C38.8728 118.391 38.9939 117.327 38.5605 116.517C38.0185 115.504 36.8729 115.405 25.7691 115.405C14.0135 115.405 14.2212 115.432 13.3865 113.804C13.1529 113.35 12.7599 110.21 12.3672 105.662C11.8344 99.4874 11.6432 98.1523 11.2145 97.607C10.5406 96.7506 9.04851 96.7176 8.22482 97.5412Z" fill="#028C32" fill-opacity="0.08"/>
</svg>
