<svg width="50" height="47" viewBox="0 0 50 47" fill="none" xmlns="http://www.w3.org/2000/svg">
<path fill-rule="evenodd" clip-rule="evenodd" d="M23.678 0.0697109C23.0318 0.225703 22.5598 0.777196 22.4226 1.53665C22.3861 1.73894 22.2343 2.0058 22.0619 2.17097C21.7392 2.48002 21.5129 2.50386 20.2618 2.36056C19.7446 2.30137 19.6362 2.32032 19.3393 2.52212C19.1542 2.64793 18.8235 2.98532 18.6046 3.272C18.2506 3.73519 18.1144 3.82896 17.3783 4.11545C15.471 4.85781 13.7838 5.78195 12.2576 6.92019C11.1999 7.70905 11.0427 8.00892 11.4291 8.50014C11.7671 8.93003 12.1359 8.85364 13.0293 8.16852C13.4518 7.84462 14.1603 7.36043 14.6037 7.0926C15.3462 6.64415 17.3423 5.6365 17.4947 5.63318C17.5307 5.6324 17.5901 5.76817 17.6267 5.93481C17.6633 6.10145 17.9041 6.47058 18.1618 6.75512C18.6497 7.29391 18.8095 7.69488 18.6779 8.05063C18.6261 8.19031 18.2319 8.44066 17.4898 8.8048C15.6156 9.72464 14.277 10.7051 12.7309 12.2906C9.92902 15.1637 8.36148 18.6345 7.98913 22.7893C7.86674 24.1543 7.92944 24.5739 8.28079 24.7431C8.36988 24.786 9.04952 24.8441 9.7912 24.8722L11.1396 24.9233L9.07512 27.2188C7.9397 28.4812 6.88917 29.6384 6.7407 29.7902L6.47062 30.0662L4.15134 27.4948L1.83216 24.9233L3.18384 24.8722C3.92736 24.8441 4.60662 24.7867 4.69336 24.7448C4.95533 24.6179 5.07284 24.2196 5.07284 23.4585C5.07284 21.7502 5.59581 19.0695 6.29255 17.2067C7.01215 15.2825 8.31381 12.9939 9.45928 11.639C10.1753 10.7921 10.3092 10.5043 10.1577 10.1384C10.0077 9.77631 9.61049 9.61368 9.25914 9.77045C8.63361 10.0496 6.80272 12.6113 5.82936 14.5694C4.65585 16.9301 3.84619 19.878 3.64712 22.515L3.57963 23.4093H2.17589H0.772154L0.425689 23.7268C0.0210069 24.0976 -0.115548 24.6802 0.104815 25.0956C0.262468 25.3929 5.35396 31.0725 5.75883 31.4026C6.14535 31.7179 6.83281 31.7179 7.2201 31.4026C7.37405 31.2773 8.70755 29.8281 10.1834 28.1824C12.047 26.1039 12.8871 25.097 12.9335 24.8857C13.0364 24.4174 12.9063 24.0324 12.535 23.7064L12.1965 23.4093H10.8488C10.1075 23.4093 9.48029 23.3887 9.45508 23.3634C9.3827 23.2911 9.54846 21.7785 9.72282 20.9185C10.106 19.0295 11.0928 16.7504 12.2179 15.1555C13.0471 13.9801 14.9566 12.0811 16.0617 11.333C16.9151 10.7552 17.5778 10.3708 17.6092 10.4353C18.2262 11.7071 18.5649 12.2824 18.9305 12.6799C19.3256 13.1095 19.4424 13.1784 19.8549 13.2248C20.1146 13.2541 20.5667 13.2206 20.8596 13.1502C21.3269 13.0381 21.4336 13.0423 21.7311 13.1842C22.0831 13.352 22.4586 13.8544 22.4592 14.1582C22.4599 14.4941 22.8472 15.0887 23.2136 15.3165C23.557 15.5301 23.6823 15.5462 24.9992 15.5462C26.3161 15.5462 26.4415 15.5301 26.7849 15.3165C27.1513 15.0887 27.5386 14.4941 27.5393 14.1582C27.5399 13.8544 27.9154 13.352 28.2674 13.1842C28.5562 13.0465 28.6829 13.0394 29.1226 13.1365C29.7086 13.2659 29.818 13.2785 30.2195 13.2623C30.6707 13.2442 31.4305 12.3889 31.9461 11.3186C32.1814 10.8302 32.399 10.4277 32.4295 10.4243C32.4601 10.4209 32.7572 10.5829 33.0898 10.7844C34.994 11.9379 36.703 13.576 37.9934 15.4842C38.2246 15.8263 38.5494 16.1888 38.715 16.2898C39.0983 16.5235 39.6164 16.5242 39.9981 16.2916C40.3731 16.0629 42.5895 13.6288 42.7479 13.2718C43.0218 12.6545 42.8889 12.2774 41.9728 11.073C39.7537 8.15514 36.4659 5.66112 33.0074 4.27213C31.8303 3.79937 31.7717 3.76186 31.3231 3.19513C30.7144 2.42611 30.4066 2.26796 29.6962 2.35949C28.5414 2.50835 28.2582 2.47905 27.9446 2.17859C27.7728 2.014 27.6085 1.71628 27.5407 1.44659C27.2543 0.30746 26.8325 0.0479286 25.1973 0.00455937C24.5781 -0.0118506 23.8943 0.0174529 23.678 0.0697109ZM25.9439 1.50734C26.0068 1.54739 26.0898 1.71159 26.1285 1.87217C26.4846 3.35171 28.0809 4.28493 29.5188 3.85416C29.8955 3.74135 29.9179 3.7475 30.1391 4.02471C30.2652 4.18295 30.5048 4.58929 30.6713 4.92775L30.9742 5.54312L30.5793 5.97154C30.0442 6.55204 29.8576 7.01631 29.8519 7.78074C29.8462 8.54918 30.0881 9.15136 30.6134 9.67658L30.9777 10.0409L30.6775 10.6447C30.5123 10.9767 30.2733 11.3763 30.1464 11.5327C29.9217 11.8094 29.9037 11.8139 29.4654 11.7036C28.5416 11.4709 27.7144 11.667 27.0127 12.2847C26.5245 12.7144 26.3163 13.0445 26.1317 13.6821L26.0163 14.081H25.0031H23.9899L23.7955 13.4976C23.5306 12.7032 22.8 11.9628 22.0656 11.7448C21.4452 11.5606 21.1342 11.5522 20.5331 11.7036C20.0948 11.8139 20.0767 11.8094 19.8521 11.5327C19.7252 11.3763 19.4862 10.9767 19.321 10.6447L19.0207 10.0409L19.3588 9.70286C19.8923 9.16944 20.1447 8.55221 20.1398 7.79344C20.1348 7.01016 19.9516 6.54921 19.4137 5.96558L19.0132 5.53111L19.3239 4.91886C19.4949 4.58216 19.7368 4.17856 19.8617 4.02188C20.0803 3.74779 20.1036 3.74144 20.4797 3.85416C21.9176 4.28493 23.5138 3.35171 23.87 1.87217C23.9087 1.71159 23.9917 1.54739 24.0546 1.50734C24.2035 1.41269 25.795 1.41269 25.9439 1.50734ZM24.2963 5.08003C23.3205 5.35275 22.5885 6.08631 22.2993 7.08117C21.9392 8.32002 22.5559 9.66222 23.7783 10.2994C24.1779 10.5076 24.3999 10.5539 24.9992 10.5539C25.5986 10.5539 25.8206 10.5076 26.2202 10.2994C27.9049 9.42125 28.305 7.3197 27.0579 5.89936C26.4295 5.18367 25.2148 4.82333 24.2963 5.08003ZM33.7457 6.20783C35.8833 7.26197 37.9346 8.76856 39.5068 10.439C40.3846 11.3717 41.3456 12.6141 41.2964 12.7526C41.2537 12.8727 39.435 14.924 39.4025 14.8886C39.3892 14.8742 39.1045 14.4888 38.7697 14.0322C37.9529 12.9182 36.0066 11.0075 34.8648 10.1988C34.3544 9.83716 33.3654 9.25051 32.667 8.89486C31.8446 8.47621 31.37 8.17663 31.3202 8.04486C31.1884 7.69644 31.3503 7.29225 31.8367 6.75512C32.0944 6.47058 32.3352 6.10145 32.3718 5.93481C32.4083 5.76817 32.4697 5.63181 32.508 5.63181C32.5464 5.63181 33.1032 5.89105 33.7457 6.20783ZM25.487 6.5709C26.0282 6.78745 26.3067 7.20434 26.3067 7.79813C26.3067 9.217 24.4635 9.6297 23.7981 8.35988C23.4606 7.71559 23.7608 6.91355 24.4579 6.59688C24.944 6.37612 24.9968 6.37476 25.487 6.5709ZM42.9857 16.6959C42.6995 16.8334 37.2212 22.8846 37.101 23.1959C36.9617 23.5566 36.9993 23.9218 37.2116 24.2698C37.5138 24.7657 37.896 24.8745 39.3353 24.8745H40.5887L40.5115 25.6803C40.3029 27.8534 39.6552 29.8815 38.5316 31.8795C38.2877 32.3132 38.0882 32.7626 38.0882 32.8782C38.0882 33.1698 38.5139 33.5679 38.8259 33.5679C39.2233 33.5679 39.583 33.0996 40.2782 31.6775C41.2792 29.6295 41.7795 27.8465 41.9954 25.5569C42.1687 23.7194 41.8839 23.4103 40.0173 23.4097C39.3861 23.4095 38.8696 23.3835 38.8696 23.3519C38.8696 23.2985 43.3405 18.3165 43.4705 18.225C43.5297 18.1833 48.149 23.2461 48.149 23.3525C48.149 23.3838 47.6325 23.41 47.0013 23.4108C45.7302 23.4123 45.4859 23.4859 45.1637 23.964C44.9953 24.214 44.9444 24.4812 44.8926 25.388C44.5379 31.5991 41.203 37.3167 35.8904 40.8224C35.1125 41.3358 33.4103 42.2612 33.2441 42.2612C33.1794 42.2612 33.2779 39.657 33.3586 39.2332C33.3919 39.0583 33.6 38.8684 34.0922 38.5638C35.4592 37.7182 37.3381 36.092 37.4463 35.6608C37.5155 35.3851 37.2924 34.8905 37.0581 34.8007C36.7083 34.6663 36.498 34.7701 35.7228 35.4596C34.4631 36.5799 33.5527 37.2312 33.5138 37.0399C33.4801 36.8745 33.8433 30.1639 33.9437 29.0991L34.0012 28.4886H34.389C34.6023 28.4886 34.9057 28.4219 35.0633 28.3404C35.5984 28.0637 35.6462 27.8328 35.6462 25.5217V23.4242L35.3957 23.1266C35.2579 22.9629 34.9832 22.784 34.7853 22.729C34.5777 22.6713 33.2155 22.6287 31.5681 22.6285L28.711 22.6279V21.5503C28.711 20.3368 28.5975 19.944 28.0956 19.4203C27.4222 18.7178 27.2324 18.6719 24.9992 18.6719C22.7661 18.6719 22.5763 18.7178 21.9029 19.4203C21.401 19.944 21.2875 20.3368 21.2875 21.5503V22.6279L18.4304 22.6285C16.783 22.6287 15.4208 22.6713 15.2132 22.729C15.0152 22.784 14.7406 22.9629 14.6027 23.1266L14.3523 23.4242V25.5217C14.3523 27.7863 14.3942 28.0085 14.8811 28.3276C15.0165 28.4163 15.3222 28.4886 15.562 28.4886H15.9973L16.0542 29.0991C16.1552 30.1827 16.5178 36.8774 16.4845 37.0464C16.4594 37.1742 16.2707 37.0735 15.6221 36.5864C14.2523 35.5574 13.2276 34.4601 11.775 32.4669C11.6274 32.2644 11.4056 32.0325 11.2823 31.9517C10.9989 31.766 10.4521 31.7426 10.0722 31.9C9.75281 32.0322 7.35119 34.6464 7.21043 35.015C6.96839 35.6488 7.16013 36.0963 8.26497 37.475C10.2536 39.9566 12.7511 41.9536 15.6221 43.3577C16.2937 43.6861 16.8566 43.9645 16.8731 43.9764C16.8895 43.9883 16.9395 44.3596 16.984 44.8016C17.0563 45.5188 17.0979 45.638 17.371 45.9112L17.6771 46.2172H24.9992H32.3214L32.6274 45.9112C32.9006 45.638 32.9422 45.5188 33.0144 44.8016C33.059 44.3596 33.109 43.9876 33.1254 43.975C33.1419 43.9624 33.7048 43.6865 34.3764 43.3619C36.5384 42.3167 38.5002 40.9007 40.2594 39.1152C43.8064 35.5155 45.9576 30.7884 46.3512 25.7292L46.4177 24.8745H47.6772C49.1231 24.8745 49.5044 24.7662 49.807 24.2698C50.0193 23.9218 50.0569 23.5566 49.9176 23.1959C49.787 22.8574 44.3073 16.8283 44.0053 16.6907C43.687 16.5457 43.294 16.5477 42.9857 16.6959ZM26.994 20.3738C27.2331 20.5987 27.2458 20.6616 27.2458 21.6192V22.6279H24.9992H22.7526V21.6192C22.7526 20.6985 22.7718 20.593 22.9724 20.408C23.2879 20.1172 23.4117 20.1009 25.1626 20.1199C26.6885 20.1365 26.7507 20.1451 26.994 20.3738ZM34.181 25.5582V27.0234H24.9992H15.8175V25.5582V24.093H24.9992H34.181V25.5582ZM32.4543 28.5618C32.4843 28.6132 31.5953 44.5265 31.5483 44.7765C31.5457 44.7898 28.5987 44.8009 24.9992 44.8009C21.3998 44.8009 18.4524 44.7898 18.4496 44.7765C18.4037 44.5593 17.5127 28.6137 17.5435 28.5618C17.6006 28.466 32.3981 28.466 32.4543 28.5618ZM21.4828 32.4934C21.2938 32.6824 21.2875 32.819 21.2875 36.6784C21.2875 40.3544 21.3009 40.6802 21.4584 40.8221C21.7799 41.1119 22.1137 41.1251 22.4214 40.8605L22.7038 40.6176V36.6445V32.6715L22.4732 32.4848C22.1743 32.2426 21.7297 32.2466 21.4828 32.4934ZM27.5253 32.4847L27.2947 32.6714L27.267 36.5915L27.2394 40.5116L27.5381 40.8103C27.7803 41.0526 27.8872 41.0965 28.103 41.0426C28.7375 40.8843 28.711 41.0742 28.711 36.6822C28.711 32.7077 28.7104 32.6958 28.4972 32.4972C28.2289 32.2471 27.8251 32.242 27.5253 32.4847ZM11.2496 34.2314C12.5231 35.9366 14.2319 37.528 15.8933 38.5558C16.3976 38.8679 16.6062 39.0573 16.6391 39.2332C16.7179 39.6538 16.8155 42.2612 16.7525 42.2612C16.7196 42.2612 16.309 42.068 15.8399 41.8319C14.1244 40.9682 12.2719 39.6071 10.8238 38.1465C9.94436 37.2595 8.68694 35.7201 8.68694 35.5305C8.68694 35.4403 10.5043 33.3725 10.5836 33.3725C10.5971 33.3725 10.8969 33.759 11.2496 34.2314Z" fill="#028C32"/>
</svg>
