<svg width="328" height="9" viewBox="0 0 328 9" fill="none" xmlns="http://www.w3.org/2000/svg">
<path d="M7.1164 4.52356C9.68445 4.52356 12.3748 4.47644 14.9428 4.42932C16.0434 4.42932 17.0217 4.3822 18.1223 4.3822C22.7693 4.28796 27.4162 4.19372 32.0631 4.09948C37.6884 4.00524 43.1914 3.86387 48.8166 3.76963C56.7653 3.58115 64.714 3.43979 72.6627 3.25131C74.4971 3.20419 76.3314 3.20419 78.1657 3.15707C82.8126 3.06283 87.4596 2.96859 92.1065 2.92147C96.7535 2.82723 101.4 2.73298 106.047 2.68586C107.882 2.63874 109.716 2.59162 111.55 2.59162C118.888 2.49738 126.347 2.40314 133.684 2.3089C138.209 2.26178 142.734 2.21466 147.381 2.12042C149.215 2.12042 150.927 2.0733 152.761 2.0733C159.854 2.02618 167.069 1.97906 174.162 1.93194C181.254 1.88482 188.225 1.8377 195.318 1.79058C197.152 1.79058 198.986 1.79058 200.943 1.79058C205.59 1.79058 210.114 1.79058 214.761 1.79058C221.976 1.79058 229.069 1.79058 236.284 1.74346C238.607 1.74346 240.931 1.74346 243.254 1.74346C248.146 1.74346 253.037 1.74346 257.929 1.74346C258.296 1.74346 258.785 1.74346 259.152 1.74346C248.146 1.79058 237.018 1.8377 226.012 1.93194C221.365 1.97906 216.84 1.97906 212.193 2.02618C210.237 2.02618 208.158 2.02618 206.201 2.0733C199.475 2.12042 192.872 2.21466 186.146 2.26178C178.442 2.35602 170.738 2.40314 163.034 2.49738C161.688 2.49738 160.465 2.5445 159.12 2.5445C154.963 2.63874 150.927 2.68586 146.769 2.7801C138.454 2.92147 130.138 3.06283 121.822 3.20419C120.6 3.20419 119.377 3.25131 118.154 3.29843C114.118 3.39267 109.961 3.53403 105.925 3.62827C98.5878 3.81675 91.3728 4.00524 84.0355 4.19372C82.0789 4.24084 80 4.33508 78.0434 4.3822C73.3965 4.52356 68.7495 4.66492 64.1026 4.8534C58.2328 5.04188 52.2407 5.23037 46.3708 5.41885C38.1775 5.70157 29.862 5.98429 21.6687 6.26702C19.7121 6.31414 17.7555 6.40838 15.6766 6.4555C12.1302 6.59686 8.58386 6.73822 5.03751 6.87958C4.67064 6.87958 4.30378 6.97382 4.30378 7.1623C4.30378 7.30366 4.67064 7.44503 5.03751 7.44503C6.38267 7.44503 7.60555 7.49215 8.95072 7.49215C8.70615 7.72775 8.58386 7.86911 8.58386 8.01047C8.58386 8.5288 9.68445 9 11.1519 9C21.3018 8.7644 31.3294 8.48168 41.4793 8.29319C50.2841 8.15183 59.0888 7.96335 67.8935 7.82199C77.5543 7.63351 87.3373 7.44503 96.998 7.30366C100.055 7.25654 103.112 7.20942 106.17 7.11518C107.026 7.11518 107.882 7.06806 108.86 7.06806C124.513 6.9267 140.166 6.73822 155.819 6.59686C164.134 6.50262 172.572 6.40838 180.888 6.36126C183.945 6.31414 186.88 6.31414 189.937 6.26702C205.957 6.17277 221.976 6.07853 237.996 5.98429C244.844 5.93717 251.692 5.89005 258.54 5.84293C264.41 5.79581 270.28 5.79581 276.15 5.70157C281.041 5.65445 285.811 5.56021 290.702 5.51309C293.148 5.46597 295.594 5.46597 297.917 5.41885C303.42 5.27749 308.923 5.13613 314.426 4.99476C314.059 5.18325 314.059 5.46597 314.181 5.65445C314.304 5.89005 314.671 6.07853 315.282 6.17277C315.771 6.26702 316.505 6.36126 316.994 6.26702C318.217 6.07853 319.44 5.89005 320.54 5.70157C320.54 5.70157 320.54 5.70157 320.418 5.70157C320.54 5.70157 320.54 5.65445 320.663 5.65445C320.785 5.65445 320.907 5.60733 320.907 5.60733H320.785C321.396 5.51309 322.008 5.41885 322.742 5.27749C323.353 5.18325 324.087 5.04188 324.698 4.94764C325.432 4.80628 326.043 4.66492 326.777 4.52356C327.511 4.3822 328 4.00524 328 3.67539C328 3.48691 327.878 3.34555 327.633 3.15707C327.389 2.96859 326.777 2.73298 326.166 2.68586C325.554 2.63874 324.943 2.59162 324.331 2.59162C324.209 2.59162 324.087 2.59162 323.964 2.59162C323.598 2.59162 323.108 2.59162 322.742 2.63874C321.763 2.68586 320.907 2.73298 319.929 2.73298C319.195 2.73298 318.462 2.7801 317.606 2.7801C315.527 2.82722 313.57 2.87435 311.491 2.96859C311.002 2.96859 310.391 3.01571 309.901 3.01571C310.146 2.92147 310.268 2.82723 310.268 2.73298C310.391 2.63874 310.391 2.5445 310.391 2.45026C310.391 2.40314 310.391 2.3089 310.513 2.26178C310.513 2.16754 310.513 2.0733 310.391 2.02618C310.391 2.02618 310.513 2.02618 310.513 1.97906C310.88 1.88482 311.247 1.79058 311.491 1.60209C311.736 1.46073 311.858 1.27225 311.858 1.08377C311.858 0.895288 311.736 0.753927 311.491 0.565445C311.369 0.518325 311.247 0.424084 311.124 0.376963C310.757 0.235602 310.391 0.188482 310.024 0.141361C309.29 0.0471204 308.434 0 307.578 0C306.844 0 306.233 0 305.499 0C304.521 0 303.542 0 302.564 0C301.219 0 299.751 0 298.406 0C294.738 0 291.069 0 287.4 0C283.976 0 280.43 0 277.006 0C273.826 0 270.769 0 267.59 0C254.994 0 242.521 0.0471204 229.925 0.0942408C220.509 0.141361 211.093 0.188482 201.677 0.188482C197.519 0.188482 193.239 0.235602 189.081 0.282723C179.665 0.376963 170.249 0.424084 160.832 0.518325C158.142 0.518325 155.452 0.565445 152.761 0.565445C151.172 0.565445 149.704 0.612565 148.114 0.612565C138.821 0.753927 129.527 0.895288 120.233 1.03665C117.42 1.08377 114.608 1.13089 111.673 1.17801C110.083 1.17801 108.493 1.22513 106.903 1.27225C97.6095 1.46073 88.4379 1.64921 79.144 1.8377C74.3748 1.93194 69.6055 2.02618 64.8363 2.16754C56.643 2.35602 48.4497 2.5445 40.3787 2.7801C33.286 2.96859 26.1933 3.10995 19.1006 3.25131C18 3.29843 16.8994 3.29843 15.6766 3.34555C13.8422 3.39267 12.0079 3.39267 10.1736 3.43979C8.58386 3.62827 6.87183 3.62827 5.28208 3.62827C5.1598 3.43979 4.67064 3.29843 4.30378 3.34555C3.20319 3.34555 2.22488 3.39267 1.12429 3.43979C0.635141 3.48691 0.145989 3.58115 0.0237012 3.76963C-0.0985867 4.00524 0.268277 4.24084 0.757429 4.28796C1.24658 4.33508 1.73573 4.3822 2.22488 4.42932C2.71404 4.47644 3.0809 4.47644 3.57005 4.47644C4.79293 4.52356 5.89352 4.52356 7.1164 4.52356ZM293.27 3.01571C294.738 3.01571 296.327 3.01571 297.795 3.01571C297.917 3.15707 298.162 3.25131 298.406 3.34555C297.795 3.34555 297.183 3.39267 296.694 3.39267C295.594 3.39267 294.493 3.43979 293.392 3.43979C288.501 3.48691 283.732 3.58115 278.84 3.62827C276.639 3.67539 274.438 3.72251 272.237 3.72251C268.813 3.72251 265.266 3.76963 261.842 3.76963C253.893 3.81675 246.067 3.86387 238.118 3.91099C222.71 4.00524 207.424 4.09948 192.016 4.19372C181.01 4.24084 170.004 4.3822 158.998 4.52356C142.489 4.71204 125.858 4.8534 109.349 5.04188C106.047 5.08901 102.746 5.13613 99.4438 5.23037C90.0276 5.41885 80.6115 5.56021 71.1953 5.74869C62.0237 5.93717 52.7298 6.07853 43.5582 6.26702C42.7022 6.26702 41.8462 6.31414 40.9902 6.31414C43.4359 6.2199 46.004 6.17277 48.4497 6.07853C57.1322 5.84293 65.8146 5.56021 74.4971 5.32461C77.5543 5.23037 80.6115 5.13613 83.5464 5.04188C85.1361 4.99476 86.7259 4.94764 88.1933 4.94764C97.3649 4.75916 106.414 4.52356 115.464 4.33508C117.176 4.28796 119.01 4.24084 120.722 4.19372C123.29 4.1466 125.858 4.09948 128.304 4.09948C137.598 3.95812 146.892 3.81675 156.185 3.67539C158.264 3.62827 160.343 3.62827 162.3 3.58115C162.789 3.58115 163.4 3.58115 163.89 3.58115C165.357 3.58115 166.824 3.58115 168.17 3.53403C177.464 3.43979 186.88 3.39267 196.174 3.29843C200.454 3.25131 204.734 3.20419 209.014 3.20419C222.832 3.15707 236.773 3.10995 250.592 3.06283C265.022 3.06283 279.207 3.01571 293.27 3.01571Z" fill="white" fill-opacity="0.7"/>
</svg>
