<svg width="199" height="68" viewBox="0 0 199 68" fill="none" xmlns="http://www.w3.org/2000/svg">
<path d="M3.79686 63.0624C5.16701 63.0624 6.6024 63.0162 7.97255 62.97C8.55975 62.97 9.08171 62.9238 9.66892 62.9238C12.1482 62.8314 14.6275 62.7391 17.1069 62.6467C20.1081 62.5543 23.0442 62.4158 26.0454 62.3234C30.2864 62.1386 34.5273 62.0001 38.7682 61.8153C39.7469 61.7691 40.7256 61.7691 41.7043 61.7229C44.1836 61.6306 46.6629 61.5382 49.1422 61.492C51.6215 61.3996 54.1008 61.3073 56.5801 61.2611C57.5588 61.2149 58.5375 61.1687 59.5162 61.1687C63.4309 61.0763 67.4108 60.984 71.3255 60.8916C73.7396 60.8454 76.1537 60.7992 78.633 60.7068C79.6117 60.7068 80.5251 60.6606 81.5038 60.6606C85.288 60.6145 89.1374 60.5683 92.9217 60.5221C96.7059 60.4759 100.425 60.4297 104.209 60.3835C105.188 60.3835 106.166 60.3835 107.21 60.3835C109.69 60.3835 112.104 60.3835 114.583 60.3835C118.432 60.3835 122.217 60.3835 126.066 60.3373C127.306 60.3373 128.545 60.3373 129.785 60.3373C132.395 60.3373 135.005 60.3373 137.615 60.3373C137.81 60.3373 138.071 60.3373 138.267 60.3373C132.395 60.3835 126.458 60.4297 120.586 60.5221C118.106 60.5683 115.692 60.5683 113.213 60.6145C112.169 60.6145 111.06 60.6145 110.016 60.6606C106.427 60.7068 102.904 60.7992 99.3157 60.8454C95.2052 60.9378 91.0948 60.984 86.9844 61.0763C86.2667 61.0763 85.6142 61.1225 84.8965 61.1225C82.6782 61.2149 80.5251 61.2611 78.3068 61.3535C73.8701 61.492 69.4334 61.6306 64.9968 61.7691C64.3443 61.7691 63.6919 61.8153 63.0394 61.8615C60.8863 61.9539 58.668 62.0924 56.5149 62.1848C52.6002 62.3696 48.7507 62.5543 44.836 62.7391C43.7921 62.7852 42.6829 62.8776 41.639 62.9238C39.1597 63.0624 36.6804 63.2009 34.2011 63.3857C31.0693 63.5704 27.8723 63.7552 24.7405 63.9399C20.3691 64.217 15.9324 64.4942 11.561 64.7713C10.5171 64.8175 9.47319 64.9098 8.36402 64.956C6.47191 65.0946 4.5798 65.2332 2.68769 65.3717C2.49196 65.3717 2.29622 65.4641 2.29622 65.6488C2.29622 65.7874 2.49196 65.926 2.68769 65.926C3.40539 65.926 4.05784 65.9721 4.77554 65.9721C4.64505 66.2031 4.5798 66.3416 4.5798 66.4802C4.5798 66.9883 5.16701 67.4501 5.94995 67.4501C11.3653 67.2192 16.7154 66.9421 22.1307 66.7573C26.8284 66.6188 31.526 66.434 36.2237 66.2955C41.378 66.1107 46.5976 65.926 51.752 65.7874C53.3831 65.7412 55.0143 65.695 56.6454 65.6027C57.1021 65.6027 57.5588 65.5565 58.0808 65.5565C66.4322 65.4179 74.7835 65.2332 83.1349 65.0946C87.5716 65.0022 92.0735 64.9098 96.5101 64.8637C98.1413 64.8175 99.7072 64.8175 101.338 64.7713C109.885 64.6789 118.432 64.5865 126.98 64.4942C130.633 64.448 134.287 64.4018 137.941 64.3556C141.073 64.3094 144.204 64.3094 147.336 64.217C149.946 64.1709 152.49 64.0785 155.1 64.0323C156.405 63.9861 157.71 63.9861 158.95 63.9399C161.886 63.8014 164.822 63.6628 167.758 63.5242C167.562 63.709 167.562 63.9861 167.627 64.1709C167.693 64.4018 167.888 64.5865 168.214 64.6789C168.475 64.7713 168.867 64.8637 169.128 64.7713C169.78 64.5865 170.433 64.4018 171.02 64.217C171.02 64.217 171.02 64.217 170.955 64.217C171.02 64.217 171.02 64.1709 171.085 64.1709C171.151 64.1709 171.216 64.1247 171.216 64.1247H171.151C171.477 64.0323 171.803 63.9399 172.194 63.8014C172.521 63.709 172.912 63.5704 173.238 63.4781C173.63 63.3395 173.956 63.2009 174.348 63.0624C174.739 62.9238 175 62.5543 175 62.231C175 62.0463 174.935 61.9077 174.804 61.7229C174.674 61.5382 174.348 61.3073 174.021 61.2611C173.695 61.2149 173.369 61.1687 173.043 61.1687C172.977 61.1687 172.912 61.1687 172.847 61.1687C172.651 61.1687 172.39 61.1687 172.194 61.2149C171.672 61.2611 171.216 61.3073 170.694 61.3073C170.302 61.3073 169.911 61.3535 169.454 61.3535C168.345 61.3996 167.301 61.4458 166.192 61.5382C165.931 61.5382 165.605 61.5844 165.344 61.5844C165.474 61.492 165.539 61.3996 165.539 61.3073C165.605 61.2149 165.605 61.1225 165.605 61.0301C165.605 60.984 165.605 60.8916 165.67 60.8454C165.67 60.753 165.67 60.6606 165.605 60.6145C165.605 60.6145 165.67 60.6145 165.67 60.5683C165.866 60.4759 166.061 60.3835 166.192 60.1988C166.322 60.0602 166.388 59.8755 166.388 59.6907C166.388 59.506 166.322 59.3674 166.192 59.1827C166.127 59.1365 166.061 59.0441 165.996 58.9979C165.8 58.8594 165.605 58.8132 165.409 58.767C165.017 58.6746 164.561 58.6284 164.104 58.6284C163.713 58.6284 163.386 58.6284 162.995 58.6284C162.473 58.6284 161.951 58.6284 161.429 58.6284C160.711 58.6284 159.928 58.6284 159.211 58.6284C157.253 58.6284 155.296 58.6284 153.339 58.6284C151.512 58.6284 149.62 58.6284 147.793 58.6284C146.096 58.6284 144.465 58.6284 142.769 58.6284C136.049 58.6284 129.394 58.6746 122.673 58.7208C117.65 58.767 112.626 58.8132 107.602 58.8132C105.383 58.8132 103.1 58.8594 100.882 58.9055C95.8577 58.9979 90.8338 59.0441 85.8099 59.1365C84.3746 59.1365 82.9392 59.1827 81.5038 59.1827C80.6556 59.1827 79.8726 59.2288 79.0245 59.2288C74.0658 59.3674 69.1072 59.506 64.1486 59.6445C62.6479 59.6907 61.1473 59.7369 59.5814 59.7831C58.7332 59.7831 57.885 59.8293 57.0369 59.8755C52.0782 60.0602 47.1848 60.245 42.2262 60.4297C39.6817 60.5221 37.1371 60.6145 34.5925 60.753C30.2211 60.9378 25.8497 61.1225 21.5435 61.3535C17.7593 61.5382 13.9751 61.6768 10.1909 61.8153C9.60367 61.8615 9.01647 61.8615 8.36402 61.9077C7.38534 61.9539 6.40666 61.9539 5.42799 62.0001C4.5798 62.1848 3.66637 62.1848 2.81818 62.1848C2.75294 62.0001 2.49196 61.8615 2.29622 61.9077C1.70902 61.9077 1.18706 61.9539 0.599851 62.0001C0.338871 62.0463 0.0778906 62.1386 0.0126455 62.3234C-0.0525996 62.5543 0.143136 62.7852 0.404116 62.8314C0.665096 62.8776 0.926077 62.9238 1.18706 62.97C1.44804 63.0162 1.64377 63.0162 1.90475 63.0162C2.5572 63.0624 3.14441 63.0624 3.79686 63.0624ZM156.47 61.5844C157.253 61.5844 158.102 61.5844 158.884 61.5844C158.95 61.7229 159.08 61.8153 159.211 61.9077C158.884 61.9077 158.558 61.9539 158.297 61.9539C157.71 61.9539 157.123 62.0001 156.536 62.0001C153.926 62.0463 151.381 62.1386 148.771 62.1848C147.597 62.231 146.423 62.2772 145.248 62.2772C143.421 62.2772 141.529 62.3234 139.702 62.3234C135.461 62.3696 131.286 62.4158 127.045 62.4619C118.824 62.5543 110.668 62.6467 102.447 62.7391C96.5754 62.7852 90.7033 62.9238 84.8313 63.0624C76.0232 63.2471 67.1499 63.3857 58.3418 63.5704C56.5801 63.6166 54.8185 63.6628 53.0569 63.7552C48.033 63.9399 43.0092 64.0785 37.9853 64.2632C33.0919 64.448 28.1333 64.5865 23.2399 64.7713C22.7832 64.7713 22.3265 64.8175 21.8698 64.8175C23.1747 64.7251 24.5448 64.6789 25.8497 64.5865C30.4821 64.3556 35.1145 64.0785 39.7469 63.8475C41.378 63.7552 43.0092 63.6628 44.575 63.5704C45.4232 63.5242 46.2714 63.4781 47.0544 63.4781C51.9477 63.2933 56.7759 63.0624 61.604 62.8776C62.5174 62.8314 63.4961 62.7852 64.4096 62.7391C65.7797 62.6929 67.1498 62.6467 68.4548 62.6467C73.4134 62.5081 78.372 62.3696 83.3306 62.231C84.4398 62.1848 85.549 62.1848 86.5929 62.1386C86.8539 62.1386 87.1801 62.1386 87.4411 62.1386C88.224 62.1386 89.007 62.1386 89.7247 62.0924C94.6833 62.0001 99.7072 61.9539 104.666 61.8615C106.949 61.8153 109.233 61.7691 111.517 61.7691C118.889 61.7229 126.327 61.6768 133.7 61.6306C141.399 61.6306 148.967 61.5844 156.47 61.5844Z" fill="#5ED186" fill-opacity="0.7"/>
<path d="M15.4091 51H3.03409V16.0909H15.5114C19.0227 16.0909 22.0455 16.7898 24.5795 18.1875C27.1136 19.5739 29.0625 21.5682 30.4261 24.1705C31.8011 26.7727 32.4886 29.8864 32.4886 33.5114C32.4886 37.1477 31.8011 40.2727 30.4261 42.8864C29.0625 45.5 27.1023 47.5057 24.5455 48.9034C22 50.3011 18.9545 51 15.4091 51ZM10.4148 44.6761H15.1023C17.2841 44.6761 19.1193 44.2898 20.608 43.517C22.108 42.733 23.233 41.5227 23.983 39.8864C24.7443 38.2386 25.125 36.1136 25.125 33.5114C25.125 30.9318 24.7443 28.8239 23.983 27.1875C23.233 25.5511 22.1136 24.3466 20.625 23.5739C19.1364 22.8011 17.3011 22.4148 15.1193 22.4148H10.4148V44.6761ZM37.8196 51V24.8182H44.8594V29.3864H45.1321C45.6094 27.7614 46.4105 26.5341 47.5355 25.7045C48.6605 24.8636 49.956 24.4432 51.4219 24.4432C51.7855 24.4432 52.1776 24.4659 52.598 24.5114C53.0185 24.5568 53.3878 24.6193 53.706 24.6989V31.142C53.3651 31.0398 52.8935 30.9489 52.2912 30.8693C51.6889 30.7898 51.1378 30.75 50.6378 30.75C49.5696 30.75 48.6151 30.983 47.7741 31.4489C46.9446 31.9034 46.2855 32.5398 45.7969 33.358C45.3196 34.1761 45.081 35.1193 45.081 36.1875V51H37.8196ZM68.071 51.5114C65.4233 51.5114 63.1335 50.9489 61.2017 49.8239C59.2813 48.6875 57.7983 47.108 56.7528 45.0852C55.7074 43.0511 55.1847 40.6932 55.1847 38.0114C55.1847 35.3068 55.7074 32.9432 56.7528 30.9205C57.7983 28.8864 59.2813 27.3068 61.2017 26.1818C63.1335 25.0455 65.4233 24.4773 68.071 24.4773C70.7188 24.4773 73.0028 25.0455 74.9233 26.1818C76.8551 27.3068 78.3438 28.8864 79.3892 30.9205C80.4347 32.9432 80.9574 35.3068 80.9574 38.0114C80.9574 40.6932 80.4347 43.0511 79.3892 45.0852C78.3438 47.108 76.8551 48.6875 74.9233 49.8239C73.0028 50.9489 70.7188 51.5114 68.071 51.5114ZM68.1051 45.8864C69.3097 45.8864 70.3153 45.5455 71.1222 44.8636C71.929 44.1705 72.5369 43.2273 72.946 42.0341C73.3665 40.8409 73.5767 39.483 73.5767 37.9602C73.5767 36.4375 73.3665 35.0795 72.946 33.8864C72.5369 32.6932 71.929 31.75 71.1222 31.0568C70.3153 30.3636 69.3097 30.017 68.1051 30.017C66.8892 30.017 65.8665 30.3636 65.0369 31.0568C64.2188 31.75 63.5994 32.6932 63.179 33.8864C62.7699 35.0795 62.5653 36.4375 62.5653 37.9602C62.5653 39.483 62.7699 40.8409 63.179 42.0341C63.5994 43.2273 64.2188 44.1705 65.0369 44.8636C65.8665 45.5455 66.8892 45.8864 68.1051 45.8864ZM85.679 60.8182V24.8182H92.8381V29.2159H93.1619C93.4801 28.5114 93.9403 27.7955 94.5426 27.0682C95.1563 26.3295 95.9517 25.7159 96.929 25.2273C97.9176 24.7273 99.1449 24.4773 100.611 24.4773C102.52 24.4773 104.281 24.9773 105.895 25.9773C107.509 26.9659 108.798 28.4602 109.764 30.4602C110.73 32.4489 111.213 34.9432 111.213 37.9432C111.213 40.8636 110.741 43.3295 109.798 45.3409C108.866 47.3409 107.594 48.858 105.98 49.892C104.378 50.9148 102.582 51.4261 100.594 51.4261C99.1847 51.4261 97.9858 51.1932 96.9972 50.7273C96.0199 50.2614 95.2188 49.6761 94.5938 48.9716C93.9688 48.2557 93.4915 47.5341 93.1619 46.8068H92.9403V60.8182H85.679ZM92.7869 37.9091C92.7869 39.4659 93.0028 40.8239 93.4347 41.983C93.8665 43.142 94.4915 44.0455 95.3097 44.6932C96.1278 45.3295 97.1222 45.6477 98.2926 45.6477C99.4744 45.6477 100.474 45.3239 101.293 44.6761C102.111 44.017 102.73 43.108 103.151 41.9489C103.582 40.7784 103.798 39.4318 103.798 37.9091C103.798 36.3977 103.588 35.0682 103.168 33.9205C102.747 32.7727 102.128 31.875 101.31 31.2273C100.491 30.5795 99.4858 30.2557 98.2926 30.2557C97.1108 30.2557 96.1108 30.5682 95.2926 31.1932C94.4858 31.8182 93.8665 32.7045 93.4347 33.8523C93.0028 35 92.7869 36.3523 92.7869 37.9091ZM159.379 33.5455C159.379 37.3523 158.658 40.5909 157.214 43.2614C155.783 45.9318 153.828 47.9716 151.351 49.3807C148.885 50.7784 146.112 51.4773 143.033 51.4773C139.93 51.4773 137.146 50.7727 134.68 49.3636C132.214 47.9545 130.266 45.9148 128.834 43.2443C127.402 40.5739 126.686 37.3409 126.686 33.5455C126.686 29.7386 127.402 26.5 128.834 23.8295C130.266 21.1591 132.214 19.125 134.68 17.7273C137.146 16.3182 139.93 15.6136 143.033 15.6136C146.112 15.6136 148.885 16.3182 151.351 17.7273C153.828 19.125 155.783 21.1591 157.214 23.8295C158.658 26.5 159.379 29.7386 159.379 33.5455ZM151.896 33.5455C151.896 31.0795 151.527 29 150.788 27.3068C150.061 25.6136 149.033 24.3295 147.703 23.4545C146.374 22.5795 144.817 22.142 143.033 22.142C141.249 22.142 139.692 22.5795 138.362 23.4545C137.033 24.3295 135.999 25.6136 135.26 27.3068C134.533 29 134.169 31.0795 134.169 33.5455C134.169 36.0114 134.533 38.0909 135.26 39.7841C135.999 41.4773 137.033 42.7614 138.362 43.6364C139.692 44.5114 141.249 44.9489 143.033 44.9489C144.817 44.9489 146.374 44.5114 147.703 43.6364C149.033 42.7614 150.061 41.4773 150.788 39.7841C151.527 38.0909 151.896 36.0114 151.896 33.5455ZM178.79 24.8182V30.2727H162.631V24.8182H178.79ZM166.33 51V22.9261C166.33 21.0284 166.699 19.4545 167.438 18.2045C168.188 16.9545 169.21 16.017 170.506 15.392C171.801 14.767 173.273 14.4545 174.92 14.4545C176.034 14.4545 177.051 14.5398 177.972 14.7102C178.903 14.8807 179.597 15.0341 180.051 15.1705L178.756 20.625C178.472 20.5341 178.119 20.4489 177.699 20.3693C177.29 20.2898 176.869 20.25 176.438 20.25C175.369 20.25 174.625 20.5 174.205 21C173.784 21.4886 173.574 22.1761 173.574 23.0625V51H166.33ZM197.305 24.8182V30.2727H181.146V24.8182H197.305ZM184.845 51V22.9261C184.845 21.0284 185.214 19.4545 185.953 18.2045C186.703 16.9545 187.726 16.017 189.021 15.392C190.317 14.767 191.788 14.4545 193.436 14.4545C194.55 14.4545 195.567 14.5398 196.487 14.7102C197.419 14.8807 198.112 15.0341 198.567 15.1705L197.271 20.625C196.987 20.5341 196.635 20.4489 196.214 20.3693C195.805 20.2898 195.385 20.25 194.953 20.25C193.885 20.25 193.141 20.5 192.72 21C192.3 21.4886 192.089 22.1761 192.089 23.0625V51H184.845Z" fill="#028C32"/>
</svg>
