<svg width="35" height="28" viewBox="0 0 35 28" fill="none" xmlns="http://www.w3.org/2000/svg">
<path fill-rule="evenodd" clip-rule="evenodd" d="M11.9322 5.52883L6.25661 11.0576L6.29584 11.3423C6.3337 11.6174 6.61834 11.903 14.6997 19.7753C22.781 27.6476 23.0741 27.9249 23.3565 27.9618L23.6488 28L29.3244 22.4712L35 16.9424L34.9607 16.657C34.9231 16.384 34.7759 16.2299 31.5835 13.1219C28.3517 9.97576 28.2373 9.87237 27.9862 9.87237C27.6516 9.87237 27.4901 9.96031 27.3541 10.2164C27.1292 10.64 27.1438 10.6578 29.9067 13.3509L32.485 15.8641H26.2625H20.0401L19.6865 15.6925C19.2939 15.5019 19.0298 15.2328 18.8423 14.8322C18.7247 14.5808 18.7177 14.2268 18.7162 8.50878L18.7147 2.45168L21.2284 4.8971C23.641 7.24413 23.7525 7.34253 23.9987 7.34253C24.1398 7.34253 24.3295 7.29513 24.4203 7.23721C24.6464 7.09287 24.7662 6.72565 24.6649 6.48731C24.6224 6.38738 23.1486 4.90409 21.3897 3.19099C18.3382 0.218898 18.1784 0.0745638 17.8998 0.0381474L17.6078 0L11.9322 5.52883ZM17.3479 6.41048V10.6047H12.9913H8.63464L12.9398 6.41048C15.3077 4.10367 17.2681 2.21627 17.2964 2.21627C17.3247 2.21627 17.3479 4.10367 17.3479 6.41048ZM0.338166 6.96944C-0.119864 7.2167 -0.104829 7.92086 0.362906 8.12844C0.608801 8.23756 2.92287 8.23756 3.16877 8.12844C3.36463 8.04149 3.54274 7.76235 3.54274 7.54225C3.54274 7.32215 3.36463 7.04301 3.16877 6.95606C2.90749 6.84009 0.557134 6.85121 0.338166 6.96944ZM4.79729 6.94068C4.4156 7.09547 4.30708 7.66055 4.59609 7.9879L4.76107 8.17471H6.37894H7.99681L8.16178 7.9879C8.3854 7.73465 8.38547 7.34998 8.16185 7.0966L7.99708 6.90979L6.47038 6.89554C5.63073 6.88769 4.87787 6.90806 4.79729 6.94068ZM25.7946 8.10993C25.5144 8.25234 25.4169 8.40246 25.4144 8.69579C25.4081 9.43657 26.499 9.58843 26.7178 8.87721C26.8127 8.5687 26.6743 8.26186 26.3713 8.10927C26.1215 7.98344 26.0435 7.98351 25.7946 8.10993ZM17.3501 13.4341C17.3794 14.6081 17.4103 14.9577 17.5059 15.1955C17.8436 16.0355 18.5394 16.7123 19.4057 17.0433C19.6444 17.1345 20.0124 17.1651 21.2092 17.1934L22.7127 17.2289L22.7303 21.4397C22.74 23.7557 22.7247 25.6506 22.6963 25.6506C22.6286 25.6506 8.66841 12.0517 8.66841 11.9857C8.66841 11.958 10.6136 11.9429 12.9911 11.9524L17.3137 11.9695L17.3501 13.4341ZM0.338166 13.9598C0.01477 14.1343 -0.0930058 14.518 0.0863244 14.8558C0.260255 15.1835 0.374797 15.1983 2.72475 15.1983H4.90739L5.12288 15.0109C5.30228 14.8547 5.33829 14.7747 5.33829 14.5326C5.33829 14.2905 5.30228 14.2105 5.12288 14.0543L4.90739 13.8669L2.70445 13.8692C1.00731 13.871 0.463984 13.8918 0.338166 13.9598ZM6.27062 14.0523C6.0783 14.2196 6.0403 14.2988 6.0403 14.5326C6.0403 14.7664 6.0783 14.8456 6.27062 15.0129C6.47031 15.1868 6.53804 15.2085 6.78148 15.1766C7.14909 15.1286 7.3699 14.8869 7.3699 14.5326C7.3699 14.1783 7.14909 13.9366 6.78148 13.8886C6.53804 13.8567 6.47031 13.8784 6.27062 14.0523ZM32.7249 17.2457C32.7249 17.2733 30.7874 19.183 28.4193 21.4897L24.1138 25.6835V21.4395V17.1956H28.4193C30.7874 17.1956 32.7249 17.2182 32.7249 17.2457ZM4.89516 17.7214C4.71173 17.881 4.67346 17.9625 4.67346 18.1942C4.67346 18.4259 4.71173 18.5074 4.89516 18.667L5.11679 18.86H7.20349C8.93111 18.86 9.32463 18.8426 9.48988 18.7594C9.73065 18.6381 9.83022 18.4728 9.83022 18.1942C9.83022 17.9157 9.73065 17.7503 9.48988 17.629C9.32463 17.5458 8.93111 17.5285 7.20349 17.5285H5.11679L4.89516 17.7214ZM2.18341 21.8822C1.72538 22.1294 1.74041 22.8336 2.20815 23.0412C2.34182 23.1005 3.64477 23.1207 7.33573 23.1207C11.0267 23.1207 12.3296 23.1005 12.4633 23.0412C12.6592 22.9542 12.8373 22.6751 12.8373 22.455C12.8373 22.2349 12.6592 21.9557 12.4633 21.8688C12.189 21.747 2.4101 21.7598 2.18341 21.8822Z" fill="#028C32"/>
</svg>
