<svg width="31" height="30" viewBox="0 0 31 30" fill="none" xmlns="http://www.w3.org/2000/svg">
<path fill-rule="evenodd" clip-rule="evenodd" d="M14.1005 0.0282303C11.9234 0.236693 10.2686 0.699462 8.46006 1.60566C6.07989 2.79822 3.87288 4.82153 2.42135 7.14183C1.37342 8.81686 0.608896 10.9827 0.300189 13.1507C0.20202 13.8401 0.20202 16.1545 0.300189 16.8439C0.546051 18.5707 1.00286 20.0832 1.71657 21.5337C2.52404 23.1748 3.31497 24.2774 4.62074 25.582C5.91225 26.8722 7.033 27.6779 8.61409 28.4528C9.7173 28.9935 10.4296 29.2566 11.548 29.5369C14.4827 30.2723 17.4261 30.1313 20.2934 29.1179C21.1625 28.8108 22.6797 28.0511 23.4597 27.5326C25.6014 26.1088 27.3713 24.1429 28.5431 21.8862C29.6034 19.8444 30.1339 17.8186 30.2167 15.4956C30.3058 12.9954 29.7912 10.6159 28.6777 8.37918C27.9466 6.9105 27.1327 5.75944 25.9899 4.57801C24.7226 3.26779 23.4795 2.36383 21.8167 1.54299C20.0786 0.685041 18.4591 0.227079 16.5357 0.0495104C15.9379 -0.00565377 14.5788 -0.0175542 14.1005 0.0282303ZM19.1919 8.29494L19.2075 9.77053L18.1357 9.78982C16.515 9.81907 16.5063 9.82787 16.5063 11.4487V12.4765H17.8853C18.6437 12.4765 19.2642 12.4844 19.2642 12.494C19.2642 12.5036 19.1982 13.1394 19.1175 13.907C19.0368 14.6745 18.9708 15.3525 18.9708 15.4137C18.9708 15.5194 18.9095 15.5249 17.7386 15.5249H16.5063V19.863V24.2011H14.6873H12.8683V19.863V15.5249H12.0174H11.1666V14.0007V12.4765H12.0106H12.8547L12.8833 11.1135C12.9158 9.57051 12.9768 9.23988 13.3651 8.50158C13.8478 7.58378 14.7322 7.00166 15.8703 6.8527C16.0749 6.82591 16.9024 6.80744 17.7092 6.81166L19.1762 6.8194L19.1919 8.29494Z" fill="white"/>
</svg>
