<svg width="349" height="551" viewBox="0 0 349 551" fill="none" xmlns="http://www.w3.org/2000/svg">
<path d="M89 77H14C6.8203 77 1 82.8203 1 90V468C1 475.18 6.8203 481 14 481H89" stroke="#028C32"/>
<path d="M1 282H89" stroke="#028C32"/>
<circle cx="74" cy="77" r="15" fill="#028C32"/>
<circle cx="74" cy="282" r="15" fill="#028C32"/>
<circle cx="74" cy="481" r="15" fill="#028C32"/>
<path d="M71.488 81V80.052H73.468V73.488H74.032L71.668 74.952V73.86L73.78 72.54H74.584V80.052H76.444V81H71.488Z" fill="white"/>
<path d="M71.02 286V285.172L73.972 282.076C74.356 281.684 74.64 281.308 74.824 280.948C75.016 280.588 75.112 280.216 75.112 279.832C75.112 279.36 74.964 279.004 74.668 278.764C74.38 278.516 73.956 278.392 73.396 278.392C72.964 278.392 72.556 278.472 72.172 278.632C71.796 278.784 71.436 279.02 71.092 279.34L70.696 278.488C71.024 278.168 71.436 277.912 71.932 277.72C72.436 277.528 72.964 277.432 73.516 277.432C74.38 277.432 75.048 277.632 75.52 278.032C75.992 278.424 76.228 278.988 76.228 279.724C76.228 280.26 76.096 280.772 75.832 281.26C75.576 281.74 75.196 282.236 74.692 282.748L72.112 285.364V285.052H76.576V286H71.02Z" fill="white"/>
<path d="M73.54 485.108C72.964 485.108 72.412 485.02 71.884 484.844C71.364 484.668 70.928 484.42 70.576 484.1L70.972 483.236C71.364 483.556 71.768 483.788 72.184 483.932C72.6 484.076 73.04 484.148 73.504 484.148C74.12 484.148 74.588 484.02 74.908 483.764C75.228 483.5 75.388 483.124 75.388 482.636C75.388 482.156 75.224 481.792 74.896 481.544C74.576 481.296 74.104 481.172 73.48 481.172H72.184V480.248H73.396C73.924 480.248 74.348 480.112 74.668 479.84C74.988 479.568 75.148 479.196 75.148 478.724C75.148 478.292 75 477.964 74.704 477.74C74.416 477.508 74.004 477.392 73.468 477.392C72.564 477.392 71.78 477.708 71.116 478.34L70.72 477.488C71.056 477.152 71.472 476.892 71.968 476.708C72.464 476.524 72.988 476.432 73.54 476.432C74.38 476.432 75.04 476.624 75.52 477.008C76 477.392 76.24 477.928 76.24 478.616C76.24 479.136 76.092 479.584 75.796 479.96C75.508 480.328 75.112 480.572 74.608 480.692V480.56C75.2 480.664 75.66 480.908 75.988 481.292C76.316 481.668 76.48 482.14 76.48 482.708C76.48 483.452 76.216 484.04 75.688 484.472C75.168 484.896 74.452 485.108 73.54 485.108Z" fill="white"/>
</svg>
