<svg width="50" height="46" viewBox="0 0 50 46" fill="none" xmlns="http://www.w3.org/2000/svg">
<path fill-rule="evenodd" clip-rule="evenodd" d="M18.3958 0.119486C17.0348 0.56396 16.3129 2.09276 16.8993 3.28828C17.0515 3.59836 18.7332 5.19315 24.1997 10.2114C28.327 14.0001 31.4662 16.8126 31.6933 16.9248C31.9945 17.0737 32.2521 17.118 32.8167 17.118C34.0326 17.118 32.9197 17.9699 43.7095 8.77964C49.8339 3.56326 49.8751 3.52279 49.9861 2.62041C50.0996 1.6978 49.5067 0.689763 48.5942 0.253527L48.1057 0.0200976L33.4517 0.00415957C20.7944 -0.00953995 18.743 0.00612944 18.3958 0.119486ZM7.95384 6.41607C7.45824 6.64771 6.06299 7.80071 5.1137 8.76326C3.73613 10.1599 2.47286 11.9688 1.64589 13.7288C-1.05337 19.4738 -0.409573 25.8262 3.40808 31.1143C3.83959 31.7121 4.19265 32.2337 4.19265 32.2733C4.19265 32.313 3.30892 33.151 2.22892 34.1354C1.14883 35.1199 0.203647 36.055 0.128521 36.2135C-0.168271 36.8394 0.0955007 37.5828 0.745942 37.9534L1.11532 38.1639L7.17229 38.1884L13.2293 38.213L13.6681 38.0093C13.9094 37.8973 14.2062 37.6688 14.3275 37.5015L14.5481 37.1972V31.5202C14.5481 25.3458 14.5659 25.5521 14 25.1441C13.8576 25.0414 13.5703 24.9153 13.3615 24.8638C12.5968 24.675 12.4697 24.7589 9.75882 27.2422L7.26022 29.5309L6.96137 29.1466C5.64945 27.4593 4.59544 24.9144 4.28058 22.6736C4.12036 21.5336 4.22343 19.2402 4.48573 18.107C4.92838 16.1949 5.68472 14.5539 6.89992 12.8691C7.49097 12.0496 7.94866 11.5628 9.1412 10.4855C10.0449 9.66904 10.698 9.00376 10.7866 8.80946C11.1342 8.04694 10.7818 6.98716 10.0286 6.53033C9.49065 6.20404 8.52173 6.15068 7.95384 6.41607ZM19.9701 21.1656C18.3652 21.9397 18.3506 23.8567 19.9438 24.6078C20.2986 24.775 20.6579 24.779 33.4415 24.7563L46.5747 24.733L46.9983 24.4604C48.3454 23.5935 48.158 21.7269 46.6665 21.1557C46.3459 21.0328 44.8213 21.0175 33.2839 21.0207C21.615 21.0239 20.2328 21.0389 19.9701 21.1656ZM31.9375 28.7799C31.5581 28.8987 30.5166 29.8143 24.3314 35.4659C18.5957 40.7067 17.1185 42.1034 16.9321 42.4618C16.4499 43.3889 16.7205 44.5451 17.5771 45.2171C18.4038 45.8657 17.2739 45.8244 33.5052 45.7983L48.1057 45.7747L48.5942 45.5413C49.5067 45.1051 50.0996 44.097 49.9861 43.1744C49.8751 42.272 49.8339 42.2316 43.7095 37.0152C34.3499 29.0431 34.3788 29.067 33.8457 28.8395C33.2714 28.5944 32.5965 28.5733 31.9375 28.7799Z" fill="#028C32"/>
</svg>
