<svg width="89" height="434" viewBox="0 0 89 434" fill="none" xmlns="http://www.w3.org/2000/svg">
<rect width="89" height="434" fill="#E5E5E5"/>
<path d="M89 15H14C6.8203 15 1 20.8203 1 28V406C1 413.18 6.8203 419 14 419H89" stroke="#028C32"/>
<path d="M1 220L89 220" stroke="#028C32"/>
<circle cx="74" cy="15" r="15" fill="#028C32"/>
<circle cx="74" cy="220" r="15" fill="#028C32"/>
<circle cx="74" cy="419" r="15" fill="#028C32"/>
<path d="M71.488 19V18.052H73.468V11.488H74.032L71.668 12.952V11.86L73.78 10.54H74.584V18.052H76.444V19H71.488Z" fill="white"/>
<path d="M71.02 224V223.172L73.972 220.076C74.356 219.684 74.64 219.308 74.824 218.948C75.016 218.588 75.112 218.216 75.112 217.832C75.112 217.36 74.964 217.004 74.668 216.764C74.38 216.516 73.956 216.392 73.396 216.392C72.964 216.392 72.556 216.472 72.172 216.632C71.796 216.784 71.436 217.02 71.092 217.34L70.696 216.488C71.024 216.168 71.436 215.912 71.932 215.72C72.436 215.528 72.964 215.432 73.516 215.432C74.38 215.432 75.048 215.632 75.52 216.032C75.992 216.424 76.228 216.988 76.228 217.724C76.228 218.26 76.096 218.772 75.832 219.26C75.576 219.74 75.196 220.236 74.692 220.748L72.112 223.364V223.052H76.576V224H71.02Z" fill="white"/>
<path d="M73.54 423.108C72.964 423.108 72.412 423.02 71.884 422.844C71.364 422.668 70.928 422.42 70.576 422.1L70.972 421.236C71.364 421.556 71.768 421.788 72.184 421.932C72.6 422.076 73.04 422.148 73.504 422.148C74.12 422.148 74.588 422.02 74.908 421.764C75.228 421.5 75.388 421.124 75.388 420.636C75.388 420.156 75.224 419.792 74.896 419.544C74.576 419.296 74.104 419.172 73.48 419.172H72.184V418.248H73.396C73.924 418.248 74.348 418.112 74.668 417.84C74.988 417.568 75.148 417.196 75.148 416.724C75.148 416.292 75 415.964 74.704 415.74C74.416 415.508 74.004 415.392 73.468 415.392C72.564 415.392 71.78 415.708 71.116 416.34L70.72 415.488C71.056 415.152 71.472 414.892 71.968 414.708C72.464 414.524 72.988 414.432 73.54 414.432C74.38 414.432 75.04 414.624 75.52 415.008C76 415.392 76.24 415.928 76.24 416.616C76.24 417.136 76.092 417.584 75.796 417.96C75.508 418.328 75.112 418.572 74.608 418.692V418.56C75.2 418.664 75.66 418.908 75.988 419.292C76.316 419.668 76.48 420.14 76.48 420.708C76.48 421.452 76.216 422.04 75.688 422.472C75.168 422.896 74.452 423.108 73.54 423.108Z" fill="white"/>
</svg>
