<svg width="199" height="29" viewBox="0 0 199 29" fill="none" xmlns="http://www.w3.org/2000/svg">
<path fill-rule="evenodd" clip-rule="evenodd" d="M6.36183 1.59071C10.7581 4.60112 30.4164 12.0753 39.2089 14.0822C55.686 17.8192 70.3045 19.3763 82.7427 18.7189C91.3566 18.269 115.947 15.1894 123.739 13.6323C141.002 10.1374 160.839 9.13399 167.952 11.4177L170.168 12.1098C171.133 11.0717 172.027 10.2413 174.386 6.91944C177.209 2.94017 181.999 1.48684 181.999 4.63565C181.999 6.71179 189.719 17.1272 195.116 22.4214C195.116 22.456 205.517 31.0718 189.683 27.9922C181.034 26.2967 170.811 25.9162 160.804 26.8504C157.694 27.1618 158.051 26.2621 163.162 20.5527C167.058 16.2274 167.094 16.435 162.626 15.5354C155.12 14.0475 140.359 15.1202 119.771 18.6496C114.231 19.6185 111.444 19.9991 94.3233 22.2828C75.9161 24.7396 59.5102 24.0476 40.7814 20.0337C27.1994 17.1271 11.7591 11.5909 3.00229 6.50431C-2.53773 3.25169 0.178452 -2.63077 6.36183 1.59071Z" fill="#028C32" fill-opacity="0.5"/>
</svg>
