<svg width="31" height="30" viewBox="0 0 31 30" fill="none" xmlns="http://www.w3.org/2000/svg">
<path fill-rule="evenodd" clip-rule="evenodd" d="M7.95882 0.015201C6.14346 0.210898 4.48478 1.01846 3.17354 2.34507C2.0076 3.52465 1.33916 4.77585 0.989726 6.43275C0.891508 6.89852 0.884521 7.46823 0.884521 15.0026C0.884521 22.5369 0.891508 23.1066 0.989726 23.5724C1.33957 25.231 2.00989 26.4849 3.17354 27.6574C4.3551 28.8478 5.63869 29.5415 7.31304 29.8945C7.77888 29.9927 8.34841 29.9997 15.8844 29.9997C24.8993 29.9997 24.3042 30.0253 25.5853 29.5826C26.7397 29.1837 27.6128 28.6314 28.5442 27.7111C29.7258 26.5436 30.4258 25.2472 30.7791 23.5724C30.8773 23.1066 30.8843 22.5372 30.8843 15.0026C30.8843 6.05328 30.9082 6.64676 30.4977 5.39804C30.1069 4.20883 29.5228 3.27871 28.5666 2.32265C27.4054 1.16168 26.2413 0.519 24.6025 0.13418C24.0793 0.011327 23.9959 0.0100357 16.1192 0.00158326C11.744 -0.00311252 8.07184 0.002992 7.95882 0.015201ZM21.6671 5.42228C23.5602 5.95378 24.9678 7.3715 25.4678 9.25023L25.6006 9.74915V15.0026V20.256L25.4678 20.7549C24.9639 22.6481 23.5313 24.0805 21.6378 24.5842L21.1388 24.717H15.8844C11.0673 24.717 10.5967 24.7084 10.2291 24.614C8.27397 24.112 6.81226 22.6759 6.30103 20.7549L6.16823 20.256V15.0026V9.74915L6.30103 9.25023C6.83809 7.23209 8.4562 5.71946 10.4735 5.34967C10.8413 5.28229 11.8627 5.26932 16.0605 5.27882C21.1895 5.29045 21.1982 5.29062 21.6671 5.42228ZM10.5538 7.13841C9.91121 7.30676 9.45623 7.57307 8.95486 8.07428C8.44633 8.58272 8.18573 9.03305 8.01606 9.69609C7.90517 10.1296 7.90012 10.3617 7.90012 15.0026C7.90012 19.6434 7.90517 19.8755 8.01606 20.309C8.18573 20.9721 8.44633 21.4224 8.95486 21.9308C9.46339 22.4393 9.9138 22.6998 10.577 22.8695C11.0106 22.9803 11.2427 22.9854 15.8844 22.9854C20.5261 22.9854 20.7582 22.9803 21.1918 22.8695C21.855 22.6998 22.3054 22.4393 22.8139 21.9308C23.3224 21.4224 23.5831 20.9721 23.7527 20.309C23.8636 19.8755 23.8687 19.6434 23.8687 15.0026C23.8687 10.3617 23.8636 10.1296 23.7527 9.69609C23.5831 9.03305 23.3224 8.58272 22.8139 8.07428C22.3054 7.56585 21.855 7.30529 21.1918 7.13565C20.7576 7.02466 20.5318 7.01985 15.8603 7.02296C11.2515 7.02601 10.9586 7.03241 10.5538 7.13841ZM21.3458 9.19229C21.6062 9.32518 21.8139 9.66334 21.8139 9.95459C21.8139 10.4012 21.38 10.8351 20.9333 10.8351C20.642 10.8351 20.3037 10.6274 20.1708 10.367C19.9472 9.92865 20.078 9.46799 20.4984 9.21354C20.7795 9.04344 21.041 9.03686 21.3458 9.19229ZM16.7462 10.6924C17.6258 10.874 18.3617 11.2736 18.9913 11.9116C19.5675 12.4954 19.9382 13.1335 20.1529 13.9109C20.2885 14.402 20.2885 15.6032 20.1529 16.0943C19.6995 17.7358 18.392 18.9728 16.7527 19.3114C13.7059 19.9406 10.9486 17.1843 11.5741 14.1343C12.0605 11.7622 14.3971 10.2072 16.7462 10.6924ZM15.2656 12.4431C14.7792 12.5612 14.408 12.7738 14.0309 13.1501C12.9887 14.19 12.9887 15.8169 14.0309 16.8541C15.0783 17.8966 16.6993 17.8973 17.7363 16.8558C18.7789 15.8085 18.7796 14.191 17.7379 13.1494C17.0678 12.4794 16.1708 12.2232 15.2656 12.4431Z" fill="white"/>
</svg>
