<svg width="31" height="30" viewBox="0 0 31 30" fill="none" xmlns="http://www.w3.org/2000/svg">
<path fill-rule="evenodd" clip-rule="evenodd" d="M3.72348 0.0182669C2.74146 0.156845 1.7858 0.690027 1.12543 1.46773C0.814761 1.83357 0.449263 2.53239 0.308958 3.02895C0.206048 3.39327 0.201175 3.93244 0.201175 15.0027C0.201175 28.0437 0.160023 26.8636 0.647686 27.8024C1.05052 28.5779 1.62266 29.1499 2.39827 29.5527C3.33732 30.0403 2.15699 29.9991 15.2003 29.9991C28.2436 29.9991 27.0633 30.0403 28.0024 29.5527C28.778 29.1499 29.3501 28.5779 29.7529 27.8024C30.2406 26.8636 30.1995 28.0437 30.1995 15.0027C30.1995 1.96024 30.2407 3.142 29.7522 2.20153C29.2219 1.18054 28.3441 0.461705 27.2055 0.115935C26.8702 0.0141583 26.2997 0.00864098 15.3764 0.00118676C9.06417 -0.00309795 3.82034 0.00459105 3.72348 0.0182669ZM9.22579 5.73342C10.1785 6.05425 10.8003 6.78823 10.9757 7.79859C11.1904 9.03582 10.344 10.323 9.09458 10.6594C8.67325 10.7728 7.99456 10.7437 7.59396 10.595C6.01239 10.0083 5.38131 8.18122 6.27768 6.78459C6.48039 6.46869 6.90089 6.06822 7.18708 5.91837C7.79761 5.59872 8.60774 5.52523 9.22579 5.73342ZM21.3056 11.765C23.0571 12.2222 23.9712 13.36 24.4016 15.619C24.4744 16.0012 24.4958 16.8284 24.5167 20.0656L24.5425 24.0426L24.3668 24.2182L24.1912 24.3938H22.5146H20.8379L20.6461 24.2226L20.4544 24.0514L20.4229 20.4221C20.3883 16.4324 20.4006 16.5683 20.013 15.8969C19.675 15.3113 19.0664 15.0259 18.258 15.0737C17.9845 15.0899 17.7063 15.1475 17.537 15.2228C17.0042 15.4598 16.5724 16.0348 16.3302 16.8299C16.2477 17.1005 16.2295 17.6328 16.2015 20.5982L16.1689 24.0514L15.9772 24.2226L15.7855 24.3938H14.1675H12.5495L12.378 24.2222L12.2064 24.0507V18.1189V12.1872L12.3776 11.9955L12.5488 11.8038L14.1241 11.7878C15.6179 11.7727 15.7092 11.778 15.8916 11.8906C16.1442 12.0466 16.1983 12.209 16.1983 12.8107V13.3111L16.4339 13.0131C16.837 12.5031 17.5088 12.0446 18.164 11.8322C18.9412 11.5801 20.472 11.5474 21.3056 11.765ZM10.224 11.9957L10.4159 12.1875L10.4315 18.0119C10.443 22.303 10.4293 23.8792 10.3795 23.9996C10.3423 24.0895 10.2459 24.215 10.1652 24.2784C10.0275 24.3866 9.92044 24.3938 8.43544 24.3938H6.85246L6.65286 24.1942L6.45326 23.9947V18.1031C6.45326 12.7547 6.46207 12.1989 6.54884 12.075C6.74321 11.7976 6.89878 11.7751 8.52156 11.7899L10.0322 11.8038L10.224 11.9957Z" fill="white"/>
</svg>
