<svg width="31" height="30" viewBox="0 0 31 30" fill="none" xmlns="http://www.w3.org/2000/svg">
<path fill-rule="evenodd" clip-rule="evenodd" d="M14.4575 0.0348323C9.35946 0.526555 4.80598 3.61323 2.49853 8.14151C1.6825 9.74304 1.20033 11.2873 0.936499 13.1442C0.819554 13.9676 0.83652 16.0979 0.967438 17.016C1.19992 18.6464 1.68097 20.1913 2.41822 21.6754C3.88092 24.6199 6.21761 26.9545 9.17019 28.4216C13.9566 30.7999 19.6132 30.4729 24.0776 27.5598C25.8231 26.4208 27.4775 24.7322 28.6068 22.9367C29.036 22.2543 29.6841 20.9277 29.9785 20.129C30.2751 19.3241 30.6209 17.9273 30.7492 17.016C30.8792 16.0929 30.8967 13.9574 30.781 13.1442C30.4345 10.708 29.6613 8.634 28.3778 6.69702C27.8319 5.87326 27.2868 5.20866 26.5273 4.44104C24.1858 2.07453 21.2731 0.606808 17.9426 0.115143C17.2245 0.00913736 15.2062 -0.0373833 14.4575 0.0348323ZM14.2468 12.1525C15.4056 14.6884 16.3624 16.7409 16.373 16.7136C16.3835 16.6864 17.2165 14.6181 18.2241 12.1175L20.0561 7.57106L22.6539 7.55581L25.2517 7.5405V7.71203C25.2517 7.8564 25.1219 8.00629 24.4298 8.66051L23.6079 9.43746V14.9912V20.5449L24.4005 21.3235C25.0568 21.9683 25.193 22.1313 25.193 22.2722V22.4424H21.5238H17.8546V22.2766C17.8546 22.1408 18.0038 21.9644 18.6765 21.3047L19.4984 20.4986L19.495 16.1468L19.4916 11.7949L18.7449 13.6721C18.3342 14.7046 17.3913 17.087 16.6495 18.9664L15.3008 22.3833L15.0073 22.3831L14.7137 22.3827L12.2773 17.0748L9.84098 11.767L9.82419 15.4181C9.81497 17.4262 9.82249 19.1534 9.84087 19.2561C9.86388 19.3849 10.2109 19.8502 10.9566 20.7521C11.772 21.7382 12.0395 22.1009 12.0408 22.2224L12.0425 22.3838H9.25391H6.46529V22.2383C6.46529 22.1363 6.77374 21.7209 7.49978 20.8451C8.06878 20.1587 8.57072 19.5123 8.61522 19.4084C8.68162 19.2536 8.69618 18.429 8.69618 14.8218C8.69618 12.396 8.67276 10.363 8.64399 10.2881C8.61528 10.2134 8.16617 9.63897 7.64596 9.01162C6.91998 8.13606 6.70012 7.83265 6.70012 7.70634V7.54173H9.41999H12.1399L14.2468 12.1525Z" fill="white"/>
</svg>
