<svg width="51" height="48" viewBox="0 0 51 48" fill="none" xmlns="http://www.w3.org/2000/svg">
<path fill-rule="evenodd" clip-rule="evenodd" d="M19.9391 1.0622C18.1487 1.46589 16.6806 2.62036 16.1559 4.03754L15.9674 4.54655H15.1956C13.7368 4.54655 12.6986 4.99269 12.0888 5.88163L11.7684 6.34873L7.54954 6.37749C3.52369 6.40488 3.30848 6.41495 2.84462 6.59729C2.13404 6.87652 1.61656 7.30262 1.27895 7.88656L0.980957 8.40202V26.8629V45.3238L1.20589 45.7366C1.53464 46.3402 2.03631 46.7797 2.72382 47.0665L3.3307 47.3196H22.0752C39.9459 47.3196 40.8596 47.3118 41.6742 47.1515C46.7601 46.1509 50.2822 42.2422 50.0243 37.885C49.7845 33.833 46.5908 30.5065 41.9696 29.4957L41.5175 29.3968L41.489 18.8994C41.4607 8.44284 41.4597 8.40038 41.2356 7.98916C40.9069 7.38562 40.4052 6.9461 39.7177 6.65935L39.1108 6.40625L34.892 6.37749L30.6731 6.34873L30.3527 5.88163C29.7429 4.99269 28.7047 4.54655 27.2457 4.54655H26.4739L26.2528 3.99073C25.3762 1.78558 22.5484 0.473996 19.9391 1.0622ZM22.6559 3.04292C23.6182 3.44289 24.25 4.21462 24.381 5.15063C24.5333 6.23697 24.7565 6.36089 26.5611 6.36089C28.4071 6.36089 28.6972 6.53397 28.6972 7.63519V8.17522H21.2208H13.7443V7.63519C13.7443 6.53552 14.0356 6.36089 15.8701 6.36089C16.6365 6.36089 17.2646 6.31734 17.4321 6.25248C17.763 6.12448 18.0166 5.74773 18.0166 5.38396C18.0166 4.96067 18.3123 4.23984 18.6468 3.84758C19.5445 2.79508 21.2403 2.45471 22.6559 3.04292ZM20.6985 4.67319C19.7726 5.10908 20.16 6.36089 21.2208 6.36089C21.7619 6.36089 22.2888 5.91773 22.2888 5.46252C22.2888 4.78141 21.4026 4.34162 20.6985 4.67319ZM11.6082 8.71526C11.6082 9.01227 11.6656 9.36235 11.7358 9.49316C12.0108 10.0059 11.6994 9.98956 21.2208 9.98956C30.7421 9.98956 30.4307 10.0059 30.7057 9.49316C30.7759 9.36235 30.8333 9.01227 30.8333 8.71526V8.17522H34.6837C38.8602 8.17522 38.9916 8.18947 39.2502 8.67163C39.3467 8.85152 39.3778 11.3847 39.3778 19.0655V29.2215H38.9646C38.3565 29.2215 36.7836 29.4701 36.0298 29.6853C34.3853 30.1547 32.9619 30.9258 31.6703 32.047L30.7449 32.8502H21.6088C14.753 32.8502 12.4028 32.8773 12.1926 32.9586C11.4613 33.2417 11.4309 34.1572 12.1411 34.5135C12.4153 34.651 13.2079 34.6646 21.0083 34.6646C29.1252 34.6646 29.5704 34.6729 29.4963 34.8233C29.1201 35.5872 28.6972 37.238 28.6972 37.9422V38.2932H20.5849C14.5229 38.2932 12.4019 38.3206 12.1926 38.4016C11.8865 38.5201 11.6082 38.9005 11.6082 39.2004C11.6082 39.5003 11.8865 39.8807 12.1926 39.9992C12.402 40.0802 14.546 40.1076 20.6877 40.1076H28.9026L29.0195 40.4931C29.5495 42.2405 30.6715 43.8323 32.1985 45.0028L32.9131 45.5506H18.4103C2.645 45.5506 3.472 45.5775 3.19131 45.0542C2.99394 44.6863 3.01498 8.94178 3.21278 8.63879C3.50468 8.19128 3.5975 8.18185 7.73646 8.1784L11.6082 8.17522V8.71526ZM7.88171 16.6478C6.95581 17.0837 7.34319 18.3355 8.404 18.3355C8.94518 18.3355 9.47206 17.8924 9.47206 17.4371C9.47206 16.756 8.58589 16.3162 7.88171 16.6478ZM12.154 16.6478C11.4381 16.9847 11.4616 17.9443 12.1926 18.2271C12.4039 18.3089 15.1481 18.3355 23.3672 18.3355C32.5875 18.3355 34.307 18.3156 34.5561 18.2062C35.2668 17.894 35.2668 16.9627 34.5561 16.6505C34.1333 16.4648 12.5482 16.4622 12.154 16.6478ZM7.88171 22.0908C6.95581 22.5267 7.34319 23.7785 8.404 23.7785C8.94518 23.7785 9.47206 23.3354 9.47206 22.8802C9.47206 22.1991 8.58589 21.7593 7.88171 22.0908ZM12.154 22.0908C11.4381 22.4278 11.4616 23.3873 12.1926 23.6701C12.4039 23.7519 15.1481 23.7785 23.3672 23.7785C32.5875 23.7785 34.307 23.7587 34.5561 23.6493C35.2668 23.337 35.2668 22.4057 34.5561 22.0935C34.1333 21.9078 12.5482 21.9052 12.154 22.0908ZM7.88171 27.5338C6.95581 27.9697 7.34319 29.2215 8.404 29.2215C8.94518 29.2215 9.47206 28.7784 9.47206 28.3232C9.47206 27.6421 8.58589 27.2023 7.88171 27.5338ZM12.154 27.5338C11.4381 27.8708 11.4616 28.8303 12.1926 29.1131C12.4039 29.195 15.1481 29.2215 23.3672 29.2215C32.5875 29.2215 34.307 29.2017 34.5561 29.0923C35.2668 28.78 35.2668 27.8487 34.5561 27.5365C34.1333 27.3508 12.5482 27.3482 12.154 27.5338ZM41.1697 31.212C44.2835 31.7577 46.8546 33.8592 47.6689 36.5243C47.927 37.3692 47.9375 39.2005 47.6884 39.9715C47.0641 41.9045 45.8588 43.3427 43.9926 44.3812C42.5557 45.1808 41.2341 45.5014 39.3778 45.5007C37.8144 45.5001 36.984 45.3472 35.6847 44.8212C31.0672 42.9518 29.4242 37.9958 32.2172 34.3619C34.1686 31.8229 37.6557 30.596 41.1697 31.212ZM7.88171 32.9769C6.95581 33.4128 7.34319 34.6646 8.404 34.6646C8.94518 34.6646 9.47206 34.2214 9.47206 33.7662C9.47206 33.0851 8.58589 32.6453 7.88171 32.9769ZM42.1014 35.676C41.9839 35.7303 41.0844 36.4517 40.1026 37.2792L38.3173 38.7837L37.5307 38.1358C37.098 37.7795 36.6157 37.4606 36.4588 37.4272C35.6501 37.2548 34.9539 37.8503 35.1548 38.5427C35.2513 38.875 37.6248 40.891 38.016 40.9729C38.6105 41.0974 38.8626 40.9401 41.1215 39.0351C43.3122 37.1876 43.6501 36.8472 43.6501 36.4877C43.6501 35.8298 42.7684 35.3677 42.1014 35.676ZM7.88171 38.4199C6.95581 38.8558 7.34319 40.1076 8.404 40.1076C8.94518 40.1076 9.47206 39.6644 9.47206 39.2092C9.47206 38.5281 8.58589 38.0883 7.88171 38.4199Z" fill="#028C32"/>
</svg>
