<svg width="20" height="27" viewBox="0 0 20 27" fill="none" xmlns="http://www.w3.org/2000/svg">
<path fill-rule="evenodd" clip-rule="evenodd" d="M9.26085 0.0118144C6.70707 0.255996 4.65443 1.15479 2.94222 2.77859C-0.0748526 5.63986 -0.853519 9.94131 0.987735 13.5754C1.37264 14.335 9.32226 26.5309 9.59772 26.7844C9.94516 27.104 10.4911 27.0634 10.7949 26.6952C11.0203 26.4219 18.6722 14.2851 18.9511 13.7585C19.4088 12.894 19.7084 12.0306 19.9031 11.0148C20.0202 10.4038 20.0344 8.77351 19.9281 8.13738C19.5772 6.03589 18.6236 4.23998 17.0826 2.77859C15.5493 1.32448 13.6064 0.394268 11.4636 0.0883157C11.0204 0.0250662 9.62811 -0.0232949 9.26085 0.0118144ZM11.1797 1.64553C12.9154 1.87514 14.6592 2.70346 15.9075 3.89121C17.0815 5.00837 17.8443 6.35789 18.2032 7.95259C18.3843 8.75768 18.385 10.2204 18.2044 11.0148C18.0378 11.7481 17.7962 12.4078 17.4699 13.021C17.3231 13.2969 15.6134 16.0368 13.6706 19.1097L10.1382 24.697L6.46039 19.076C4.43759 15.9845 2.67105 13.2446 2.53482 12.9873C1.98847 11.9555 1.72949 10.9892 1.68061 9.80045C1.53064 6.15167 3.98132 2.91543 7.67546 1.88391C8.78398 1.57436 10.0107 1.49095 11.1797 1.64553ZM9.10687 4.81202C7.22236 5.15092 5.67237 6.51955 5.16143 8.29576C4.98835 8.89758 4.98745 10.0639 5.15959 10.6716C5.5347 11.9954 6.51601 13.1328 7.80028 13.7323C8.59152 14.1017 9.04925 14.1985 10.0124 14.2002C10.9728 14.2018 11.4223 14.1069 12.2237 13.7327C13.5125 13.1311 14.4889 11.9996 14.8652 10.6716C15.0374 10.0639 15.0365 8.89758 14.8634 8.29576C14.3896 6.64864 12.9785 5.31237 11.265 4.88815C10.6756 4.74223 9.68857 4.70743 9.10687 4.81202ZM10.6916 6.37426C11.224 6.47958 11.8508 6.79694 12.2713 7.17417C12.6992 7.55805 12.9616 7.93364 13.1749 8.46777C13.2973 8.77431 13.3176 8.91168 13.3209 9.45728C13.325 10.1308 13.267 10.3801 12.9765 10.9356C12.5718 11.7094 11.6884 12.3685 10.7854 12.5704C8.70977 13.0344 6.67734 11.5167 6.673 9.49946C6.67188 8.98285 6.75572 8.64042 7.0112 8.11858C7.41269 7.29845 8.30877 6.60804 9.25412 6.39052C9.61759 6.30684 10.3112 6.29902 10.6916 6.37426Z" fill="#0D913B"/>
</svg>
