<svg width="23" height="22" viewBox="0 0 23 22" fill="none" xmlns="http://www.w3.org/2000/svg">
<path fill-rule="evenodd" clip-rule="evenodd" d="M12.4505 0.0752279C12.0086 0.287112 11.9691 0.884808 12.3801 1.14179C12.4433 1.18133 12.7534 1.26847 13.0692 1.33544C14.0353 1.54032 14.5122 1.69103 15.3776 2.06515C16.6172 2.60103 17.7134 3.34592 18.7367 4.34778C20.2138 5.79396 21.1825 7.53254 21.6342 9.54834C21.7562 10.0925 21.7863 10.1601 21.9628 10.2854C22.2449 10.4857 22.596 10.4667 22.8249 10.2387C23.0309 10.0335 23.0448 9.89968 22.9205 9.31733C22.0171 5.08428 18.6615 1.58477 14.3184 0.346048C13.8237 0.204964 12.8702 -0.000128901 12.7094 6.07885e-08C12.6532 6.07885e-08 12.5367 0.0338741 12.4505 0.0752279ZM3.7499 1.37155C3.17277 1.54776 2.69344 1.9309 1.34255 3.29579C0.374875 4.27358 0.1096 4.76613 0.0196883 5.7523C-0.108107 7.15412 0.387128 8.92894 1.47922 10.9832C1.94135 11.8525 2.14833 12.1895 2.73339 13.0251C4.94159 16.179 7.83588 18.6938 11.2559 20.4301C13.1941 21.4141 14.8317 21.9194 16.3236 21.9938C17.3783 22.0464 18.3151 21.7649 19.0188 21.184C19.1013 21.1158 19.6189 20.6195 20.1689 20.0809C21.0796 19.1893 21.186 19.0694 21.3593 18.7394C21.6997 18.0913 21.7006 17.5134 21.3624 16.8509C21.1805 16.4947 21.134 16.4457 19.5042 14.8894C17.9223 13.3789 17.8144 13.285 17.4922 13.1387C16.8025 12.8254 16.0933 12.8557 15.4241 13.2272C15.3118 13.2895 14.8007 13.7359 14.2884 14.2192L13.3568 15.098L12.9081 14.8712C10.928 13.8706 8.32476 11.3695 7.35727 9.53807L7.18425 9.21063L8.05021 8.37741C8.97338 7.48912 9.19528 7.2214 9.34433 6.8162C9.54551 6.26931 9.50497 5.7431 9.21902 5.19007C9.07154 4.90485 8.91915 4.74636 7.38668 3.28436C5.64241 1.62023 5.50196 1.50817 4.97177 1.35793C4.64911 1.26649 4.0731 1.2729 3.7499 1.37155ZM4.75956 2.62231C5.04168 2.74882 7.95232 5.53986 8.07683 5.8032C8.31094 6.29841 8.21246 6.46172 6.97514 7.63016C6.42437 8.15031 5.93845 8.64225 5.89539 8.72342C5.7689 8.96169 5.8226 9.39724 6.03044 9.81925C6.60959 10.9951 7.5479 12.1805 8.97784 13.5428C10.1513 14.6608 11.358 15.5266 12.5781 16.1261C13.0884 16.3769 13.1576 16.3994 13.4115 16.3974C13.5891 16.396 13.7449 16.3669 13.846 16.3163C13.9328 16.2728 14.4598 15.8072 15.0172 15.2816C15.5747 14.7559 16.0999 14.2922 16.1844 14.2511C16.4096 14.1416 16.8038 14.1771 17.031 14.3274C17.3497 14.5381 20.0886 17.2024 20.197 17.407C20.3291 17.6564 20.3288 17.9377 20.1964 18.1863C20.0991 18.3689 18.6477 19.8214 18.1482 20.2361C17.4262 20.8355 16.4116 20.9078 14.747 20.4787C13.531 20.1652 11.6539 19.2968 10.1072 18.3323C6.81762 16.2809 3.80909 12.9571 2.28802 9.6936C1.31012 7.59551 1.06903 5.9868 1.58265 4.98644C1.67522 4.80615 1.95027 4.51182 2.74114 3.74664C3.39746 3.11168 3.85269 2.70597 3.98098 2.6417C4.23306 2.51545 4.50617 2.50865 4.75956 2.62231ZM12.2352 4.08349C11.9272 4.26271 11.8183 4.65032 11.9972 4.93039C12.1237 5.1283 12.2339 5.18165 12.7784 5.30846C14.0277 5.5994 15.0297 6.14585 15.8833 7.00182C16.6867 7.80748 17.2326 8.7762 17.4728 9.82251C17.5658 10.2279 17.6313 10.3639 17.7912 10.4839C18.1561 10.7578 18.7416 10.5559 18.8259 10.1272C18.8899 9.80119 18.5515 8.68056 18.1637 7.93447C17.1587 6.00116 15.3364 4.60888 13.1478 4.10215C12.6014 3.97564 12.4267 3.97207 12.2352 4.08349Z" fill="#028C32"/>
</svg>
