<svg width="185" height="66" viewBox="0 0 185 66" fill="none" xmlns="http://www.w3.org/2000/svg">
<path d="M3.79686 61.3389C5.16701 61.3389 6.6024 61.2927 7.97255 61.2465C8.55975 61.2465 9.08171 61.2003 9.66892 61.2003C12.1482 61.1079 14.6275 61.0155 17.1069 60.9232C20.1081 60.8308 23.0442 60.6922 26.0454 60.5999C30.2864 60.4151 34.5273 60.2766 38.7682 60.0918C39.7469 60.0456 40.7256 60.0456 41.7043 59.9994C44.1836 59.9071 46.6629 59.8147 49.1422 59.7685C51.6215 59.6761 54.1008 59.5837 56.5801 59.5376C57.5588 59.4914 58.5375 59.4452 59.5162 59.4452C63.4309 59.3528 67.4108 59.2604 71.3255 59.1681C73.7396 59.1219 76.1537 59.0757 78.633 58.9833C79.6117 58.9833 80.5251 58.9371 81.5038 58.9371C85.288 58.8909 89.1374 58.8448 92.9217 58.7986C96.7059 58.7524 100.425 58.7062 104.209 58.66C105.188 58.66 106.166 58.66 107.21 58.66C109.69 58.66 112.104 58.66 114.583 58.66C118.433 58.66 122.217 58.66 126.066 58.6138C127.306 58.6138 128.545 58.6138 129.785 58.6138C132.395 58.6138 135.005 58.6138 137.615 58.6138C137.81 58.6138 138.071 58.6138 138.267 58.6138C132.395 58.66 126.458 58.7062 120.586 58.7986C118.106 58.8448 115.692 58.8448 113.213 58.8909C112.169 58.8909 111.06 58.8909 110.016 58.9371C106.427 58.9833 102.904 59.0757 99.3157 59.1219C95.2052 59.2143 91.0948 59.2604 86.9844 59.3528C86.2667 59.3528 85.6142 59.399 84.8965 59.399C82.6782 59.4914 80.5251 59.5376 78.3068 59.6299C73.8701 59.7685 69.4334 59.9071 64.9968 60.0456C64.3443 60.0456 63.6919 60.0918 63.0394 60.138C60.8863 60.2304 58.668 60.3689 56.5149 60.4613C52.6002 60.646 48.7507 60.8308 44.836 61.0155C43.7921 61.0617 42.6829 61.1541 41.639 61.2003C39.1597 61.3389 36.6804 61.4774 34.2011 61.6622C31.0693 61.8469 27.8723 62.0317 24.7405 62.2164C20.3691 62.4935 15.9324 62.7706 11.561 63.0478C10.5171 63.094 9.47318 63.1863 8.36402 63.2325C6.47191 63.3711 4.5798 63.5096 2.68769 63.6482C2.49196 63.6482 2.29622 63.7406 2.29622 63.9253C2.29622 64.0639 2.49196 64.2024 2.68769 64.2024C3.40539 64.2024 4.05784 64.2486 4.77554 64.2486C4.64505 64.4796 4.5798 64.6181 4.5798 64.7567C4.5798 65.2647 5.16701 65.7266 5.94995 65.7266C11.3653 65.4957 16.7154 65.2186 22.1307 65.0338C26.8284 64.8952 31.526 64.7105 36.2237 64.5719C41.378 64.3872 46.5976 64.2024 51.752 64.0639C53.3831 64.0177 55.0143 63.9715 56.6454 63.8791C57.1021 63.8791 57.5588 63.8329 58.0808 63.8329C66.4322 63.6944 74.7835 63.5096 83.1349 63.3711C87.5716 63.2787 92.0735 63.1863 96.5101 63.1401C98.1413 63.094 99.7072 63.094 101.338 63.0478C109.885 62.9554 118.433 62.863 126.98 62.7706C130.633 62.7245 134.287 62.6783 137.941 62.6321C141.073 62.5859 144.204 62.5859 147.336 62.4935C149.946 62.4473 152.49 62.355 155.1 62.3088C156.405 62.2626 157.71 62.2626 158.95 62.2164C161.886 62.0778 164.822 61.9393 167.758 61.8007C167.562 61.9855 167.562 62.2626 167.627 62.4473C167.693 62.6783 167.888 62.863 168.214 62.9554C168.475 63.0478 168.867 63.1401 169.128 63.0478C169.78 62.863 170.433 62.6783 171.02 62.4935C171.02 62.4935 171.02 62.4935 170.955 62.4935C171.02 62.4935 171.02 62.4473 171.085 62.4473C171.151 62.4473 171.216 62.4011 171.216 62.4011H171.151C171.477 62.3088 171.803 62.2164 172.194 62.0778C172.521 61.9855 172.912 61.8469 173.238 61.7545C173.63 61.616 173.956 61.4774 174.348 61.3389C174.739 61.2003 175 60.8308 175 60.5075C175 60.3227 174.935 60.1842 174.804 59.9994C174.674 59.8147 174.348 59.5837 174.021 59.5376C173.695 59.4914 173.369 59.4452 173.043 59.4452C172.977 59.4452 172.912 59.4452 172.847 59.4452C172.651 59.4452 172.39 59.4452 172.194 59.4914C171.672 59.5376 171.216 59.5837 170.694 59.5837C170.302 59.5837 169.911 59.6299 169.454 59.6299C168.345 59.6761 167.301 59.7223 166.192 59.8147C165.931 59.8147 165.605 59.8609 165.344 59.8609C165.474 59.7685 165.539 59.6761 165.539 59.5837C165.605 59.4914 165.605 59.399 165.605 59.3066C165.605 59.2604 165.605 59.1681 165.67 59.1219C165.67 59.0295 165.67 58.9371 165.605 58.8909C165.605 58.8909 165.67 58.8909 165.67 58.8448C165.866 58.7524 166.061 58.66 166.192 58.4753C166.322 58.3367 166.388 58.152 166.388 57.9672C166.388 57.7825 166.322 57.6439 166.192 57.4592C166.127 57.413 166.061 57.3206 165.996 57.2744C165.8 57.1358 165.605 57.0897 165.409 57.0435C165.017 56.9511 164.561 56.9049 164.104 56.9049C163.713 56.9049 163.386 56.9049 162.995 56.9049C162.473 56.9049 161.951 56.9049 161.429 56.9049C160.711 56.9049 159.928 56.9049 159.211 56.9049C157.253 56.9049 155.296 56.9049 153.339 56.9049C151.512 56.9049 149.62 56.9049 147.793 56.9049C146.096 56.9049 144.465 56.9049 142.769 56.9049C136.049 56.9049 129.394 56.9511 122.673 56.9973C117.65 57.0435 112.626 57.0897 107.602 57.0897C105.383 57.0897 103.1 57.1358 100.882 57.182C95.8577 57.2744 90.8338 57.3206 85.8099 57.413C84.3746 57.413 82.9392 57.4592 81.5038 57.4592C80.6556 57.4592 79.8726 57.5053 79.0245 57.5053C74.0658 57.6439 69.1072 57.7825 64.1486 57.921C62.6479 57.9672 61.1473 58.0134 59.5814 58.0596C58.7332 58.0596 57.885 58.1058 57.0369 58.152C52.0782 58.3367 47.1848 58.5214 42.2262 58.7062C39.6817 58.7986 37.1371 58.8909 34.5925 59.0295C30.2211 59.2143 25.8497 59.399 21.5435 59.6299C17.7593 59.8147 13.9751 59.9532 10.1909 60.0918C9.60368 60.138 9.01647 60.138 8.36402 60.1842C7.38534 60.2304 6.40667 60.2304 5.42799 60.2766C4.5798 60.4613 3.66637 60.4613 2.81818 60.4613C2.75294 60.2766 2.49196 60.138 2.29622 60.1842C1.70902 60.1842 1.18706 60.2304 0.599851 60.2766C0.338871 60.3227 0.0778906 60.4151 0.0126455 60.5999C-0.0525996 60.8308 0.143136 61.0617 0.404116 61.1079C0.665096 61.1541 0.926077 61.2003 1.18706 61.2465C1.44804 61.2927 1.64377 61.2927 1.90475 61.2927C2.5572 61.3389 3.14441 61.3389 3.79686 61.3389ZM156.47 59.8609C157.253 59.8609 158.102 59.8609 158.884 59.8609C158.95 59.9994 159.08 60.0918 159.211 60.1842C158.884 60.1842 158.558 60.2304 158.297 60.2304C157.71 60.2304 157.123 60.2766 156.536 60.2766C153.926 60.3227 151.381 60.4151 148.771 60.4613C147.597 60.5075 146.423 60.5537 145.248 60.5537C143.421 60.5537 141.529 60.5999 139.702 60.5999C135.461 60.646 131.286 60.6922 127.045 60.7384C118.824 60.8308 110.668 60.9232 102.447 61.0155C96.5754 61.0617 90.7033 61.2003 84.8313 61.3389C76.0232 61.5236 67.1499 61.6622 58.3418 61.8469C56.5801 61.8931 54.8185 61.9393 53.0569 62.0317C48.033 62.2164 43.0092 62.355 37.9853 62.5397C33.0919 62.7245 28.1333 62.863 23.2399 63.0478C22.7832 63.0478 22.3265 63.094 21.8698 63.094C23.1747 63.0016 24.5448 62.9554 25.8497 62.863C30.4821 62.6321 35.1145 62.355 39.7469 62.124C41.378 62.0317 43.0092 61.9393 44.575 61.8469C45.4232 61.8007 46.2714 61.7545 47.0544 61.7545C51.9477 61.5698 56.7759 61.3389 61.604 61.1541C62.5174 61.1079 63.4961 61.0617 64.4096 61.0155C65.7797 60.9694 67.1499 60.9232 68.4548 60.9232C73.4134 60.7846 78.372 60.646 83.3306 60.5075C84.4398 60.4613 85.549 60.4613 86.5929 60.4151C86.8539 60.4151 87.1801 60.4151 87.4411 60.4151C88.224 60.4151 89.007 60.4151 89.7247 60.3689C94.6833 60.2766 99.7071 60.2304 104.666 60.138C106.949 60.0918 109.233 60.0456 111.517 60.0456C118.889 59.9994 126.327 59.9532 133.7 59.9071C141.399 59.9071 148.967 59.8609 156.47 59.8609Z" fill="#5ED186" fill-opacity="0.7"/>
<path d="M3.03409 51V16.0909H16.8068C19.4545 16.0909 21.7102 16.5966 23.5739 17.608C25.4375 18.608 26.858 20 27.8352 21.7841C28.8239 23.5568 29.3182 25.6023 29.3182 27.9205C29.3182 30.2386 28.8182 32.2841 27.8182 34.0568C26.8182 35.8295 25.3693 37.2102 23.4716 38.1989C21.5852 39.1875 19.3011 39.6818 16.6193 39.6818H7.84091V33.767H15.4261C16.8466 33.767 18.017 33.5227 18.9375 33.0341C19.8693 32.5341 20.5625 31.8466 21.017 30.9716C21.483 30.0852 21.7159 29.0682 21.7159 27.9205C21.7159 26.7614 21.483 25.75 21.017 24.8864C20.5625 24.0114 19.8693 23.3352 18.9375 22.858C18.0057 22.3693 16.8239 22.125 15.392 22.125H10.4148V51H3.03409ZM33.9759 51V24.8182H41.2372V51H33.9759ZM37.6236 21.4432C36.544 21.4432 35.6179 21.0852 34.8452 20.3693C34.0838 19.642 33.7031 18.7727 33.7031 17.7614C33.7031 16.7614 34.0838 15.9034 34.8452 15.1875C35.6179 14.4602 36.544 14.0966 37.6236 14.0966C38.7031 14.0966 39.6236 14.4602 40.3849 15.1875C41.1577 15.9034 41.544 16.7614 41.544 17.7614C41.544 18.7727 41.1577 19.642 40.3849 20.3693C39.6236 21.0852 38.7031 21.4432 37.6236 21.4432ZM58.8835 51.5114C56.2017 51.5114 53.8949 50.9432 51.9631 49.8068C50.0426 48.6591 48.5653 47.0682 47.5312 45.0341C46.5085 43 45.9972 40.6591 45.9972 38.0114C45.9972 35.3295 46.5142 32.9773 47.5483 30.9545C48.5938 28.9205 50.0767 27.3352 51.9972 26.1989C53.9176 25.0511 56.2017 24.4773 58.8494 24.4773C61.1335 24.4773 63.1335 24.892 64.8494 25.7216C66.5653 26.5511 67.9233 27.7159 68.9233 29.2159C69.9233 30.7159 70.4744 32.4773 70.5767 34.5H63.7244C63.5313 33.1932 63.0199 32.142 62.1903 31.3466C61.3722 30.5398 60.2983 30.1364 58.9688 30.1364C57.8438 30.1364 56.8608 30.4432 56.0199 31.0568C55.1903 31.6591 54.5426 32.5398 54.0767 33.6989C53.6108 34.858 53.3778 36.2614 53.3778 37.9091C53.3778 39.5795 53.6051 41 54.0597 42.1705C54.5256 43.3409 55.179 44.233 56.0199 44.8466C56.8608 45.4602 57.8438 45.767 58.9688 45.767C59.7983 45.767 60.5426 45.5966 61.2017 45.2557C61.8722 44.9148 62.4233 44.4205 62.8551 43.7727C63.2983 43.1136 63.5881 42.3239 63.7244 41.4034H70.5767C70.4631 43.4034 69.9176 45.1648 68.9403 46.6875C67.9744 48.1989 66.6392 49.3807 64.9347 50.233C63.2301 51.0852 61.2131 51.5114 58.8835 51.5114ZM81.8054 43.4659L81.8224 34.7557H82.8793L91.2656 24.8182H99.6009L88.3338 37.9773H86.6122L81.8054 43.4659ZM75.2259 51V16.0909H82.4872V51H75.2259ZM91.5895 51L83.8849 39.5966L88.7259 34.4659L100.095 51H91.5895ZM131.062 39.8523V24.8182H138.324V51H131.352V46.2443H131.08C130.489 47.7784 129.506 49.0114 128.131 49.9432C126.767 50.875 125.102 51.3409 123.136 51.3409C121.386 51.3409 119.847 50.9432 118.517 50.1477C117.188 49.3523 116.148 48.2216 115.398 46.7557C114.659 45.2898 114.284 43.5341 114.273 41.4886V24.8182H121.534V40.1932C121.545 41.7386 121.96 42.9602 122.778 43.858C123.597 44.7557 124.693 45.2045 126.068 45.2045C126.943 45.2045 127.761 45.0057 128.523 44.608C129.284 44.1989 129.898 43.5966 130.364 42.8011C130.841 42.0057 131.074 41.0227 131.062 39.8523ZM144.132 60.8182V24.8182H151.291V29.2159H151.615C151.933 28.5114 152.393 27.7955 152.996 27.0682C153.609 26.3295 154.405 25.7159 155.382 25.2273C156.371 24.7273 157.598 24.4773 159.064 24.4773C160.973 24.4773 162.734 24.9773 164.348 25.9773C165.962 26.9659 167.251 28.4602 168.217 30.4602C169.183 32.4489 169.666 34.9432 169.666 37.9432C169.666 40.8636 169.195 43.3295 168.251 45.3409C167.32 47.3409 166.047 48.858 164.433 49.892C162.831 50.9148 161.036 51.4261 159.047 51.4261C157.638 51.4261 156.439 51.1932 155.45 50.7273C154.473 50.2614 153.672 49.6761 153.047 48.9716C152.422 48.2557 151.945 47.5341 151.615 46.8068H151.393V60.8182H144.132ZM151.24 37.9091C151.24 39.4659 151.456 40.8239 151.888 41.983C152.32 43.142 152.945 44.0455 153.763 44.6932C154.581 45.3295 155.575 45.6477 156.746 45.6477C157.928 45.6477 158.928 45.3239 159.746 44.6761C160.564 44.017 161.183 43.108 161.604 41.9489C162.036 40.7784 162.251 39.4318 162.251 37.9091C162.251 36.3977 162.041 35.0682 161.621 33.9205C161.2 32.7727 160.581 31.875 159.763 31.2273C158.945 30.5795 157.939 30.2557 156.746 30.2557C155.564 30.2557 154.564 30.5682 153.746 31.1932C152.939 31.8182 152.32 32.7045 151.888 33.8523C151.456 35 151.24 36.3523 151.24 37.9091Z" fill="#028C32"/>
</svg>
