<svg width="32" height="31" viewBox="0 0 32 31" fill="none" xmlns="http://www.w3.org/2000/svg">
<path fill-rule="evenodd" clip-rule="evenodd" d="M14.7977 0.0179863C14.6772 0.0315262 14.3111 0.0720857 13.9841 0.108172C9.03169 0.654365 4.45601 3.65238 1.94502 7.99635C1.02799 9.5827 0.36313 11.5538 0.0809251 13.5226C-0.026975 14.2754 -0.026975 16.6384 0.0809251 17.3912C0.741094 21.9967 3.28407 25.9083 7.25597 28.4279C12.1145 31.5098 18.4805 31.7542 23.6225 29.056C24.4077 28.6441 24.5856 28.5071 24.7427 28.1936C25.0129 27.6545 24.8371 27.0239 24.318 26.6708C24.0938 26.5182 23.9936 26.4904 23.6657 26.4895C23.4255 26.4888 23.2069 26.5256 23.0905 26.5864C22.0402 27.1342 21.615 27.3356 21.0251 27.5643C19.0028 28.3485 16.8316 28.6517 14.6991 28.448C9.35277 27.9372 4.82421 24.4361 3.16234 19.5288C2.23724 16.797 2.23718 14.1142 3.16215 11.3851C4.50126 7.43365 7.68739 4.36069 11.7879 3.06563C14.5984 2.17797 17.3839 2.17973 20.2029 3.07089C23.2621 4.0379 25.7918 5.9769 27.5333 8.68937C28.5487 10.271 29.2406 12.2834 29.4414 14.2393C29.7274 17.0248 29.0044 19.924 27.4041 22.4083C27.0518 22.9552 27.0342 23.0012 27.0339 23.3754C27.0334 23.8468 27.1933 24.1421 27.5843 24.3919C27.9324 24.6144 28.5447 24.6237 28.8974 24.412C29.2729 24.1865 30.0387 22.9856 30.6282 21.6978C33.5616 15.289 31.6813 7.80758 26.0321 3.41023C23.7563 1.63873 21.2248 0.574334 18.24 0.134043C17.6161 0.0419834 15.2846 -0.0365967 14.7977 0.0179863ZM12.6087 9.5092C11.7089 9.7427 10.9982 10.4378 10.7635 11.3139C10.62 11.8497 10.6194 19.0609 10.7629 19.5999C10.9626 20.3505 11.6135 21.0566 12.3542 21.3264C12.8676 21.5135 13.5478 21.5406 14.0282 21.3933C14.2691 21.3194 15.6824 20.5667 17.7521 19.4099C20.3991 17.9305 21.1561 17.4801 21.4192 17.2278C22.4205 16.2676 22.4205 14.6463 21.4192 13.6861C21.1561 13.4338 20.3991 12.9833 17.7521 11.5039C15.6811 10.3465 14.2731 9.5966 14.0382 9.526C13.592 9.39187 13.0838 9.38589 12.6087 9.5092ZM16.4315 13.5589C18.1319 14.5097 19.5643 15.3257 19.6147 15.3722C19.6952 15.4466 19.6952 15.4672 19.6147 15.5413C19.4215 15.7193 13.3289 19.0858 13.2518 19.0572C13.1864 19.0329 13.1705 18.3308 13.1705 15.4689C13.1705 13.5119 13.1892 11.8926 13.2122 11.8705C13.2351 11.8483 13.2733 11.8302 13.2969 11.8302C13.3206 11.8302 14.7312 12.6081 16.4315 13.5589Z" fill="white"/>
</svg>
