<svg width="51" height="49" viewBox="0 0 51 49" fill="none" xmlns="http://www.w3.org/2000/svg">
<path fill-rule="evenodd" clip-rule="evenodd" d="M24.828 0.0610299C23.7658 0.329389 22.7935 1.07033 22.2878 1.99663C21.9994 2.52471 21.9793 2.62575 21.9785 3.54744C21.9778 4.42294 22.0074 4.59384 22.2427 5.07356C22.3884 5.37065 22.7312 5.83948 23.0044 6.11545L23.5012 6.61723V7.71152V8.8057L20.6263 8.80627C18.8427 8.80655 17.6038 8.84589 17.3628 8.90984C17.1492 8.96646 16.824 9.15641 16.6404 9.33181L16.3066 9.65078H12.6048H8.903L8.80599 9.43989C8.75262 9.32392 8.5874 9.17378 8.43869 9.10617C8.10609 8.95491 7.68228 9.11078 7.53082 9.43989C7.44128 9.63444 7.36884 9.65097 6.59709 9.65303C5.56086 9.65594 4.97516 9.7797 4.55745 10.0841C3.49261 10.86 3.65763 12.5616 4.85123 13.1136C5.21135 13.2802 5.46178 13.3128 6.38116 13.3128H7.4804V14.9887V16.6645L7.0789 16.8375C6.18606 17.2222 5.59683 18.3291 5.77768 19.2821L5.86967 19.7672L5.52017 19.8827C4.38397 20.2585 2.87537 21.4273 2.13969 22.5019C1.26916 23.7733 0.954742 24.7947 0.950319 26.3645C0.947665 27.335 0.986685 27.6602 1.17589 28.2425C2.12327 31.1588 4.68247 33.1134 7.7789 33.2859C9.96165 33.4074 12.0002 32.6159 13.4947 31.0668C14.2743 30.2588 14.6933 29.5943 15.0826 28.5487C15.3727 27.7693 15.3888 27.6544 15.3854 26.3645C15.3824 25.1442 15.3547 24.9251 15.1194 24.2518C14.7291 23.1347 14.2265 22.3837 13.2319 21.4308C12.4904 20.7204 12.1989 20.5133 11.447 20.1632L10.5483 19.7448L10.5993 19.1324C10.6409 18.6327 10.6098 18.4297 10.4296 18.0298C10.2029 17.5263 9.62128 16.9399 9.19531 16.7851L8.9547 16.6978V15.0053V13.3128H12.6382H16.3217L16.4705 13.5298C16.5524 13.6491 16.7916 13.8393 17.0021 13.9523C17.345 14.1364 17.5278 14.1579 18.7504 14.1579C20.3558 14.1579 20.5525 14.0871 20.5525 13.5098C20.5525 12.9002 20.3431 12.804 18.8962 12.7494L17.6531 12.7024V11.4818V10.2611H25.6635H33.6738V11.4818V12.7024L28.3029 12.7494C23.1971 12.794 22.9218 12.8052 22.7251 12.9752C22.4336 13.2274 22.4401 13.8132 22.7368 14.0117C22.8569 14.092 23.078 14.1579 23.2282 14.1579H23.5012V22.6147V31.0715L23.2028 31.3114C22.6754 31.7353 22.6166 31.95 22.6166 33.4491C22.6166 34.6901 22.6346 34.8325 22.8131 35.0031C23.1058 35.2827 23.6319 35.2535 23.8871 34.9435C24.0683 34.7235 24.0909 34.5674 24.0909 33.535V32.374H25.6635H27.2361V36.1768V39.9797H25.6635H24.0909V38.7717C24.0909 37.6918 24.0693 37.5374 23.8871 37.3163C23.6319 37.0062 23.1058 36.977 22.8131 37.2566C22.636 37.4258 22.6166 37.5696 22.6166 38.7121V39.9797L18.3657 39.9817C14.2994 39.9837 14.0955 39.9922 13.6725 40.1754C12.7376 40.5802 12.299 41.2891 12.2974 42.3975L12.2965 43.0783H11.7918C10.7684 43.0783 9.95713 43.5315 9.55307 44.3288C9.23904 44.9485 9.26037 46.2061 9.59573 46.8382C9.87191 47.359 10.4516 47.815 11.0245 47.9625C11.267 48.0248 16.3537 48.0488 25.883 48.0326L40.3728 48.0079L40.8565 47.7228C41.1825 47.5308 41.4444 47.2718 41.6596 46.9288C41.9568 46.4555 41.9791 46.361 41.9791 45.5769C41.9791 44.5796 41.786 44.1017 41.1849 43.61C40.7325 43.2402 40.2304 43.0783 39.5351 43.0783H39.0305L39.0295 42.3975C39.0279 41.2891 38.5894 40.5802 37.6545 40.1754C37.2314 39.9922 37.0275 39.9837 32.9613 39.9817L28.7104 39.9797V36.0313C28.7104 31.7132 28.7199 31.7903 28.1242 31.3114L27.8258 31.0715V22.6147V14.1579H30.8839C33.8479 14.1579 33.9537 14.1516 34.3248 13.9523C34.5353 13.8393 34.7746 13.6491 34.8564 13.5298L35.0052 13.3128H38.6887H42.3722V15.0053V16.6978L42.1316 16.7851C41.7056 16.9399 41.124 17.5263 40.8973 18.0298C40.7147 18.4353 40.6861 18.628 40.7315 19.1455L40.7864 19.7711L40.3511 19.9298C39.6242 20.1951 38.5266 20.9442 37.8357 21.6466C36.6371 22.8653 36.0056 24.2775 35.9119 25.9484C35.8487 27.0749 35.9824 27.9082 36.387 28.9105C36.7847 29.8958 36.982 30.1204 37.4498 30.1204C38.1627 30.1204 38.3446 29.5499 37.8995 28.7107C36.5259 26.1211 37.8213 22.6365 40.6188 21.3958C41.5794 20.9697 42.2245 20.8246 43.1585 20.8246C44.7102 20.8246 46.1197 21.3888 47.2285 22.4538C50.4625 25.56 48.8307 30.8623 44.3621 31.767C43.0803 32.0265 41.6619 31.8543 40.5175 31.3003C40.2438 31.1678 39.8925 31.0594 39.737 31.0594C39.3748 31.0594 39.096 31.3531 39.096 31.7347C39.096 32.1133 39.485 32.4368 40.3467 32.7749C43.8301 34.1415 47.8397 32.7492 49.5821 29.5679C50.1898 28.4584 50.3799 27.6951 50.3799 26.3645C50.3799 25.0073 50.1927 24.2811 49.5272 23.0549C48.8283 21.7672 47.2209 20.3736 45.9185 19.9262L45.4572 19.7677L45.5493 19.2824C45.7301 18.3291 45.141 17.2222 44.248 16.8375L43.8465 16.6645V14.9887V13.3128H44.9458C45.8651 13.3128 46.1156 13.2802 46.4757 13.1136C47.6693 12.5616 47.8343 10.86 46.7695 10.0841C46.3518 9.7797 45.7661 9.65594 44.7298 9.65303C43.9581 9.65097 43.8856 9.63444 43.7961 9.43989C43.6446 9.11078 43.2208 8.95491 42.8882 9.10617C42.7396 9.17378 42.5743 9.32392 42.5209 9.43989L42.4239 9.65078H38.7221H35.0204L34.6865 9.33181C34.5029 9.15641 34.1778 8.96646 33.9641 8.90984C33.7231 8.84589 32.4843 8.80655 30.7007 8.80627L27.8258 8.8057V7.71152V6.61723L28.3225 6.11545C28.5958 5.83948 28.9385 5.37065 29.0842 5.07356C29.3195 4.59384 29.3491 4.42294 29.3484 3.54744C29.3476 2.62575 29.3275 2.52471 29.0391 1.99663C28.661 1.30395 27.9018 0.60864 27.1784 0.292206C26.5954 0.03718 25.3912 -0.0812248 24.828 0.0610299ZM26.5972 1.61156C27.4904 2.01494 27.9241 2.66302 27.9241 3.59439C27.9241 4.86314 26.9958 5.74709 25.6635 5.74709C24.3311 5.74709 23.4029 4.86314 23.4029 3.59439C23.4029 2.66302 23.8365 2.01494 24.7297 1.61156C25.0196 1.48067 25.4026 1.38968 25.6635 1.38968C25.9243 1.38968 26.3073 1.48067 26.5972 1.61156ZM26.3515 7.9841V8.8057H25.6635H24.9755V7.9841V7.1625H25.6635H26.3515V7.9841ZM7.46143 11.5053L7.4917 11.9043H6.52279C5.49058 11.9043 5.31809 11.8408 5.31809 11.46C5.31809 11.1512 5.6156 11.0643 6.59582 11.0869L7.43125 11.1062L7.46143 11.5053ZM16.1296 11.4818V11.9043H12.5422H8.9547V11.4818V11.0592H12.5422H16.1296V11.4818ZM42.3722 11.4818V11.9043H38.7848H35.1973V11.4818V11.0592H38.7848H42.3722V11.4818ZM45.7567 11.1508C45.9276 11.2129 46.0088 11.3128 46.0088 11.4607C46.0088 11.8403 45.8357 11.9043 44.8097 11.9043H43.8465V11.5444C43.8465 11.3464 43.876 11.1562 43.9121 11.1219C44.0134 11.025 45.4735 11.048 45.7567 11.1508ZM26.3515 22.5617V30.9655H25.6635H24.9755V22.5617V14.1579H25.6635H26.3515V22.5617ZM8.2089 18.571C8.32478 18.571 8.5243 18.5009 8.65237 18.4152C8.87126 18.2688 8.89327 18.2698 9.01829 18.4332C9.15776 18.6154 9.19295 19.0154 9.09161 19.2676C9.04345 19.3876 8.86467 19.4161 8.16231 19.4161H7.29277L7.23045 19.0988C7.18898 18.8879 7.2219 18.6824 7.32864 18.485L7.48924 18.1885L7.74381 18.3798C7.88377 18.4849 8.09312 18.571 8.2089 18.571ZM44.0002 18.4885C44.1052 18.6827 44.1378 18.8888 44.0965 19.0988L44.0342 19.4161H43.1646C42.4623 19.4161 42.2835 19.3876 42.2353 19.2676C42.134 19.0154 42.1692 18.6154 42.3086 18.4332C42.4337 18.2698 42.4557 18.2688 42.6746 18.4152C42.9831 18.6217 43.2819 18.612 43.5653 18.3863C43.693 18.2848 43.8073 18.2003 43.8194 18.1986C43.8316 18.1969 43.9129 18.3274 44.0002 18.4885ZM9.5343 20.9689C10.5085 21.1883 11.4641 21.7128 12.2583 22.4639C14.5488 24.6302 14.5498 28.0707 12.2605 30.2577C10.273 32.1565 7.25837 32.435 4.94715 30.9332C1.90734 28.958 1.50299 24.9467 4.09304 22.4589C4.84356 21.738 5.85061 21.1835 6.81372 20.9606C7.52846 20.7953 8.78024 20.7991 9.5343 20.9689ZM42.6216 22.3231C42.5257 22.4243 42.424 22.7096 42.3955 22.9569C42.352 23.3358 42.2819 23.4578 41.9516 23.7301C41.2343 24.3215 41.0129 25.1789 41.3788 25.9487C41.6062 26.4269 42.2095 26.9108 42.6645 26.9799C43.3654 27.0865 43.4621 27.1253 43.5651 27.3412C43.6408 27.4999 43.6389 27.6172 43.5584 27.7612C43.4585 27.9393 43.3615 27.9608 42.6587 27.9608C41.8381 27.9608 41.3678 28.1036 41.2538 28.3876C41.0394 28.9215 41.3644 29.3693 41.9663 29.3693H42.3467L42.3989 29.8116C42.4589 30.321 42.7252 30.5899 43.1694 30.5899C43.6114 30.5899 43.8465 30.2973 43.8465 29.7473C43.8465 29.3226 43.8735 29.2669 44.1434 29.1336C44.3066 29.0529 44.5698 28.8159 44.7283 28.607C45.5622 27.5072 44.924 25.9953 43.5025 25.7034C42.8034 25.5598 42.6671 25.4752 42.6671 25.1846C42.6671 24.816 43.012 24.6744 43.9104 24.6744C44.6646 24.6744 44.73 24.6583 44.9205 24.427C45.1538 24.1437 45.1687 24.0253 45.0124 23.6976C44.8974 23.4563 44.485 23.2659 44.0776 23.2659C43.8736 23.2659 43.8465 23.222 43.8465 22.8903C43.8465 22.6399 43.781 22.4521 43.65 22.3269C43.3923 22.0807 42.853 22.0787 42.6216 22.3231ZM7.72612 22.5072C7.56394 22.606 6.67936 23.2926 5.76038 24.033C4.27595 25.2288 4.08596 25.4142 4.05785 25.6942C4.00104 26.2617 4.59656 26.6329 5.128 26.3612C5.31199 26.2672 5.31809 26.309 5.31809 27.669V29.0739L5.57707 29.2685C5.82259 29.453 5.95754 29.4632 8.17617 29.4632C10.5075 29.4632 10.5174 29.4623 10.7921 29.2368C11.0663 29.0116 11.0682 29.0025 11.117 27.617C11.144 26.8507 11.2019 26.2766 11.2457 26.3411C11.3305 26.4663 11.686 26.4962 11.948 26.4001C12.0356 26.368 12.1724 26.2212 12.2522 26.0737C12.3725 25.8516 12.3761 25.7585 12.2732 25.5292C12.1075 25.1602 8.53767 22.3268 8.23898 22.3273C8.11907 22.3275 7.88829 22.4084 7.72612 22.5072ZM8.95824 24.557L9.64133 25.0969L9.61745 26.5523L9.59356 28.0077L8.19298 28.0338L6.79239 28.0599V26.5608V25.0617L7.43686 24.5394C7.79128 24.2521 8.12496 24.0171 8.17823 24.0171C8.2316 24.0171 8.58259 24.26 8.95824 24.557ZM37.3196 41.6231C37.5379 41.8316 37.5623 41.9241 37.5363 42.4447L37.507 43.0313H25.6635H13.8199L13.7906 42.4447C13.7647 41.9241 13.789 41.8316 14.0073 41.6231L14.2532 41.3881H25.6635H37.0737L37.3196 41.6231ZM40.2635 44.7173C40.4695 44.914 40.5043 45.0342 40.5016 45.5389C40.4984 46.1532 40.4071 46.3526 40.0444 46.5372C39.884 46.6188 36.2455 46.6464 25.665 46.6464C13.4257 46.6464 11.4626 46.6277 11.2224 46.509C10.8745 46.3372 10.8222 46.2061 10.8222 45.5077C10.8222 45.0383 10.8612 44.9104 11.0634 44.7173L11.3046 44.4868H25.6635H40.0223L40.2635 44.7173Z" fill="#028C32"/>
</svg>
