<svg width="110" height="106" viewBox="0 0 110 106" fill="none" xmlns="http://www.w3.org/2000/svg">
<path fill-rule="evenodd" clip-rule="evenodd" d="M56.7168 0.30409C53.2968 0.856932 51.1421 1.47367 50.5131 2.07962C49.4758 3.07867 49.6231 3.52821 52.8026 9.06078L55.6842 14.0754L54.9546 14.3073C53.73 14.6967 51.9442 16.4407 51.4395 17.7403C50.7504 19.5148 50.8354 21.1995 51.6974 22.847L52.3973 24.1846L50.6746 25.2986C48.066 26.9855 44.0962 30.9293 42.1117 33.8051C38.3125 39.3105 36.1322 45.3916 35.7842 51.4519L35.6461 53.8578L34.6545 54.103C33.2053 54.4613 29.5471 56.202 27.7159 57.4043C26.8414 57.9785 24.4787 59.8443 22.4653 61.5507L18.8046 64.6531L18.1008 64.0612C17.2806 63.3715 16.5642 63.1557 15.736 63.3495C14.9177 63.5408 0.258137 77.663 0.0595952 78.4513C-0.0196492 78.765 -0.0198645 79.2784 0.0589492 79.5923C0.258568 80.387 26.5393 105.704 27.3642 105.897C27.6901 105.973 28.223 105.972 28.5486 105.895C29.203 105.741 43.4793 92.194 44.0144 91.2196C44.458 90.4118 44.3953 89.7633 43.7902 88.9045L43.2583 88.1494L59.2407 88.1463C76.8203 88.143 76.7546 88.1471 79.237 86.8726C80.175 86.3909 84.0111 83.0456 94.4384 73.6162C102.109 66.6794 108.612 60.6598 108.888 60.2388C109.747 58.9317 110 57.9248 110 55.8136C110 54.0348 109.931 53.6765 109.366 52.5271C107.663 49.0577 103.569 47.2181 99.762 48.2109C98.7079 48.4858 97.5494 49.0891 95.1238 50.6266C93.3455 51.7539 91.8601 52.6762 91.8231 52.6762C91.7861 52.6762 91.6877 51.8595 91.6045 50.8611C91.1157 44.987 88.9259 39.069 85.2934 33.8051C83.3089 30.9293 79.3391 26.9855 76.7305 25.2986L75.0078 24.1846L75.7076 22.847C76.5208 21.293 76.6441 19.6057 76.0647 17.9672C75.6198 16.7091 73.9856 14.9701 72.7325 14.4208L71.7439 13.9876L74.6142 9.02261C77.7848 3.53775 77.9342 3.0822 76.892 2.08107C76.2372 1.45209 74.1264 0.858384 70.5716 0.302845C67.9826 -0.101466 59.2209 -0.100844 56.7168 0.30409ZM70.0244 4.42126C71.0736 4.5922 71.9666 4.76521 72.0086 4.80587C72.0508 4.84653 71.041 6.69134 69.7647 8.90561L67.444 12.9317H63.7025H59.961L57.6328 8.89586L55.3046 4.86001L56.4538 4.60776C59.7061 3.89331 66.2345 3.8037 70.0244 4.42126ZM68.8618 17.6192C71.2921 18.1782 72.1007 18.773 72.1007 20.0013C72.1007 20.9752 71.8104 21.4787 71.023 21.8712C70.44 22.1616 70.2436 22.1496 68.6066 21.7239C66.1531 21.086 61.1721 21.082 58.7498 21.7162C57.349 22.083 57.0443 22.1029 56.4521 21.8668C55.6392 21.5426 55.3044 21.0109 55.3044 20.0452C55.3044 18.5761 56.3442 17.9824 60.1387 17.2856C62.3267 16.8838 66.3307 17.0369 68.8618 17.6192ZM68.117 25.8937C76.1758 28.0947 83.5477 36.0256 86.2919 45.4467C87.1724 48.4702 87.6537 53.245 87.2633 55.0878C87.1561 55.595 86.3873 56.1576 82.1273 58.8477C79.372 60.5876 77.0423 62.0113 76.9501 62.0113C76.858 62.0113 76.3952 61.6742 75.9219 61.262C75.4484 60.85 74.4191 60.2214 73.6346 59.8654C72.2762 59.2489 72.0572 59.2145 69.0322 59.14L65.8559 59.0618L65.863 57.8916L65.8703 56.7214L66.9862 56.0991C72.2306 53.1747 70.5012 45.3656 64.4562 44.6746C62.9084 44.4977 62.218 44.1929 61.862 43.5297C60.9895 41.9042 62.3336 40.1629 64.1853 40.5195C64.5678 40.5933 65.2525 40.9414 65.7069 41.293C66.1731 41.654 66.8878 41.9784 67.3482 42.0378C68.0349 42.1266 68.278 42.0446 68.889 41.5187C70.3868 40.2295 69.6379 38.5023 67.0069 37.178L65.857 36.5992L65.8564 35.2087C65.8559 33.5738 65.5629 32.8407 64.748 32.4347C63.6332 31.8794 62.2841 32.2644 61.8065 33.2742C61.665 33.5734 61.5459 34.4438 61.5421 35.2087L61.5347 36.5992L60.4188 37.2215C55.1745 40.1459 56.9039 47.955 62.9489 48.646C64.4967 48.8229 65.1871 49.1276 65.543 49.7909C66.4218 51.428 65.0857 53.1409 63.1963 52.7994C62.7634 52.7212 61.9695 52.248 61.2421 51.6346C59.8424 50.4547 58.9918 50.2993 58.009 51.0438C57.2103 51.6491 56.9579 52.3642 57.2461 53.2054C57.5353 54.0499 59.2664 55.6319 60.5672 56.2408L61.5492 56.7004V57.931V59.1616L60.7391 59.057C60.2123 58.989 59.3269 58.5357 58.2088 57.7622C53.6073 54.5781 48.6039 53.0158 42.9485 52.9971L39.9598 52.9874L40.0927 51.1755C40.9902 38.9379 50.442 27.372 61.0821 25.4913C62.6513 25.2139 66.4171 25.4293 68.117 25.8937ZM104.03 52.6735C105.79 53.8352 106.391 55.9335 105.441 57.6043C104.758 58.8062 78.4573 82.5614 76.9458 83.3412L75.8691 83.8968L57.3501 83.952L38.831 84.0071L30.3251 75.7985L21.8193 67.5897L22.3818 67.1343C22.6912 66.8838 24.3385 65.5051 26.0425 64.0708C30.8392 60.0331 33.1306 58.7295 37.1903 57.7292C43.5327 56.1665 50.3182 57.4149 55.6999 61.1346C58.7711 63.2572 58.2317 63.1383 65.3176 63.2559C71.4235 63.3574 71.5807 63.3707 72.3843 63.8519C72.8365 64.1226 73.4664 64.7228 73.784 65.1852C74.2653 65.8857 74.3618 66.2564 74.3618 67.4048C74.3618 68.5533 74.2653 68.924 73.784 69.6245C73.4664 70.0869 72.8365 70.6871 72.3843 70.9578C71.5635 71.4494 71.5512 71.4502 62.9489 71.5538C58.2114 71.6108 54.1622 71.7388 53.9505 71.8382C53.4863 72.0562 52.9356 73.0275 52.9356 73.6282C52.9356 74.3451 53.5207 75.2131 54.182 75.477C54.6372 75.6587 57.1235 75.7079 63.5174 75.6618L72.2319 75.5989L73.8585 74.8241C75.8207 73.8896 77.0451 72.6833 77.9754 70.7682C78.5475 69.5905 78.6468 69.143 78.6567 67.6976L78.6685 66.0056L89.0664 59.4184C94.7851 55.7956 99.824 52.6503 100.264 52.4289C101.327 51.8941 103.016 52.0039 104.03 52.6735ZM27.7413 79.3332L39.045 90.2241L33.5005 95.5654L27.9562 100.906L16.5982 89.9648L5.2402 79.023L10.7287 73.7326C13.7476 70.8227 16.2668 68.4421 16.3273 68.4421C16.3878 68.4421 21.5241 73.343 27.7413 79.3332ZM45.4225 71.8434C43.5557 72.8401 44.3368 75.7027 46.4755 75.7027C47.5666 75.7027 48.6289 74.6893 48.6289 73.6483C48.6289 72.0908 46.8422 71.0851 45.4225 71.8434Z" fill="#028C32"/>
</svg>
