<svg width="50" height="57" viewBox="0 0 50 57" fill="none" xmlns="http://www.w3.org/2000/svg">
<path fill-rule="evenodd" clip-rule="evenodd" d="M24.9476 0.27064L24.6748 0.54328V5.3618V10.1803L24.9517 10.4404C25.3119 10.7788 25.8154 10.7788 26.1755 10.4404L26.4524 10.1803V5.3618V0.54328L26.1797 0.27064C25.8189 -0.0902133 25.3083 -0.0902133 24.9476 0.27064ZM17.9483 4.93685L17.6755 5.20949V7.69491V10.1803L17.9524 10.4404C18.3125 10.7788 18.8161 10.7788 19.1762 10.4404L19.4531 10.1803V7.69491V5.20949L19.1804 4.93685C19.0085 4.76486 18.7807 4.66409 18.5643 4.66409C18.3479 4.66409 18.1201 4.76486 17.9483 4.93685ZM31.9469 4.93685L31.6741 5.20949L31.6777 7.68657C31.6814 10.347 31.7001 10.4411 32.2655 10.6561C32.6076 10.786 32.8513 10.7208 33.2017 10.4054C33.4468 10.1848 33.4517 10.1317 33.4517 7.69491V5.20949L33.179 4.93685C33.0071 4.76486 32.7793 4.66409 32.5629 4.66409C32.3465 4.66409 32.1187 4.76486 31.9469 4.93685ZM23.3416 12.6052C19.0981 13.3251 15.3655 16.0952 13.4625 19.9367C12.4863 21.9071 12.0794 23.6715 12.0779 25.9398C12.0757 29.5381 13.3117 32.6622 15.7537 35.2302C20.332 40.0448 27.5633 40.8323 33.174 37.1272C33.6017 36.8448 34.4585 36.1119 35.0779 35.4985C37.1212 33.4755 38.3626 31.1159 38.9086 28.2173C39.0845 27.2837 39.0839 24.5861 38.9076 23.6781C37.9243 18.614 34.5529 14.699 29.8059 13.1086C27.9158 12.4754 25.3053 12.2721 23.3416 12.6052ZM27.5152 14.4472C30.0134 14.8925 32.1755 16.0519 33.9597 17.903C35.3742 19.3706 36.329 21.073 36.8655 23.0838C37.1181 24.0306 37.1531 24.379 37.1531 25.9398C37.1531 27.5119 37.119 27.8455 36.8578 28.8258C35.3665 34.4235 30.2471 38.024 24.4737 37.5358C18.342 37.0173 13.6098 31.5665 13.931 25.3924C14.2094 20.0422 17.9901 15.6459 23.2861 14.5141C24.2063 14.3175 26.5765 14.28 27.5152 14.4472ZM25.0637 17.2356C24.6732 17.4492 24.5637 17.6901 24.5637 18.3355V18.9658L24.0716 19.1538C22.6416 19.6999 21.564 21.2836 21.564 22.8392C21.564 24.0244 22.3403 25.4646 23.3156 26.0889C24.0496 26.5587 24.3814 26.6709 25.3778 26.7866C26.3647 26.901 26.7488 27.065 27.1518 27.5439C28.319 28.931 27.3692 30.9948 25.5636 30.9948C24.4474 30.9948 23.6471 30.2735 23.4616 29.0999C23.2973 28.0606 22.529 27.6796 21.8887 28.3199C21.5131 28.6955 21.4862 28.9791 21.7343 29.9438C22.04 31.1324 23.0823 32.2835 24.2026 32.6697C24.5508 32.7898 24.5637 32.8159 24.5637 33.4017C24.5637 34.1374 24.6733 34.3653 25.115 34.5483C25.3862 34.6606 25.5188 34.6606 25.79 34.5483C26.2264 34.3675 26.3413 34.1372 26.3413 33.4428C26.3413 33.002 26.3844 32.8624 26.5357 32.8125C28.7087 32.0968 29.9305 30.0455 29.4052 27.9948C28.9674 26.2858 27.7341 25.2213 25.9262 24.9921C24.8462 24.8552 24.7036 24.8107 24.2461 24.4677C22.8783 23.4424 23.3846 21.2337 25.0914 20.7796C26.3119 20.4549 27.6637 21.4892 27.6721 22.7542C27.6752 23.2199 28.1893 23.7733 28.6189 23.7733C29.0224 23.7733 29.5632 23.2189 29.5632 22.8053C29.5632 22.1951 29.2199 21.1586 28.8281 20.5852C28.351 19.8874 27.8414 19.4832 27.0168 19.1489L26.3969 18.8976L26.3667 18.3635C26.3298 17.7085 26.1782 17.3921 25.8239 17.2306C25.4906 17.0789 25.3486 17.0798 25.0637 17.2356ZM0.694189 38.3104C0.565757 38.4389 0.436215 38.6577 0.40644 38.7968C0.28723 39.3534 -0.0832893 55.3568 0.017034 55.6205C0.213348 56.1367 0.567535 56.1854 4.73234 56.2704L8.62084 56.3498L8.88193 56.0688C9.0538 55.8837 9.16757 55.5898 9.21523 55.2077L9.28745 54.6275L10.5657 53.9646C12.4625 52.9809 12.0457 52.933 19.2353 54.9616C22.5069 55.8847 25.6028 56.7013 26.1152 56.7762C27.1267 56.924 28.9922 56.8675 30.0076 56.6582C31.854 56.2774 32.5588 55.9386 35.6482 53.9466C47.0195 46.6141 49.4293 45.0441 49.7001 44.792C50.1123 44.4082 50.1002 43.9522 49.6602 43.2879C49.2219 42.6262 48.5594 42.0827 47.7203 41.6965C46.8599 41.3005 45.3282 41.2023 44.4678 41.4881C44.1591 41.5906 42.2166 42.4745 40.1512 43.4523C36.8189 45.0298 36.3833 45.2088 36.2848 45.0413C35.4504 43.6245 33.9146 42.5511 32.2403 42.2147C31.9594 42.1584 29.9481 42.06 27.7706 41.9961C23.2053 41.8623 22.8413 41.8025 21.0163 40.8866C18.7242 39.7364 17.0818 39.3711 14.6385 39.4682C13.0232 39.5324 12.0421 39.7456 10.4838 40.3713L9.53453 40.7524L9.6003 39.9685C9.68463 38.9627 9.51498 38.51 8.9927 38.3465C8.78672 38.282 6.90457 38.196 4.77423 38.1536C0.963273 38.0777 0.925499 38.0791 0.694189 38.3104ZM7.73104 40.1343C7.73893 40.1488 7.6585 43.1603 7.55229 46.8266C7.44607 50.4929 7.35553 53.713 7.35119 53.9823L7.34319 54.4721L4.59913 54.3953C3.08984 54.3532 1.84496 54.3077 1.83263 54.2945C1.81497 54.2754 2.20359 40.1805 2.2267 40.0039C2.2327 39.9573 7.70482 40.0869 7.73104 40.1343ZM17.7657 41.6148C18.3815 41.7686 19.4159 42.1661 20.321 42.5963C22.4514 43.6092 22.701 43.6623 25.8969 43.7833C31.9036 44.0108 32.1124 44.0279 32.8046 44.3483C33.6565 44.7427 34.3765 45.4333 34.7819 46.2446C35.3162 47.3139 35.4107 47.26 33.1462 47.1774C32.0616 47.1379 29.7243 47.0735 27.9523 47.0341C24.8239 46.9649 24.7224 46.9694 24.4552 47.1883C24.0792 47.4964 24.0641 48.2565 24.4281 48.5511C24.758 48.8183 25.2717 48.8517 31.391 49.0034L36.4962 49.1299L36.8175 48.7704C37.1129 48.4398 37.1357 48.3536 37.1006 47.6986L37.0625 46.9864L40.9195 45.158C43.0409 44.1523 44.9945 43.2807 45.2609 43.2209C45.5273 43.1613 45.9414 43.1428 46.1811 43.1801C46.7022 43.2609 47.7019 43.7402 47.6521 43.8852C47.613 43.9996 32.5219 53.7841 31.8765 54.1137C31.6519 54.2283 31.027 54.4567 30.4878 54.6213C29.5944 54.8938 29.3453 54.9205 27.6745 54.9218L25.8414 54.9235L19.8975 53.2237C12.4485 51.0936 12.2023 51.0645 10.1605 52.0741C9.7124 52.2957 9.32755 52.4555 9.30533 52.4293C9.25134 52.3657 9.51876 43.0024 9.57597 42.9481C9.77217 42.7623 11.2349 42.0527 11.8597 41.8402C13.778 41.1877 15.7547 41.1123 17.7657 41.6148Z" fill="#028C32"/>
</svg>
