<svg width="352" height="67" viewBox="0 0 352 67" fill="none" xmlns="http://www.w3.org/2000/svg">
<path d="M35.1136 33.5455C35.1136 37.3523 34.392 40.5909 32.9489 43.2614C31.517 45.9318 29.5625 47.9716 27.0852 49.3807C24.6193 50.7784 21.8466 51.4773 18.767 51.4773C15.6648 51.4773 12.8807 50.7727 10.4148 49.3636C7.94886 47.9545 6 45.9148 4.56818 43.2443C3.13636 40.5739 2.42045 37.3409 2.42045 33.5455C2.42045 29.7386 3.13636 26.5 4.56818 23.8295C6 21.1591 7.94886 19.125 10.4148 17.7273C12.8807 16.3182 15.6648 15.6136 18.767 15.6136C21.8466 15.6136 24.6193 16.3182 27.0852 17.7273C29.5625 19.125 31.517 21.1591 32.9489 23.8295C34.392 26.5 35.1136 29.7386 35.1136 33.5455ZM27.6307 33.5455C27.6307 31.0795 27.2614 29 26.5227 27.3068C25.7955 25.6136 24.767 24.3295 23.4375 23.4545C22.108 22.5795 20.5511 22.142 18.767 22.142C16.983 22.142 15.4261 22.5795 14.0966 23.4545C12.767 24.3295 11.733 25.6136 10.9943 27.3068C10.267 29 9.90341 31.0795 9.90341 33.5455C9.90341 36.0114 10.267 38.0909 10.9943 39.7841C11.733 41.4773 12.767 42.7614 14.0966 43.6364C15.4261 44.5114 16.983 44.9489 18.767 44.9489C20.5511 44.9489 22.108 44.5114 23.4375 43.6364C24.767 42.7614 25.7955 41.4773 26.5227 39.7841C27.2614 38.0909 27.6307 36.0114 27.6307 33.5455ZM54.3707 24.8182V30.2727H38.6037V24.8182H54.3707ZM42.1832 18.5455H49.4446V42.9545C49.4446 43.625 49.5469 44.1477 49.7514 44.5227C49.956 44.8864 50.2401 45.142 50.6037 45.2898C50.9787 45.4375 51.4105 45.5114 51.8991 45.5114C52.2401 45.5114 52.581 45.483 52.9219 45.4261C53.2628 45.358 53.5241 45.3068 53.706 45.2727L54.848 50.6761C54.4844 50.7898 53.973 50.9205 53.3139 51.0682C52.6548 51.2273 51.8537 51.3239 50.9105 51.358C49.1605 51.4261 47.6264 51.1932 46.3082 50.6591C45.0014 50.125 43.9844 49.2955 43.2571 48.1705C42.5298 47.0455 42.1719 45.625 42.1832 43.9091V18.5455ZM66.9247 35.8636V51H59.6634V16.0909H66.7202V29.4375H67.027C67.6179 27.892 68.5724 26.6818 69.8906 25.8068C71.2088 24.9205 72.8622 24.4773 74.8509 24.4773C76.669 24.4773 78.2543 24.875 79.6065 25.6705C80.9702 26.4545 82.027 27.5852 82.777 29.0625C83.5384 30.5284 83.9134 32.2841 83.902 34.3295V51H76.6406V35.625C76.652 34.0114 76.2429 32.7557 75.4134 31.858C74.5952 30.9602 73.4474 30.5114 71.9702 30.5114C70.9815 30.5114 70.1065 30.7216 69.3452 31.142C68.5952 31.5625 68.0043 32.1761 67.5724 32.983C67.152 33.7784 66.9361 34.7386 66.9247 35.8636ZM101.548 51.5114C98.8551 51.5114 96.5369 50.9659 94.5938 49.875C92.6619 48.7727 91.1733 47.2159 90.1278 45.2045C89.0824 43.1818 88.5597 40.7898 88.5597 38.0284C88.5597 35.3352 89.0824 32.9716 90.1278 30.9375C91.1733 28.9034 92.6449 27.3182 94.5426 26.1818C96.4517 25.0455 98.6903 24.4773 101.259 24.4773C102.986 24.4773 104.594 24.7557 106.082 25.3125C107.582 25.858 108.889 26.6818 110.003 27.7841C111.128 28.8864 112.003 30.2727 112.628 31.9432C113.253 33.6023 113.565 35.5455 113.565 37.7727V39.767H91.4574V35.267H106.73C106.73 34.2216 106.503 33.2955 106.048 32.4886C105.594 31.6818 104.963 31.0511 104.156 30.5966C103.361 30.1307 102.435 29.8977 101.378 29.8977C100.276 29.8977 99.2983 30.1534 98.446 30.6648C97.6051 31.1648 96.946 31.8409 96.4688 32.6932C95.9915 33.5341 95.7472 34.4716 95.7358 35.5057V39.7841C95.7358 41.0795 95.9744 42.1989 96.4517 43.142C96.9403 44.0852 97.6278 44.8125 98.5142 45.3239C99.4006 45.8352 100.452 46.0909 101.668 46.0909C102.474 46.0909 103.213 45.9773 103.884 45.75C104.554 45.5227 105.128 45.1818 105.605 44.7273C106.082 44.2727 106.446 43.7159 106.696 43.0568L113.412 43.5C113.071 45.1136 112.372 46.5227 111.315 47.7273C110.27 48.9205 108.918 49.8523 107.259 50.5227C105.611 51.1818 103.707 51.5114 101.548 51.5114ZM118.304 51V24.8182H125.344V29.3864H125.616C126.094 27.7614 126.895 26.5341 128.02 25.7045C129.145 24.8636 130.44 24.4432 131.906 24.4432C132.27 24.4432 132.662 24.4659 133.082 24.5114C133.503 24.5568 133.872 24.6193 134.19 24.6989V31.142C133.849 31.0398 133.378 30.9489 132.776 30.8693C132.173 30.7898 131.622 30.75 131.122 30.75C130.054 30.75 129.099 30.983 128.259 31.4489C127.429 31.9034 126.77 32.5398 126.281 33.358C125.804 34.1761 125.565 35.1193 125.565 36.1875V51H118.304ZM168.128 26.1307C167.991 24.7557 167.406 23.6875 166.372 22.9261C165.338 22.1648 163.935 21.7841 162.162 21.7841C160.957 21.7841 159.94 21.9545 159.111 22.2955C158.281 22.625 157.645 23.0852 157.202 23.6761C156.77 24.267 156.554 24.9375 156.554 25.6875C156.531 26.3125 156.662 26.858 156.946 27.3239C157.241 27.7898 157.645 28.1932 158.156 28.5341C158.668 28.8636 159.259 29.1534 159.929 29.4034C160.599 29.642 161.315 29.8466 162.077 30.017L165.213 30.767C166.736 31.108 168.134 31.5625 169.406 32.1307C170.679 32.6989 171.781 33.3977 172.713 34.2273C173.645 35.0568 174.366 36.0341 174.878 37.1591C175.401 38.2841 175.668 39.5739 175.679 41.0284C175.668 43.1648 175.122 45.017 174.043 46.5852C172.974 48.142 171.429 49.3523 169.406 50.2159C167.395 51.0682 164.969 51.4943 162.128 51.4943C159.31 51.4943 156.855 51.0625 154.764 50.1989C152.685 49.3352 151.06 48.0568 149.889 46.3636C148.73 44.6591 148.122 42.5511 148.065 40.0398H155.207C155.287 41.2102 155.622 42.1875 156.213 42.9716C156.815 43.7443 157.616 44.3295 158.616 44.7273C159.628 45.1136 160.77 45.3068 162.043 45.3068C163.293 45.3068 164.378 45.125 165.298 44.7614C166.23 44.3977 166.952 43.892 167.463 43.2443C167.974 42.5966 168.23 41.8523 168.23 41.0114C168.23 40.2273 167.997 39.5682 167.531 39.0341C167.077 38.5 166.406 38.0455 165.52 37.6705C164.645 37.2955 163.571 36.9545 162.298 36.6477L158.497 35.6932C155.554 34.9773 153.23 33.858 151.526 32.3352C149.821 30.8125 148.974 28.7614 148.986 26.1818C148.974 24.0682 149.537 22.2216 150.673 20.642C151.821 19.0625 153.395 17.8295 155.395 16.9432C157.395 16.0568 159.668 15.6136 162.213 15.6136C164.804 15.6136 167.065 16.0568 168.997 16.9432C170.94 17.8295 172.452 19.0625 173.531 20.642C174.611 22.2216 175.168 24.0511 175.202 26.1307H168.128ZM192.439 51.5114C189.746 51.5114 187.428 50.9659 185.484 49.875C183.553 48.7727 182.064 47.2159 181.018 45.2045C179.973 43.1818 179.45 40.7898 179.45 38.0284C179.45 35.3352 179.973 32.9716 181.018 30.9375C182.064 28.9034 183.536 27.3182 185.433 26.1818C187.342 25.0455 189.581 24.4773 192.149 24.4773C193.876 24.4773 195.484 24.7557 196.973 25.3125C198.473 25.858 199.78 26.6818 200.893 27.7841C202.018 28.8864 202.893 30.2727 203.518 31.9432C204.143 33.6023 204.456 35.5455 204.456 37.7727V39.767H182.348V35.267H197.621C197.621 34.2216 197.393 33.2955 196.939 32.4886C196.484 31.6818 195.854 31.0511 195.047 30.5966C194.251 30.1307 193.325 29.8977 192.268 29.8977C191.166 29.8977 190.189 30.1534 189.337 30.6648C188.496 31.1648 187.837 31.8409 187.359 32.6932C186.882 33.5341 186.638 34.4716 186.626 35.5057V39.7841C186.626 41.0795 186.865 42.1989 187.342 43.142C187.831 44.0852 188.518 44.8125 189.405 45.3239C190.291 45.8352 191.342 46.0909 192.558 46.0909C193.365 46.0909 194.104 45.9773 194.774 45.75C195.445 45.5227 196.018 45.1818 196.496 44.7273C196.973 44.2727 197.337 43.7159 197.587 43.0568L204.303 43.5C203.962 45.1136 203.263 46.5227 202.206 47.7273C201.161 48.9205 199.808 49.8523 198.149 50.5227C196.501 51.1818 194.598 51.5114 192.439 51.5114ZM209.195 51V24.8182H216.234V29.3864H216.507C216.984 27.7614 217.786 26.5341 218.911 25.7045C220.036 24.8636 221.331 24.4432 222.797 24.4432C223.161 24.4432 223.553 24.4659 223.973 24.5114C224.393 24.5568 224.763 24.6193 225.081 24.6989V31.142C224.74 31.0398 224.268 30.9489 223.666 30.8693C223.064 30.7898 222.513 30.75 222.013 30.75C220.945 30.75 219.99 30.983 219.149 31.4489C218.32 31.9034 217.661 32.5398 217.172 33.358C216.695 34.1761 216.456 35.1193 216.456 36.1875V51H209.195ZM254.041 24.8182L244.888 51H236.706L227.553 24.8182H235.223L240.661 43.5511H240.933L246.354 24.8182H254.041ZM257.757 51V24.8182H265.018V51H257.757ZM261.405 21.4432C260.325 21.4432 259.399 21.0852 258.626 20.3693C257.865 19.642 257.484 18.7727 257.484 17.7614C257.484 16.7614 257.865 15.9034 258.626 15.1875C259.399 14.4602 260.325 14.0966 261.405 14.0966C262.484 14.0966 263.405 14.4602 264.166 15.1875C264.939 15.9034 265.325 16.7614 265.325 17.7614C265.325 18.7727 264.939 19.642 264.166 20.3693C263.405 21.0852 262.484 21.4432 261.405 21.4432ZM282.665 51.5114C279.983 51.5114 277.676 50.9432 275.744 49.8068C273.824 48.6591 272.347 47.0682 271.312 45.0341C270.29 43 269.778 40.6591 269.778 38.0114C269.778 35.3295 270.295 32.9773 271.33 30.9545C272.375 28.9205 273.858 27.3352 275.778 26.1989C277.699 25.0511 279.983 24.4773 282.631 24.4773C284.915 24.4773 286.915 24.892 288.631 25.7216C290.347 26.5511 291.705 27.7159 292.705 29.2159C293.705 30.7159 294.256 32.4773 294.358 34.5H287.506C287.313 33.1932 286.801 32.142 285.972 31.3466C285.153 30.5398 284.08 30.1364 282.75 30.1364C281.625 30.1364 280.642 30.4432 279.801 31.0568C278.972 31.6591 278.324 32.5398 277.858 33.6989C277.392 34.858 277.159 36.2614 277.159 37.9091C277.159 39.5795 277.386 41 277.841 42.1705C278.307 43.3409 278.96 44.233 279.801 44.8466C280.642 45.4602 281.625 45.767 282.75 45.767C283.58 45.767 284.324 45.5966 284.983 45.2557C285.653 44.9148 286.205 44.4205 286.636 43.7727C287.08 43.1136 287.369 42.3239 287.506 41.4034H294.358C294.244 43.4034 293.699 45.1648 292.722 46.6875C291.756 48.1989 290.42 49.3807 288.716 50.233C287.011 51.0852 284.994 51.5114 282.665 51.5114ZM310.939 51.5114C308.246 51.5114 305.928 50.9659 303.984 49.875C302.053 48.7727 300.564 47.2159 299.518 45.2045C298.473 43.1818 297.95 40.7898 297.95 38.0284C297.95 35.3352 298.473 32.9716 299.518 30.9375C300.564 28.9034 302.036 27.3182 303.933 26.1818C305.842 25.0455 308.081 24.4773 310.649 24.4773C312.376 24.4773 313.984 24.7557 315.473 25.3125C316.973 25.858 318.28 26.6818 319.393 27.7841C320.518 28.8864 321.393 30.2727 322.018 31.9432C322.643 33.6023 322.956 35.5455 322.956 37.7727V39.767H300.848V35.267H316.121C316.121 34.2216 315.893 33.2955 315.439 32.4886C314.984 31.6818 314.354 31.0511 313.547 30.5966C312.751 30.1307 311.825 29.8977 310.768 29.8977C309.666 29.8977 308.689 30.1534 307.837 30.6648C306.996 31.1648 306.337 31.8409 305.859 32.6932C305.382 33.5341 305.138 34.4716 305.126 35.5057V39.7841C305.126 41.0795 305.365 42.1989 305.842 43.142C306.331 44.0852 307.018 44.8125 307.905 45.3239C308.791 45.8352 309.842 46.0909 311.058 46.0909C311.865 46.0909 312.604 45.9773 313.274 45.75C313.945 45.5227 314.518 45.1818 314.996 44.7273C315.473 44.2727 315.837 43.7159 316.087 43.0568L322.803 43.5C322.462 45.1136 321.763 46.5227 320.706 47.7273C319.661 48.9205 318.308 49.8523 316.649 50.5227C315.001 51.1818 313.098 51.5114 310.939 51.5114ZM349.479 32.2841L342.831 32.6932C342.717 32.125 342.473 31.6136 342.098 31.1591C341.723 30.6932 341.229 30.3239 340.615 30.0511C340.013 29.767 339.291 29.625 338.45 29.625C337.325 29.625 336.376 29.8636 335.604 30.3409C334.831 30.8068 334.445 31.4318 334.445 32.2159C334.445 32.8409 334.695 33.3693 335.195 33.8011C335.695 34.233 336.553 34.5795 337.768 34.8409L342.507 35.7955C345.053 36.3182 346.95 37.1591 348.2 38.3182C349.45 39.4773 350.075 41 350.075 42.8864C350.075 44.6023 349.57 46.108 348.558 47.4034C347.558 48.6989 346.183 49.7102 344.433 50.4375C342.695 51.1534 340.689 51.5114 338.416 51.5114C334.95 51.5114 332.189 50.7898 330.132 49.3466C328.087 47.892 326.888 45.9148 326.536 43.4148L333.678 43.0398C333.893 44.0966 334.416 44.9034 335.246 45.4602C336.075 46.0057 337.138 46.2784 338.433 46.2784C339.706 46.2784 340.729 46.0341 341.501 45.5455C342.286 45.0455 342.683 44.4034 342.695 43.6193C342.683 42.9602 342.405 42.4205 341.859 42C341.314 41.5682 340.473 41.2386 339.337 41.0114L334.803 40.108C332.246 39.5966 330.342 38.7102 329.092 37.4489C327.854 36.1875 327.234 34.5795 327.234 32.625C327.234 30.9432 327.689 29.4943 328.598 28.2784C329.518 27.0625 330.808 26.125 332.467 25.4659C334.138 24.8068 336.092 24.4773 338.331 24.4773C341.638 24.4773 344.24 25.1761 346.138 26.5739C348.047 27.9716 349.161 29.875 349.479 32.2841Z" fill="#028C32"/>
<path d="M17.1164 56.5236C19.6844 56.5236 22.3748 56.4764 24.9428 56.4293C26.0434 56.4293 27.0217 56.3822 28.1223 56.3822C32.7693 56.288 37.4162 56.1937 42.0631 56.0995C47.6884 56.0052 53.1914 55.8639 58.8166 55.7696C66.7653 55.5812 74.714 55.4398 82.6627 55.2513C84.4971 55.2042 86.3314 55.2042 88.1657 55.1571C92.8126 55.0628 97.4596 54.9686 102.107 54.9215C106.753 54.8272 111.4 54.733 116.047 54.6859C117.882 54.6387 119.716 54.5916 121.55 54.5916C128.888 54.4974 136.347 54.4031 143.684 54.3089C148.209 54.2618 152.734 54.2147 157.381 54.1204C159.215 54.1204 160.927 54.0733 162.761 54.0733C169.854 54.0262 177.069 53.9791 184.162 53.9319C191.254 53.8848 198.225 53.8377 205.318 53.7906C207.152 53.7906 208.986 53.7906 210.943 53.7906C215.59 53.7906 220.114 53.7906 224.761 53.7906C231.976 53.7906 239.069 53.7906 246.284 53.7435C248.607 53.7435 250.931 53.7435 253.254 53.7435C258.146 53.7435 263.037 53.7435 267.929 53.7435C268.296 53.7435 268.785 53.7435 269.152 53.7435C258.146 53.7906 247.018 53.8377 236.012 53.9319C231.365 53.9791 226.84 53.9791 222.193 54.0262C220.237 54.0262 218.158 54.0262 216.201 54.0733C209.475 54.1204 202.872 54.2147 196.146 54.2618C188.442 54.356 180.738 54.4031 173.034 54.4974C171.688 54.4974 170.465 54.5445 169.12 54.5445C164.963 54.6387 160.927 54.6859 156.769 54.7801C148.454 54.9215 140.138 55.0628 131.822 55.2042C130.6 55.2042 129.377 55.2513 128.154 55.2984C124.118 55.3927 119.961 55.534 115.925 55.6283C108.588 55.8168 101.373 56.0052 94.0355 56.1937C92.0789 56.2408 90 56.3351 88.0434 56.3822C83.3965 56.5236 78.7495 56.6649 74.1026 56.8534C68.2328 57.0419 62.2407 57.2304 56.3708 57.4188C48.1775 57.7016 39.862 57.9843 31.6687 58.267C29.7121 58.3141 27.7555 58.4084 25.6766 58.4555C22.1302 58.5969 18.5839 58.7382 15.0375 58.8796C14.6706 58.8796 14.3038 58.9738 14.3038 59.1623C14.3038 59.3037 14.6706 59.445 15.0375 59.445C16.3827 59.445 17.6056 59.4921 18.9507 59.4921C18.7061 59.7277 18.5839 59.8691 18.5839 60.0105C18.5839 60.5288 19.6844 61 21.1519 61C31.3018 60.7644 41.3294 60.4817 51.4793 60.2932C60.2841 60.1518 69.0888 59.9634 77.8935 59.822C87.5543 59.6335 97.3373 59.445 106.998 59.3037C110.055 59.2565 113.112 59.2094 116.17 59.1152C117.026 59.1152 117.882 59.0681 118.86 59.0681C134.513 58.9267 150.166 58.7382 165.819 58.5969C174.134 58.5026 182.572 58.4084 190.888 58.3613C193.945 58.3141 196.88 58.3141 199.937 58.267C215.957 58.1728 231.976 58.0785 247.996 57.9843C254.844 57.9372 261.692 57.8901 268.54 57.8429C274.41 57.7958 280.28 57.7958 286.15 57.7016C291.041 57.6545 295.811 57.5602 300.702 57.5131C303.148 57.466 305.594 57.466 307.917 57.4188C313.42 57.2775 318.923 57.1361 324.426 56.9948C324.059 57.1832 324.059 57.466 324.181 57.6545C324.304 57.8901 324.671 58.0785 325.282 58.1728C325.771 58.267 326.505 58.3613 326.994 58.267C328.217 58.0785 329.44 57.8901 330.54 57.7016C330.54 57.7016 330.54 57.7016 330.418 57.7016C330.54 57.7016 330.54 57.6545 330.663 57.6545C330.785 57.6545 330.907 57.6073 330.907 57.6073H330.785C331.396 57.5131 332.008 57.4188 332.742 57.2775C333.353 57.1832 334.087 57.0419 334.698 56.9476C335.432 56.8063 336.043 56.6649 336.777 56.5236C337.511 56.3822 338 56.0052 338 55.6754C338 55.4869 337.878 55.3455 337.633 55.1571C337.389 54.9686 336.777 54.733 336.166 54.6859C335.554 54.6387 334.943 54.5916 334.331 54.5916C334.209 54.5916 334.087 54.5916 333.964 54.5916C333.598 54.5916 333.108 54.5916 332.742 54.6387C331.763 54.6859 330.907 54.733 329.929 54.733C329.195 54.733 328.462 54.7801 327.606 54.7801C325.527 54.8272 323.57 54.8743 321.491 54.9686C321.002 54.9686 320.391 55.0157 319.901 55.0157C320.146 54.9215 320.268 54.8272 320.268 54.733C320.391 54.6387 320.391 54.5445 320.391 54.4503C320.391 54.4031 320.391 54.3089 320.513 54.2618C320.513 54.1675 320.513 54.0733 320.391 54.0262C320.391 54.0262 320.513 54.0262 320.513 53.9791C320.88 53.8848 321.247 53.7906 321.491 53.6021C321.736 53.4607 321.858 53.2723 321.858 53.0838C321.858 52.8953 321.736 52.7539 321.491 52.5654C321.369 52.5183 321.247 52.4241 321.124 52.377C320.757 52.2356 320.391 52.1885 320.024 52.1414C319.29 52.0471 318.434 52 317.578 52C316.844 52 316.233 52 315.499 52C314.521 52 313.542 52 312.564 52C311.219 52 309.751 52 308.406 52C304.738 52 301.069 52 297.4 52C293.976 52 290.43 52 287.006 52C283.826 52 280.769 52 277.59 52C264.994 52 252.521 52.0471 239.925 52.0942C230.509 52.1414 221.093 52.1885 211.677 52.1885C207.519 52.1885 203.239 52.2356 199.081 52.2827C189.665 52.377 180.249 52.4241 170.832 52.5183C168.142 52.5183 165.452 52.5654 162.761 52.5654C161.172 52.5654 159.704 52.6126 158.114 52.6126C148.821 52.7539 139.527 52.8953 130.233 53.0366C127.42 53.0838 124.608 53.1309 121.673 53.178C120.083 53.178 118.493 53.2251 116.903 53.2723C107.609 53.4607 98.4379 53.6492 89.144 53.8377C84.3748 53.9319 79.6055 54.0262 74.8363 54.1675C66.643 54.356 58.4497 54.5445 50.3787 54.7801C43.286 54.9686 36.1933 55.1099 29.1006 55.2513C28 55.2984 26.8994 55.2984 25.6766 55.3455C23.8422 55.3927 22.0079 55.3927 20.1736 55.4398C18.5839 55.6283 16.8718 55.6283 15.2821 55.6283C15.1598 55.4398 14.6706 55.2984 14.3038 55.3455C13.2032 55.3455 12.2249 55.3927 11.1243 55.4398C10.6351 55.4869 10.146 55.5812 10.0237 55.7696C9.90141 56.0052 10.2683 56.2408 10.7574 56.288C11.2466 56.3351 11.7357 56.3822 12.2249 56.4293C12.714 56.4764 13.0809 56.4764 13.5701 56.4764C14.7929 56.5236 15.8935 56.5236 17.1164 56.5236ZM303.27 55.0157C304.738 55.0157 306.327 55.0157 307.795 55.0157C307.917 55.1571 308.162 55.2513 308.406 55.3455C307.795 55.3455 307.183 55.3927 306.694 55.3927C305.594 55.3927 304.493 55.4398 303.392 55.4398C298.501 55.4869 293.732 55.5812 288.84 55.6283C286.639 55.6754 284.438 55.7225 282.237 55.7225C278.813 55.7225 275.266 55.7696 271.842 55.7696C263.893 55.8168 256.067 55.8639 248.118 55.911C232.71 56.0052 217.424 56.0995 202.016 56.1937C191.01 56.2408 180.004 56.3822 168.998 56.5236C152.489 56.712 135.858 56.8534 119.349 57.0419C116.047 57.089 112.746 57.1361 109.444 57.2304C100.028 57.4188 90.6115 57.5602 81.1953 57.7487C72.0237 57.9372 62.7298 58.0785 53.5582 58.267C52.7022 58.267 51.8462 58.3141 50.9902 58.3141C53.4359 58.2199 56.004 58.1728 58.4497 58.0785C67.1322 57.8429 75.8146 57.5602 84.4971 57.3246C87.5543 57.2304 90.6115 57.1361 93.5464 57.0419C95.1361 56.9948 96.7259 56.9476 98.1933 56.9476C107.365 56.7592 116.414 56.5236 125.464 56.3351C127.176 56.288 129.01 56.2408 130.722 56.1937C133.29 56.1466 135.858 56.0995 138.304 56.0995C147.598 55.9581 156.892 55.8168 166.185 55.6754C168.264 55.6283 170.343 55.6283 172.3 55.5812C172.789 55.5812 173.4 55.5812 173.89 55.5812C175.357 55.5812 176.824 55.5812 178.17 55.534C187.464 55.4398 196.88 55.3927 206.174 55.2984C210.454 55.2513 214.734 55.2042 219.014 55.2042C232.832 55.1571 246.773 55.1099 260.592 55.0628C275.022 55.0628 289.207 55.0157 303.27 55.0157Z" fill="white" fill-opacity="0.7"/>
</svg>
