<svg width="101" height="100" viewBox="0 0 101 100" fill="none" xmlns="http://www.w3.org/2000/svg">
<path fill-rule="evenodd" clip-rule="evenodd" d="M41.5155 0.479492C41.0328 0.957227 41.0312 0.972657 41.0312 4.95449V8.95L40.1929 9.09023C37.8679 9.47871 32.6632 11.5301 29.5374 13.2896L27.7559 14.2926L24.9387 11.5082C22.507 9.10488 22.0365 8.72402 21.4998 8.72402C20.9474 8.72402 20.2053 9.39004 14.8446 14.6977C9.48394 20.0053 8.81126 20.74 8.81126 21.2869C8.81126 21.8184 9.19593 22.2842 11.6233 24.6918L14.4355 27.4811L13.4225 29.2449C11.6454 32.3398 9.5735 37.493 9.18114 39.7949L9.0395 40.625H5.00404C0.982383 40.625 0.966799 40.6266 0.484287 41.1045L0 41.5838V50V58.4162L0.484287 58.8955C0.966799 59.3734 0.982383 59.375 5.00404 59.375H9.0395L9.18114 60.2051C9.57251 62.5012 11.7091 67.8184 13.4437 70.8137L14.4327 72.5215L11.6813 75.2744C10.1679 76.7885 8.87301 78.1893 8.80396 78.3869C8.73472 78.5848 8.81284 79.0273 8.97736 79.3705C9.36933 80.1885 20.256 90.9324 20.9577 91.1939C21.2552 91.3047 21.6546 91.342 21.8454 91.2771C22.0363 91.2121 23.4442 89.9322 24.9742 88.4332L27.7559 85.7074L29.5374 86.7104C32.6447 88.4596 37.0106 90.1953 39.897 90.8289L41.0312 91.0777V95.0596C41.0312 99.0266 41.033 99.043 41.5155 99.5205L41.9996 100H50.5H59.0004L59.4845 99.5205C59.9668 99.0432 59.9688 99.0254 59.9689 95.0771L59.9691 91.1133L61.3991 90.7687C62.1856 90.5791 62.8851 90.4254 62.9538 90.4269C63.0222 90.4285 63.1175 91.5502 63.1654 92.9199C63.2368 94.9613 63.3302 95.5695 63.6833 96.2951C64.3536 97.6719 65.157 98.5049 66.513 99.2289C67.6534 99.8377 67.9049 99.8951 69.4375 99.8951C70.9689 99.8951 71.2222 99.8375 72.3572 99.2314C73.7371 98.4947 74.3315 97.8871 75.1197 96.4076L75.6514 95.4102L75.7094 85.693L75.7672 75.9758L75.3016 75.5148L74.8359 75.0537L75.2929 74.5277C75.7109 74.0467 75.75 73.818 75.75 71.8553C75.75 69.8367 75.7212 69.6803 75.2657 69.2295C74.8193 68.7873 74.6349 68.75 72.8985 68.75H71.0156V60.7633V52.7768L71.4895 52.659C72.1592 52.4926 73.6584 50.7725 73.9373 49.8508C74.0936 49.3346 74.1719 47.3035 74.1719 43.7674V38.4588L73.6876 37.9795C73.2074 37.5039 73.1729 37.5 69.4375 37.5C65.7021 37.5 65.6676 37.5039 65.1874 37.9795L64.7031 38.4588V43.7674C64.7031 47.3643 64.7805 49.335 64.943 49.8797C65.2038 50.7533 67.0133 52.7344 67.5507 52.7344C67.8258 52.7344 67.8594 53.6061 67.8594 60.7422V68.75H65.9765C64.2401 68.75 64.0557 68.7873 63.6093 69.2295C63.1538 69.6803 63.125 69.8367 63.125 71.8553C63.125 73.818 63.1641 74.0467 63.5821 74.5277L64.0391 75.0537L63.5821 75.5062C63.1256 75.9582 63.125 75.9662 63.125 81.5104V87.0617L61.2017 87.5734C60.1437 87.8547 58.8964 88.1777 58.4295 88.291C56.833 88.6787 56.8125 88.7393 56.8125 93.0664V96.875H50.5H44.1875V93.1033C44.1875 88.8498 44.1329 88.6787 42.6579 88.3029C38.9781 87.3658 37.7539 87.0033 36.2083 86.3939C33.9265 85.4945 31.7037 84.3918 29.7344 83.1824C27.3836 81.7391 27.4446 81.7199 24.2159 84.9105L21.4998 87.5945L17.0148 83.1537L12.5295 78.7131L15.2403 76.0238C18.4092 72.8805 18.4319 72.8199 17.168 70.8838C14.777 67.2209 13.0531 62.9773 11.761 57.5738C11.6911 57.2813 11.4406 56.8639 11.2045 56.6461C10.804 56.2766 10.5198 56.25 6.96565 56.25H3.15625V50V43.75H6.96565C10.5198 43.75 10.804 43.7234 11.2045 43.3539C11.4406 43.1361 11.6911 42.7188 11.761 42.4262C13.0531 37.0227 14.777 32.7791 17.168 29.1162C18.4319 27.1801 18.4092 27.1195 15.2403 23.9762L12.5295 21.2869L17.0148 16.8463L21.4998 12.4055L24.2159 15.0895C27.4446 18.2801 27.3836 18.2609 29.7344 16.8176C33.6312 14.4246 36.9692 13.0967 42.5593 11.7158C44.1421 11.3246 44.1875 11.1904 44.1875 6.89668V3.125H50.5H56.8125V6.89668C56.8125 10.4156 56.8393 10.6971 57.2126 11.0936C57.4325 11.3273 57.8541 11.5754 58.1496 11.6445C63.6071 12.9238 67.8931 14.6307 71.5926 16.998C73.5481 18.2494 73.6093 18.227 76.7841 15.0895L79.5002 12.4055L83.9853 16.8463L88.4705 21.2869L85.7597 23.9762C82.5856 27.1248 82.5661 27.1771 83.8464 29.1381C84.4295 30.0316 86.7296 34.3639 86.9117 34.9117C86.9389 34.9939 89.4495 33.96 89.6245 33.7945C89.8194 33.6104 88.7303 31.2148 87.4619 29.0373L86.5586 27.4869L89.3738 24.6947C91.8021 22.2861 92.1887 21.8182 92.1887 21.2877C92.1887 20.742 91.5153 20.0059 86.1899 14.7311C80.6118 9.20586 80.1425 8.78906 79.5018 8.78906C78.8788 8.78906 78.5457 9.05293 76.0335 11.5357L73.2546 14.2822L71.1253 13.11C67.9018 11.335 63.2159 9.51895 60.7085 9.07266L59.9688 8.94082V4.9498C59.9688 0.972852 59.967 0.957031 59.4845 0.479492L59.0004 0H50.5H41.9996L41.5155 0.479492ZM46.5547 14.2801C42.319 14.758 37.7456 16.1367 33.9297 18.0861C23.0252 23.6572 15.7503 34.1848 14.412 46.3303C14.2972 47.3732 14.2031 48.6258 14.2031 49.1135V50H15.7521H17.3012L17.4347 48.0957C18.2429 36.5686 24.529 26.7516 34.6201 21.2572C38.785 18.9895 42.9548 17.7549 47.8862 17.3293L50.5 17.1037V15.5832V14.0625L49.2671 14.0879C48.5891 14.1018 47.3684 14.1883 46.5547 14.2801ZM47.6396 20.4275C41.8215 21.2539 37.918 22.6514 33.7198 25.4107C31.2226 27.0521 27.3227 30.9135 25.6648 33.3859C18.8195 43.5951 18.8195 56.4049 25.6648 66.6141C27.3181 69.0797 31.223 72.9482 33.7064 74.5805C37.1783 76.8623 41.1705 78.4652 45.2725 79.2246C47.9379 79.7182 53.2023 79.7195 55.7275 79.2273C58.2089 78.7438 60.3629 78.1045 60.3653 77.8508C60.369 77.4484 59.5016 75.1953 59.343 75.1953C59.2558 75.1953 58.3579 75.408 57.3475 75.668C48.0896 78.0496 38.3117 75.4201 31.573 68.7369C27.7156 64.9113 25.2303 60.2439 24.1404 54.7781C23.618 52.159 23.6679 47.4254 24.2463 44.7266C26.5403 34.0223 34.7436 26.0488 45.6741 23.8992C48.1275 23.4168 53.1264 23.4141 55.4316 23.8939C57.657 24.3574 60.7959 25.4033 62.4782 26.2422C65.9751 27.9857 70.2108 31.5047 72.0745 34.2146L72.8372 35.3236L74.0922 34.5076C74.7824 34.0586 75.3492 33.6096 75.3513 33.5096C75.3606 33.1018 73.0451 30.3844 71.1415 28.5689C66.9624 24.5836 62.0663 22.0598 56.2207 20.8773C54.4157 20.5121 49.0308 20.2299 47.6396 20.4275ZM78.5685 40.2906L75.75 43.0812V49.9941V56.9068L78.9007 60.0471L82.0515 63.1875L82.1063 79.2988L82.1611 95.4102L82.6064 96.2951C83.3074 97.6885 84.1036 98.5098 85.4505 99.2289C86.5941 99.8395 86.8383 99.8947 88.375 99.8908C89.7999 99.8871 90.2031 99.8086 91.0592 99.3682C92.5442 98.6041 93.1638 98.0123 93.9148 96.6408L94.5889 95.4102L94.6437 79.2988L94.6985 63.1875L97.8493 60.0471L101 56.9068V49.9941V43.0812L98.1815 40.2906L95.3629 37.5H93.1421C91.0476 37.5 90.8941 37.5271 90.4374 37.9795L89.9531 38.4588V44.2295V50H88.375H86.7969V44.2295V38.4588L86.3126 37.9795C85.8559 37.5271 85.7024 37.5 83.6079 37.5H81.3871L78.5685 40.2906ZM71.0156 44.833C71.0156 49.0406 71.0156 49.0412 70.5313 49.5205C70.2262 49.8229 69.8218 50 69.4375 50C69.0532 50 68.6488 49.8229 68.3437 49.5205C67.8594 49.0412 67.8594 49.0406 67.8594 44.833V40.625H69.4375H71.0156V44.833ZM83.6406 46.3955V52.1662L84.1249 52.6455C84.6051 53.1211 84.6396 53.125 88.375 53.125C92.1104 53.125 92.1449 53.1211 92.6251 52.6455L93.1094 52.1662V46.3955V40.625H93.5497C93.843 40.625 94.6329 41.2592 95.9169 42.5256L97.8438 44.4262V49.9941V55.5619L94.7368 58.6426L91.6299 61.7232L91.5312 78.3084C91.434 94.6777 91.4273 94.9004 91.0259 95.4326C90.253 96.4576 89.6225 96.7773 88.375 96.7773C87.1275 96.7773 86.497 96.4576 85.7241 95.4326C85.3227 94.9004 85.316 94.6777 85.2188 78.3084L85.1201 61.7232L82.0132 58.6426L78.9062 55.5619V50.0014V44.4406L80.8258 42.5328C82.1284 41.2383 82.8894 40.625 83.193 40.625H83.6406V46.3955ZM72.5938 72.3088C72.5938 72.5748 72.1574 73.1791 71.4656 73.8713C70.424 74.9135 70.2696 75 69.4493 75C68.633 75 68.4689 74.9096 67.4212 73.883C66.6955 73.1721 66.2812 72.6041 66.2812 72.3205C66.2812 71.8752 66.283 71.875 69.4375 71.875C72.5669 71.875 72.5938 71.8787 72.5938 72.3088ZM72.5938 85.1562V92.1875H69.4375H66.2812V85.1562V78.125H69.4375H72.5938V85.1562ZM71.5741 95.9896C70.7783 96.7223 69.8234 96.9902 68.7311 96.7873C68.3366 96.7141 67.7053 96.3619 67.3009 95.9896L66.5771 95.323H69.4375H72.2979L71.5741 95.9896Z" fill="#028C32"/>
</svg>
