<svg width="121" height="85" viewBox="0 0 121 85" fill="none" xmlns="http://www.w3.org/2000/svg">
<path fill-rule="evenodd" clip-rule="evenodd" d="M0 1.95446V3.90893H2.00879H4.01758V1.95446V0H2.00879H0V1.95446ZM8.03516 1.9563V3.91261L22.1558 3.85328L36.2764 3.79396L36.3449 1.89698L36.4137 0H22.2243H8.03516V1.9563ZM0.580186 8.38235L0 8.94661V41.0509V73.1553L0.690787 73.8274L1.38157 74.4995H8.82733H16.2731L16.6649 75.8217C17.7872 79.6099 21.1689 82.809 25.1378 83.8373C26.694 84.2404 29.7885 84.2404 31.3447 83.8373C35.216 82.8343 38.4674 79.8134 39.7239 76.0516L40.2422 74.4995H62.5329H84.8236L85.0909 75.4768C86.1508 79.3514 89.5565 82.6595 93.6774 83.817C95.5406 84.3404 99.0621 84.1969 100.979 83.5195C104.428 82.3008 107.253 79.3618 108.377 75.8217L108.797 74.4995H114.208H119.618L120.309 73.8274L121 73.1553V61.7997V50.444L120.218 49.1929C117.826 45.3633 102.655 22.5584 102.177 22.0739L101.611 21.4991L91.0993 21.4326L80.5879 21.366V15.1563V8.94661L80.0077 8.38235L79.4278 7.81785H40.2939H1.16013L0.580186 8.38235ZM76.5703 13.6812V15.6357H42.3027H8.03516V17.5902V19.5446H42.3027H76.5703V41.1587V62.7728H59.4365H42.3027V64.7272V66.6817H59.4365H76.5703V68.6362V70.5906H58.4196H40.2689L39.7459 69.0112C37.7971 63.1239 31.6351 59.6606 25.5802 61.0496C21.2542 62.0418 17.5701 65.4922 16.525 69.5297L16.2506 70.5906H10.134H4.01758V68.6408V66.6909L9.03955 66.6288L14.0615 66.5667L14.1301 64.6697L14.1988 62.7728H9.10809H4.01758V37.2498V11.7268H40.2939H76.5703V13.6812ZM100.888 27.1401C101.551 28.156 102.094 29.0872 102.094 29.2096C102.094 29.3485 99.047 29.4319 93.9816 29.4319H85.8696L85.2965 30.0254L84.7236 30.6186V40.124V49.6293L85.2965 50.2226L85.8696 50.816H101.142C112.706 50.816 116.484 50.883 116.699 51.092C116.904 51.2918 116.982 52.9416 116.982 57.0703V62.7728H113.901H110.819L110.888 64.6697L110.956 66.5667L113.969 66.6311L116.982 66.6955V68.6431V70.5906H112.875H108.767L108.493 69.5297C108.002 67.6359 106.827 65.7203 105.193 64.151C101.426 60.5325 96.0265 59.7199 91.2794 62.0565C88.4893 63.4299 86.2023 66.085 85.2889 69.011L84.7957 70.5906H82.8101H80.8242V47.9418V25.2931H90.2537H99.6832L100.888 27.1401ZM109.065 39.4765C111.275 42.8393 113.28 45.8869 113.52 46.249L113.956 46.9071H101.29H88.6231V40.124V33.3408L96.8355 33.3514L105.048 33.362L109.065 39.4765ZM31.632 65.4237C35.4981 67.1446 37.329 71.8475 35.5825 75.5708C34.8208 77.1949 33.3806 78.6929 31.7861 79.5198C30.7328 80.0661 30.3478 80.1325 28.2412 80.1325C26.1365 80.1325 25.7487 80.0659 24.6963 79.5211C22.4592 78.3634 21.0403 76.6203 20.4221 74.2696C19.3605 70.2324 21.9218 66.0956 26.2156 64.9123C27.7461 64.4909 30.0182 64.7052 31.632 65.4237ZM100.077 65.3842C102.613 66.5134 104.479 68.9592 104.818 71.5954C105.12 73.9452 103.744 77.2452 101.913 78.5621C100.082 79.8789 99.2514 80.133 96.7764 80.133C94.0572 80.133 93.0502 79.7612 91.2619 78.0969C89.5516 76.5055 88.8119 74.7366 88.8308 72.2832C88.8729 66.753 94.8791 63.0687 100.077 65.3842ZM26.2324 72.5451V74.4995H28.2412H30.25V72.5451V70.5906H28.2412H26.2324V72.5451ZM94.7676 72.5451V74.4995H96.7764H98.7852V72.5451V70.5906H96.7764H94.7676V72.5451Z" fill="#028C32"/>
</svg>
