<svg width="31" height="30" viewBox="0 0 31 30" fill="none" xmlns="http://www.w3.org/2000/svg">
<path fill-rule="evenodd" clip-rule="evenodd" d="M14.4283 0.0282303C12.2528 0.236693 10.5992 0.699462 8.79203 1.60566C7.3563 2.32554 6.18853 3.17997 4.95556 4.41264C3.63698 5.73101 2.80971 6.88869 2.02101 8.51946C1.09652 10.4309 0.629315 12.3328 0.55221 14.499C0.463203 16.9992 0.977429 19.3787 2.09002 21.6154C2.87379 23.191 3.67908 24.3057 4.95556 25.582C6.24611 26.8722 7.36604 27.6779 8.94595 28.4528C10.0483 28.9935 10.7601 29.2566 11.8777 29.5369C14.8102 30.2723 17.7514 30.1313 20.6166 29.1179C21.485 28.8108 23.0011 28.0511 23.7805 27.5326C25.9206 26.1088 27.6892 24.1429 28.8602 21.8862C29.9197 19.8444 30.4498 17.8186 30.5325 15.4956C30.6215 12.9954 30.1073 10.6159 28.9947 8.37918C28.2641 6.9105 27.4508 5.75944 26.3088 4.57801C25.0425 3.26779 23.8004 2.36383 22.1388 1.54299C20.4019 0.685041 18.7837 0.227079 16.8616 0.0495104C16.2643 -0.00565377 14.9062 -0.0175542 14.4283 0.0282303ZM19.8712 8.34834C20.3182 8.49818 20.7695 8.75724 21.1209 9.06577L21.3262 9.24598L21.7325 9.14057C22.2211 9.01383 22.8678 8.7614 23.2089 8.56437C23.3469 8.48464 23.458 8.44976 23.458 8.48622C23.458 8.61332 23.1139 9.23202 22.8756 9.53346C22.7432 9.70089 22.5026 9.93667 22.3409 10.0574C22.1792 10.1781 22.0726 10.2854 22.1041 10.2959C22.1958 10.3265 23.3437 10.0346 23.6514 9.90244L23.9327 9.78161L23.8273 9.96352C23.6802 10.2175 22.7543 11.189 22.4749 11.3825L22.2434 11.5429L22.2088 12.4347C22.1523 13.8946 21.8312 15.1135 21.1402 16.4922C19.736 19.2937 17.2261 21.1774 14.2335 21.6756C12.0163 22.0447 10.004 21.7598 8.06643 20.8025C7.0093 20.2802 7.00866 20.3039 8.08068 20.2952C8.86492 20.2888 9.08955 20.2653 9.5666 20.1398C10.5121 19.891 11.3855 19.4921 12.015 19.0217L12.211 18.8752L11.9271 18.8386C11.5065 18.7842 10.9235 18.5891 10.5584 18.3805C10.1219 18.131 9.51389 17.5071 9.28973 17.0784C8.96413 16.4557 8.94079 16.4922 9.66493 16.4922C10.5204 16.4922 10.6419 16.436 10.1471 16.2689C9.93799 16.1982 9.63491 16.0636 9.47366 15.9697C9.06252 15.7303 8.45371 15.0928 8.22621 14.6636C8.0194 14.2734 7.80257 13.521 7.80257 13.1936C7.80257 13.0231 7.81858 12.9986 7.90518 13.0368C8.19566 13.1647 8.80147 13.346 9.03718 13.3756L9.30433 13.4091L8.86022 12.9575C8.15139 12.2366 7.83957 11.4767 7.84502 10.4833C7.84801 9.93597 7.91439 9.62345 8.13151 9.13453L8.27493 8.81164L9.02088 9.54706C10.4216 10.9279 12.0989 11.8366 13.9299 12.2068C14.3948 12.3008 15.3528 12.412 15.3887 12.3761C15.3989 12.3659 15.3842 12.2194 15.3559 12.0506C15.2498 11.4173 15.4438 10.4808 15.8106 9.85501C16.2946 9.02931 17.2928 8.34442 18.2245 8.1988C18.7127 8.12241 19.3775 8.18279 19.8712 8.34834Z" fill="white"/>
</svg>
