<svg width="175" height="9" viewBox="0 0 175 9" fill="none" xmlns="http://www.w3.org/2000/svg">
<path d="M3.79686 4.43395C5.16701 4.43395 6.6024 4.38776 7.97255 4.34158C8.55975 4.34158 9.08171 4.29539 9.66892 4.29539C12.1482 4.20302 14.6275 4.11064 17.1069 4.01827C20.1081 3.92589 23.0442 3.78733 26.0454 3.69496C30.2864 3.51021 34.5273 3.37165 38.7682 3.1869C39.7469 3.14072 40.7256 3.14072 41.7043 3.09453C44.1836 3.00215 46.6629 2.90978 49.1422 2.86359C51.6215 2.77122 54.1008 2.67885 56.5801 2.63266C57.5588 2.58647 58.5375 2.54028 59.5162 2.54028C63.4309 2.44791 67.4108 2.35554 71.3255 2.26316C73.7396 2.21698 76.1537 2.17079 78.633 2.07841C79.6117 2.07841 80.5251 2.03223 81.5038 2.03223C85.288 1.98604 89.1374 1.93985 92.9217 1.89367C96.7059 1.84748 100.425 1.80129 104.209 1.75511C105.188 1.75511 106.166 1.75511 107.21 1.75511C109.69 1.75511 112.104 1.75511 114.583 1.75511C118.433 1.75511 122.217 1.75511 126.066 1.70892C127.306 1.70892 128.545 1.70892 129.785 1.70892C132.395 1.70892 135.005 1.70892 137.615 1.70892C137.81 1.70892 138.071 1.70892 138.267 1.70892C132.395 1.75511 126.458 1.80129 120.586 1.89367C118.106 1.93985 115.692 1.93985 113.213 1.98604C112.169 1.98604 111.06 1.98604 110.016 2.03223C106.427 2.07841 102.904 2.17079 99.3157 2.21698C95.2052 2.30935 91.0948 2.35554 86.9844 2.44791C86.2667 2.44791 85.6142 2.4941 84.8965 2.4941C82.6782 2.58647 80.5251 2.63266 78.3068 2.72503C73.8701 2.86359 69.4334 3.00215 64.9968 3.14072C64.3443 3.14072 63.6919 3.1869 63.0394 3.23309C60.8863 3.32546 58.668 3.46402 56.5149 3.5564C52.6002 3.74115 48.7507 3.92589 44.836 4.11064C43.7921 4.15683 42.6829 4.2492 41.639 4.29539C39.1597 4.43395 36.6804 4.57251 34.2011 4.75726C31.0693 4.94201 27.8723 5.12676 24.7405 5.3115C20.3691 5.58863 15.9324 5.86575 11.561 6.14287C10.5171 6.18906 9.47319 6.28143 8.36402 6.32762C6.47191 6.46618 4.5798 6.60474 2.68769 6.7433C2.49196 6.7433 2.29622 6.83567 2.29622 7.02042C2.29622 7.15898 2.49196 7.29754 2.68769 7.29754C3.40539 7.29754 4.05784 7.34373 4.77554 7.34373C4.64505 7.57467 4.5798 7.71323 4.5798 7.85179C4.5798 8.35985 5.16701 8.82172 5.94995 8.82172C11.3653 8.59078 16.7154 8.31366 22.1307 8.12891C26.8284 7.99035 31.526 7.8056 36.2237 7.66704C41.378 7.48229 46.5976 7.29755 51.752 7.15898C53.3831 7.1128 55.0143 7.06661 56.6454 6.97424C57.1021 6.97424 57.5588 6.92805 58.0808 6.92805C66.4322 6.78949 74.7835 6.60474 83.1349 6.46618C87.5716 6.37381 92.0735 6.28143 96.5101 6.23524C98.1413 6.18906 99.7072 6.18906 101.338 6.14287C109.885 6.0505 118.432 5.95812 126.98 5.86575C130.633 5.81956 134.287 5.77337 137.941 5.72719C141.073 5.681 144.204 5.681 147.336 5.58863C149.946 5.54244 152.49 5.45007 155.1 5.40388C156.405 5.35769 157.71 5.35769 158.95 5.3115C161.886 5.17294 164.822 5.03438 167.758 4.89582C167.562 5.08057 167.562 5.35769 167.627 5.54244C167.693 5.77337 167.888 5.95812 168.214 6.0505C168.475 6.14287 168.867 6.23524 169.128 6.14287C169.78 5.95812 170.433 5.77337 171.02 5.58863C171.02 5.58863 171.02 5.58863 170.955 5.58863C171.02 5.58863 171.02 5.54244 171.085 5.54244C171.151 5.54244 171.216 5.49625 171.216 5.49625H171.151C171.477 5.40388 171.803 5.3115 172.194 5.17294C172.521 5.08057 172.912 4.94201 173.238 4.84963C173.63 4.71107 173.956 4.57251 174.348 4.43395C174.739 4.29539 175 3.92589 175 3.60259C175 3.41784 174.935 3.27928 174.804 3.09453C174.674 2.90978 174.348 2.67885 174.021 2.63266C173.695 2.58647 173.369 2.54028 173.043 2.54028C172.977 2.54028 172.912 2.54028 172.847 2.54028C172.651 2.54028 172.39 2.54028 172.194 2.58647C171.673 2.63266 171.216 2.67885 170.694 2.67885C170.302 2.67885 169.911 2.72503 169.454 2.72503C168.345 2.77122 167.301 2.81741 166.192 2.90978C165.931 2.90978 165.605 2.95597 165.344 2.95597C165.474 2.86359 165.539 2.77122 165.539 2.67885C165.605 2.58647 165.605 2.4941 165.605 2.40172C165.605 2.35554 165.605 2.26316 165.67 2.21698C165.67 2.1246 165.67 2.03223 165.605 1.98604C165.605 1.98604 165.67 1.98604 165.67 1.93985C165.866 1.84748 166.061 1.75511 166.192 1.57036C166.322 1.4318 166.388 1.24705 166.388 1.0623C166.388 0.877553 166.322 0.738992 166.192 0.554244C166.127 0.508057 166.061 0.415683 165.996 0.369496C165.8 0.230935 165.605 0.184748 165.409 0.138561C165.018 0.046187 164.561 0 164.104 0C163.713 0 163.386 0 162.995 0C162.473 0 161.951 0 161.429 0C160.711 0 159.928 0 159.211 0C157.253 0 155.296 0 153.339 0C151.512 0 149.62 0 147.793 0C146.096 0 144.465 0 142.769 0C136.049 0 129.394 0.046187 122.673 0.092374C117.65 0.138561 112.626 0.184748 107.602 0.184748C105.383 0.184748 103.1 0.230935 100.882 0.277122C95.8577 0.369496 90.8338 0.415683 85.8099 0.508057C84.3745 0.508057 82.9392 0.554244 81.5038 0.554244C80.6556 0.554244 79.8726 0.600431 79.0245 0.600431C74.0658 0.738992 69.1072 0.877553 64.1486 1.01611C62.6479 1.0623 61.1473 1.10849 59.5814 1.15467C58.7332 1.15467 57.885 1.20086 57.0369 1.24705C52.0782 1.4318 47.1848 1.61654 42.2262 1.80129C39.6817 1.89367 37.1371 1.98604 34.5925 2.1246C30.2211 2.30935 25.8497 2.4941 21.5435 2.72503C17.7593 2.90978 13.9751 3.04834 10.1909 3.1869C9.60367 3.23309 9.01647 3.23309 8.36402 3.27928C7.38534 3.32546 6.40666 3.32546 5.42799 3.37165C4.5798 3.5564 3.66637 3.5564 2.81818 3.5564C2.75294 3.37165 2.49196 3.23309 2.29622 3.27928C1.70902 3.27928 1.18706 3.32546 0.599851 3.37165C0.338871 3.41784 0.0778906 3.51021 0.0126455 3.69496C-0.0525996 3.92589 0.143136 4.15683 0.404116 4.20302C0.665096 4.2492 0.926077 4.29539 1.18706 4.34158C1.44804 4.38776 1.64377 4.38776 1.90475 4.38776C2.5572 4.43395 3.14441 4.43395 3.79686 4.43395ZM156.47 2.95597C157.253 2.95597 158.102 2.95597 158.884 2.95597C158.95 3.09453 159.08 3.1869 159.211 3.27928C158.884 3.27928 158.558 3.32546 158.297 3.32546C157.71 3.32546 157.123 3.37165 156.536 3.37165C153.926 3.41784 151.381 3.51021 148.771 3.5564C147.597 3.60259 146.423 3.64877 145.248 3.64877C143.421 3.64877 141.529 3.69496 139.702 3.69496C135.461 3.74115 131.286 3.78733 127.045 3.83352C118.824 3.92589 110.668 4.01827 102.447 4.11064C96.5754 4.15683 90.7033 4.29539 84.8313 4.43395C76.0232 4.6187 67.1498 4.75726 58.3418 4.94201C56.5801 4.98819 54.8185 5.03438 53.0569 5.12676C48.033 5.3115 43.0092 5.45007 37.9853 5.63481C33.0919 5.81956 28.1333 5.95812 23.2399 6.14287C22.7832 6.14287 22.3265 6.18906 21.8698 6.18906C23.1747 6.09668 24.5448 6.0505 25.8497 5.95812C30.4821 5.72719 35.1145 5.45007 39.7469 5.21913C41.378 5.12676 43.0092 5.03438 44.575 4.94201C45.4232 4.89582 46.2714 4.84963 47.0544 4.84963C51.9477 4.66489 56.7759 4.43395 61.604 4.2492C62.5174 4.20302 63.4961 4.15683 64.4096 4.11064C65.7797 4.06446 67.1498 4.01827 68.4548 4.01827C73.4134 3.87971 78.372 3.74115 83.3306 3.60259C84.4398 3.5564 85.549 3.5564 86.5929 3.51021C86.8539 3.51021 87.1801 3.51021 87.4411 3.51021C88.224 3.51021 89.007 3.51021 89.7247 3.46402C94.6833 3.37165 99.7072 3.32546 104.666 3.23309C106.949 3.1869 109.233 3.14072 111.517 3.14072C118.889 3.09453 126.327 3.04834 133.7 3.00215C141.399 3.00215 148.967 2.95597 156.47 2.95597Z" fill="#5ED186" fill-opacity="0.7"/>
</svg>
