<svg width="127" height="113" viewBox="0 0 127 113" fill="none" xmlns="http://www.w3.org/2000/svg">
<path fill-rule="evenodd" clip-rule="evenodd" d="M14.6993 0.163867C9.25681 0.888362 4.25143 4.46975 1.8678 9.34493C-0.159648 13.4919 -0.0440559 10.6788 0.0339134 53.9929L0.102972 92.3587L0.77722 94.3388C2.28958 98.7796 5.40216 102.489 9.15904 104.329C13.3275 106.37 9.89542 106.204 49.5721 106.285L84.9323 106.357L86.4528 107.435C99.312 116.559 117.189 111.939 124.118 97.7017C128.042 89.6372 127.352 79.8381 122.323 72.2382C118.76 66.8528 111.89 62.5348 105.121 61.4259L104.2 61.2749L104.131 37.4609L104.062 13.6469L103.411 11.8672C101.305 6.11082 97.4113 2.33463 91.8057 0.611385L89.9533 0.0420859L53.0726 0.00372036C32.7882 -0.0175665 15.5201 0.0547096 14.6993 0.163867ZM90.0023 6.96452C93.5906 8.0301 96.4784 10.9724 97.397 14.4983C97.6883 15.6176 97.7502 19.2517 97.7502 35.2877V54.7203L88.53 45.5286C79.5856 36.6119 79.2757 36.3319 78.1668 36.1691C77.3485 36.0488 76.821 36.1087 76.3104 36.3795C75.918 36.5876 69.4721 42.8908 61.9858 50.386L48.3746 64.014L38.8426 54.5099C30.0105 45.7039 29.235 44.9937 28.2811 44.8402C27.5724 44.7264 27.0321 44.7895 26.5484 45.0425C26.1615 45.2447 21.4735 49.8055 16.13 55.1775L6.41477 64.9452V40.4C6.41477 13.8176 6.38408 14.4676 7.76005 12.0097C8.97439 9.84121 11.6216 7.76079 14.2117 6.93952C14.9919 6.69224 22.9952 6.6222 51.9755 6.60908C84.007 6.59472 88.9112 6.64051 90.0023 6.96452ZM46.0509 27.8882C43.4267 28.4288 41.0193 30.334 39.875 32.7753C39.3091 33.9825 39.2114 34.5196 39.2114 36.4188C39.2114 38.3542 39.3017 38.8307 39.8997 40.0485C41.393 43.089 43.9697 44.7596 47.4065 44.9152C50.506 45.0558 52.782 44.0009 54.6775 41.545C56.2695 39.4822 56.8094 36.4782 56.0483 33.9154C54.8013 29.7162 50.3127 27.0103 46.0509 27.8882ZM93.2389 62.3103C90.6951 63.1105 89.1218 63.8992 86.1167 65.8803C78.3148 71.0233 73.9386 81.3739 75.5898 90.7792C76.028 93.2747 77.445 97.5712 78.3252 99.0732L78.9628 100.161L47.7011 100.081C25.6167 100.024 16.0547 99.9185 15.129 99.7202C10.9664 98.8284 7.84272 95.8809 6.79422 91.855C6.49051 90.6891 6.41551 88.7894 6.41799 82.344L6.42096 74.2896L16.9587 63.5843C22.7546 57.6963 27.6269 52.879 27.786 52.879C27.9452 52.879 32.2518 57.0577 37.3562 62.165C47.2583 72.0728 47.4009 72.1872 49.2281 71.6906C49.9224 71.5018 52.9307 68.6233 63.8388 57.7109L77.575 43.9687L86.431 52.8174L95.2868 61.666L93.2389 62.3103ZM103.774 67.862C108.45 68.3696 113.554 71.4585 116.44 75.5272C121.975 83.3326 121.002 93.6829 114.101 100.403C110.564 103.847 106.149 105.592 100.968 105.593C95.6133 105.595 90.9525 103.569 87.0699 99.5539C83.6981 96.0668 82.2336 92.5975 81.9949 87.532C81.7227 81.7506 83.417 77.4071 87.6018 73.1582C90.7461 69.9659 94.3297 68.2229 98.7403 67.7412C100.568 67.5414 100.896 67.5494 103.774 67.862ZM99.7304 72.9545C98.9789 73.2488 91.177 80.9497 90.679 81.8885C89.5347 84.0462 91.0062 86.5419 93.4225 86.5419C94.5782 86.5419 95.1386 86.2414 96.5745 84.8518L97.7502 83.714V90.8537C97.7502 97.5799 97.7791 98.04 98.2492 98.8007C99.2182 100.369 101.345 100.806 102.81 99.739C104.112 98.7898 104.186 98.3096 104.186 90.7208V83.7123L105.521 85.0308C106.666 86.1615 107.023 86.3682 108.033 86.482C110.665 86.7785 112.33 84.4803 111.268 82.0167C110.835 81.0125 103.065 73.3018 102.128 72.9453C101.288 72.6268 100.56 72.6295 99.7304 72.9545Z" fill="#028C32" fill-opacity="0.25"/>
</svg>
