<svg width="123" height="21" viewBox="0 0 123 21" fill="none" xmlns="http://www.w3.org/2000/svg">
<path d="M4.94531 16L0.429688 -4.76837e-07H3.54688L6.42969 11.7578H6.57813L9.65625 -4.76837e-07H12.4922L15.5781 11.7656H15.7188L18.6016 -4.76837e-07H21.7188L17.2031 16H14.3438L11.1406 4.77344H11.0156L7.80469 16H4.94531ZM25.832 16.2422C25.0716 16.2422 24.3867 16.1068 23.7773 15.8359C23.1732 15.5599 22.694 15.1536 22.3398 14.6172C21.9909 14.0807 21.8164 13.4193 21.8164 12.6328C21.8164 11.9557 21.9414 11.3958 22.1914 10.9531C22.4414 10.5104 22.7826 10.1562 23.2148 9.89062C23.6471 9.625 24.1341 9.42448 24.6758 9.28906C25.2227 9.14844 25.7878 9.04687 26.3711 8.98437C27.0742 8.91146 27.6445 8.84635 28.082 8.78906C28.5195 8.72656 28.8372 8.63281 29.0352 8.50781C29.2383 8.3776 29.3398 8.17708 29.3398 7.90625V7.85938C29.3398 7.27083 29.1654 6.8151 28.8164 6.49219C28.4674 6.16927 27.9648 6.00781 27.3086 6.00781C26.6159 6.00781 26.0664 6.15885 25.6602 6.46094C25.2591 6.76302 24.9883 7.11979 24.8477 7.53125L22.207 7.15625C22.4154 6.42708 22.7591 5.81771 23.2383 5.32812C23.7174 4.83333 24.3034 4.46354 24.9961 4.21875C25.6888 3.96875 26.4544 3.84375 27.293 3.84375C27.8711 3.84375 28.4466 3.91146 29.0195 4.04687C29.5924 4.18229 30.1159 4.40625 30.5898 4.71875C31.0638 5.02604 31.444 5.44531 31.7305 5.97656C32.0221 6.50781 32.168 7.17187 32.168 7.96875V16H29.4492V14.3516H29.3555C29.1836 14.6849 28.9414 14.9974 28.6289 15.2891C28.3216 15.5755 27.9336 15.8073 27.4648 15.9844C27.0013 16.1563 26.457 16.2422 25.832 16.2422ZM26.5664 14.1641C27.1341 14.1641 27.6263 14.0521 28.043 13.8281C28.4596 13.599 28.7799 13.2969 29.0039 12.9219C29.2331 12.5469 29.3477 12.138 29.3477 11.6953V10.2812C29.2591 10.3542 29.1081 10.4219 28.8945 10.4844C28.6862 10.5469 28.4518 10.6016 28.1914 10.6484C27.931 10.6953 27.6732 10.737 27.418 10.7734C27.1628 10.8099 26.9414 10.8411 26.7539 10.8672C26.332 10.9245 25.9544 11.0182 25.6211 11.1484C25.2878 11.2786 25.0247 11.4609 24.832 11.6953C24.6393 11.9245 24.543 12.2214 24.543 12.5859C24.543 13.1068 24.7331 13.5 25.1133 13.7656C25.4935 14.0312 25.9779 14.1641 26.5664 14.1641ZM44.4961 7.17188L41.918 7.45312C41.8451 7.19271 41.7174 6.94792 41.5352 6.71875C41.3581 6.48958 41.1185 6.30469 40.8164 6.16406C40.5143 6.02344 40.1445 5.95312 39.707 5.95312C39.1185 5.95312 38.6237 6.08073 38.2227 6.33594C37.8268 6.59115 37.6315 6.92187 37.6367 7.32812C37.6315 7.67708 37.7591 7.96094 38.0195 8.17969C38.2852 8.39844 38.7227 8.57812 39.332 8.71875L41.3789 9.15625C42.5143 9.40104 43.3581 9.78906 43.9102 10.3203C44.4674 10.8516 44.7487 11.5469 44.7539 12.4062C44.7487 13.1615 44.5273 13.8281 44.0898 14.4062C43.6576 14.9792 43.056 15.4271 42.2852 15.75C41.5143 16.0729 40.6289 16.2344 39.6289 16.2344C38.1602 16.2344 36.9779 15.9271 36.082 15.3125C35.1862 14.6927 34.6523 13.8307 34.4805 12.7266L37.2383 12.4609C37.3633 13.0026 37.6289 13.4115 38.0352 13.6875C38.4414 13.9635 38.9701 14.1016 39.6211 14.1016C40.293 14.1016 40.832 13.9635 41.2383 13.6875C41.6497 13.4115 41.8555 13.0703 41.8555 12.6641C41.8555 12.3203 41.7227 12.0365 41.457 11.8125C41.1966 11.5885 40.7904 11.4167 40.2383 11.2969L38.1914 10.8672C37.0404 10.6276 36.1888 10.224 35.6367 9.65625C35.0846 9.08333 34.8112 8.35937 34.8164 7.48437C34.8112 6.74479 35.0117 6.10417 35.418 5.5625C35.8294 5.01562 36.3997 4.59375 37.1289 4.29687C37.8633 3.99479 38.7096 3.84375 39.668 3.84375C41.0742 3.84375 42.181 4.14323 42.9883 4.74219C43.8008 5.34115 44.3034 6.15104 44.4961 7.17188ZM53.0781 4V6.1875H46.1797V4H53.0781ZM47.8828 1.125H50.7109V12.3906C50.7109 12.7708 50.7682 13.0625 50.8828 13.2656C51.0026 13.4635 51.1589 13.599 51.3516 13.6719C51.5443 13.7448 51.7578 13.7812 51.9922 13.7812C52.1693 13.7812 52.3307 13.7682 52.4766 13.7422C52.6276 13.7161 52.7422 13.6927 52.8203 13.6719L53.2969 15.8828C53.1458 15.9349 52.9297 15.9922 52.6484 16.0547C52.3724 16.1172 52.0339 16.1536 51.6328 16.1641C50.9245 16.1849 50.2865 16.0781 49.7188 15.8437C49.151 15.6042 48.7005 15.2344 48.3672 14.7344C48.0391 14.2344 47.8776 13.6094 47.8828 12.8594V1.125ZM60.627 16.2344C59.4238 16.2344 58.3848 15.9844 57.5098 15.4844C56.64 14.9792 55.9707 14.2656 55.502 13.3437C55.0332 12.4167 54.7988 11.3255 54.7988 10.0703C54.7988 8.83594 55.0332 7.7526 55.502 6.82031C55.9759 5.88281 56.6374 5.15365 57.4863 4.63281C58.3353 4.10677 59.3327 3.84375 60.4785 3.84375C61.2181 3.84375 61.916 3.96354 62.5723 4.20312C63.2337 4.4375 63.8171 4.80208 64.3223 5.29687C64.8327 5.79167 65.2337 6.42187 65.5254 7.1875C65.8171 7.94792 65.9629 8.85417 65.9629 9.90625V10.7734H56.127V8.86719H63.252C63.2467 8.32552 63.1296 7.84375 62.9004 7.42187C62.6712 6.99479 62.3509 6.65885 61.9395 6.41406C61.5332 6.16927 61.0592 6.04687 60.5176 6.04687C59.9395 6.04687 59.4316 6.1875 58.9941 6.46875C58.5566 6.74479 58.2155 7.10937 57.9707 7.5625C57.7311 8.01042 57.6087 8.5026 57.6035 9.03906V10.7031C57.6035 11.401 57.7311 12 57.9863 12.5C58.2415 12.9948 58.5983 13.375 59.0566 13.6406C59.515 13.901 60.0514 14.0312 60.666 14.0312C61.0775 14.0312 61.4499 13.974 61.7832 13.8594C62.1165 13.7396 62.4056 13.5651 62.6504 13.3359C62.8952 13.1068 63.0801 12.8229 63.2051 12.4844L65.8457 12.7812C65.679 13.4792 65.3613 14.0885 64.8926 14.6094C64.429 15.125 63.8353 15.526 63.1113 15.8125C62.3874 16.0937 61.5592 16.2344 60.627 16.2344ZM70.4102 4L72.832 8.42969L75.293 4H78.2852L74.668 10L78.3477 16H75.3711L72.832 11.6797L70.3164 16H67.3164L70.9727 10L67.4102 4H70.4102ZM80.4727 20.5V4H83.2539V5.98437H83.418C83.5638 5.69271 83.7695 5.38281 84.0352 5.05469C84.3008 4.72135 84.6602 4.4375 85.1133 4.20312C85.5664 3.96354 86.1445 3.84375 86.8477 3.84375C87.7747 3.84375 88.6107 4.08073 89.3555 4.55469C90.1055 5.02344 90.6992 5.71875 91.1367 6.64062C91.5794 7.55729 91.8008 8.68229 91.8008 10.0156C91.8008 11.3333 91.5846 12.4531 91.1523 13.375C90.7201 14.2969 90.1315 15 89.3867 15.4844C88.6419 15.9688 87.7982 16.2109 86.8555 16.2109C86.168 16.2109 85.5977 16.0964 85.1445 15.8672C84.6914 15.638 84.3268 15.362 84.0508 15.0391C83.7799 14.7109 83.569 14.401 83.418 14.1094H83.3008V20.5H80.4727ZM83.2461 10C83.2461 10.776 83.3555 11.4557 83.5742 12.0391C83.7982 12.6224 84.1185 13.0781 84.5352 13.4062C84.957 13.7292 85.4674 13.8906 86.0664 13.8906C86.6914 13.8906 87.2148 13.724 87.6367 13.3906C88.0586 13.0521 88.3763 12.5911 88.5898 12.0078C88.8086 11.4193 88.918 10.75 88.918 10C88.918 9.25521 88.8112 8.59375 88.5977 8.01562C88.3841 7.4375 88.0664 6.98437 87.6445 6.65625C87.2227 6.32812 86.6966 6.16406 86.0664 6.16406C85.4622 6.16406 84.9492 6.32292 84.5273 6.64062C84.1055 6.95833 83.7852 7.40365 83.5664 7.97656C83.3529 8.54948 83.2461 9.22396 83.2461 10ZM99.5352 16.2344C98.332 16.2344 97.293 15.9844 96.418 15.4844C95.5482 14.9792 94.8789 14.2656 94.4102 13.3437C93.9414 12.4167 93.707 11.3255 93.707 10.0703C93.707 8.83594 93.9414 7.7526 94.4102 6.82031C94.8841 5.88281 95.5456 5.15365 96.3945 4.63281C97.2435 4.10677 98.2409 3.84375 99.3867 3.84375C100.126 3.84375 100.824 3.96354 101.48 4.20312C102.142 4.4375 102.725 4.80208 103.23 5.29687C103.741 5.79167 104.142 6.42187 104.434 7.1875C104.725 7.94792 104.871 8.85417 104.871 9.90625V10.7734H95.0352V8.86719H102.16C102.155 8.32552 102.038 7.84375 101.809 7.42187C101.579 6.99479 101.259 6.65885 100.848 6.41406C100.441 6.16927 99.9674 6.04687 99.4258 6.04687C98.8477 6.04687 98.3398 6.1875 97.9023 6.46875C97.4648 6.74479 97.1237 7.10937 96.8789 7.5625C96.6393 8.01042 96.5169 8.5026 96.5117 9.03906V10.7031C96.5117 11.401 96.6393 12 96.8945 12.5C97.1497 12.9948 97.5065 13.375 97.9648 13.6406C98.4232 13.901 98.9596 14.0312 99.5742 14.0312C99.9857 14.0312 100.358 13.974 100.691 13.8594C101.025 13.7396 101.314 13.5651 101.559 13.3359C101.803 13.1068 101.988 12.8229 102.113 12.4844L104.754 12.7812C104.587 13.4792 104.27 14.0885 103.801 14.6094C103.337 15.125 102.743 15.526 102.02 15.8125C101.296 16.0937 100.467 16.2344 99.5352 16.2344ZM107.264 16V4H110.006V6H110.131C110.35 5.30729 110.725 4.77344 111.256 4.39844C111.792 4.01823 112.404 3.82812 113.092 3.82812C113.248 3.82812 113.423 3.83594 113.615 3.85156C113.813 3.86198 113.977 3.88021 114.107 3.90625V6.50781C113.988 6.46615 113.798 6.42969 113.537 6.39844C113.282 6.36198 113.035 6.34375 112.795 6.34375C112.279 6.34375 111.816 6.45573 111.404 6.67969C110.998 6.89844 110.678 7.20312 110.443 7.59375C110.209 7.98437 110.092 8.4349 110.092 8.94531V16H107.264ZM122.623 4V6.1875H115.725V4H122.623ZM117.428 1.125H120.256V12.3906C120.256 12.7708 120.313 13.0625 120.428 13.2656C120.548 13.4635 120.704 13.599 120.896 13.6719C121.089 13.7448 121.303 13.7812 121.537 13.7812C121.714 13.7812 121.876 13.7682 122.021 13.7422C122.173 13.7161 122.287 13.6927 122.365 13.6719L122.842 15.8828C122.691 15.9349 122.475 15.9922 122.193 16.0547C121.917 16.1172 121.579 16.1536 121.178 16.1641C120.469 16.1849 119.831 16.0781 119.264 15.8437C118.696 15.6042 118.245 15.2344 117.912 14.7344C117.584 14.2344 117.423 13.6094 117.428 12.8594V1.125Z" fill="#029735"/>
</svg>
